<svg width="16" height="17" viewBox="0 0 16 17" fill="none" xmlns="http://www.w3.org/2000/svg">
<path d="M8.11652 1.08465C8.55933 1.20713 8.95571 1.19592 9.22696 1.14924C9.25842 1.68487 9.30278 2.39193 9.34831 3.0227C9.37491 3.3913 9.40199 3.73494 9.4272 4.00346C9.43979 4.13759 9.45204 4.25432 9.46367 4.34665C9.47461 4.43349 9.48667 4.51347 9.50119 4.5643C9.51574 4.61524 9.52815 4.75168 9.53267 4.9721C9.53697 5.18191 9.53412 5.44202 9.52828 5.72067C9.52413 5.91835 9.51844 6.12592 9.51284 6.33008C9.50281 6.69621 9.49307 7.05138 9.49307 7.31885C9.49307 7.72536 9.45055 8.62545 9.3939 9.50847C9.33702 10.395 9.26725 11.242 9.21483 11.549L9.18677 11.7133L9.34016 11.7786C9.55529 11.8701 9.8402 11.9182 10.1377 11.9436C10.4395 11.9693 10.7728 11.9732 11.0946 11.9672C11.3203 11.9631 11.5422 11.9541 11.7458 11.9442C11.0425 12.4414 10.3336 13.162 9.71242 13.8603C9.2844 14.3414 8.89084 14.8205 8.56189 15.2232C8.53852 15.2519 8.51551 15.28 8.49286 15.3078C8.29494 15.5502 8.12508 15.7582 7.98745 15.9186C7.34964 14.9036 6.4141 13.9276 5.56881 13.1582C5.02245 12.6609 4.50781 12.2445 4.12601 11.9544C4.14034 11.9534 4.15471 11.9523 4.16912 11.9512C4.48766 11.9263 4.85542 11.873 5.17913 11.7886C5.70797 11.6506 6.32394 11.7315 6.56008 11.7894L6.82719 11.8548L6.82114 11.5798C6.81491 11.2964 6.80825 10.9981 6.80138 10.6904C6.77376 9.45392 6.74274 8.06504 6.72273 6.8739C6.71023 6.13005 6.70205 5.46441 6.70166 4.96175C6.70147 4.71027 6.70323 4.50088 6.70731 4.34341C6.71161 4.17745 6.71828 4.08868 6.72335 4.06334C6.77703 3.79496 6.75759 3.41815 6.72662 3.0697C6.71217 2.90713 6.69536 2.75155 6.67974 2.607C6.65992 2.42358 6.64202 2.2579 6.63328 2.11819C6.62231 1.94263 6.64766 1.69352 6.68805 1.4426C6.71607 1.2685 6.75003 1.10115 6.77991 0.969298C7.09665 0.949888 7.64884 0.955293 8.11652 1.08465Z" fill="currentColor" stroke="black" stroke-width="0.421875"/>
</svg>
