<svg width="32" height="32" viewBox="0 0 32 32" fill="none" xmlns="http://www.w3.org/2000/svg">
<path d="M12.7589 3.28711C13.025 3.15163 13.3442 3.17595 13.587 3.34961C15.3266 4.59338 16.8796 6.0782 18.1984 7.75976L18.4591 8.09863L18.5021 8.16308C19.4989 9.79338 20.268 11.5501 20.7911 13.3838C20.9743 13.1737 21.1407 12.9487 21.2843 12.708C21.6358 12.1187 21.8537 11.4591 21.922 10.7764L21.9445 10.6504C22.02 10.3658 22.2481 10.1413 22.5421 10.0752C22.8784 9.99964 23.2257 10.1481 23.4034 10.4434C24.1125 11.6216 24.6588 12.8904 25.0284 14.2148C25.5713 15.7703 25.836 17.4092 25.8087 19.0566L25.797 19.5371C25.7425 20.6576 25.4951 21.7616 25.0636 22.7998C24.5705 23.9862 23.847 25.0632 22.9357 25.9687C22.0243 26.8743 20.9426 27.5907 19.7531 28.0762C18.5711 28.5585 17.3058 28.8019 16.0294 28.7959L16.0304 28.7969C14.7554 28.8289 13.4867 28.6064 12.299 28.1416C11.1111 27.6768 10.0281 26.9789 9.11341 26.0898C8.19871 25.2008 7.4702 24.1381 6.97181 22.9639C6.47786 21.8001 6.22061 20.5501 6.21204 19.2861C6.13906 17.6979 6.48646 16.1186 7.21985 14.708L7.25501 14.6465C7.89354 13.6443 8.64529 12.7191 9.49427 11.8877L9.49915 11.8818C10.1705 11.2358 10.7224 10.4769 11.1329 9.64062C11.9023 7.8566 12.3081 5.93704 12.3224 3.99414L12.3302 3.88379C12.3675 3.62957 12.526 3.40582 12.7589 3.28711ZM13.8351 5.55859C13.6654 7.18754 13.2486 8.78433 12.5958 10.293C12.591 10.3041 12.5865 10.3153 12.5812 10.3262C12.0886 11.3357 11.4213 12.2499 10.6124 13.0293L10.6134 13.0303C9.86029 13.7678 9.19286 14.5881 8.62415 15.4756C8.06858 16.556 7.78718 17.7552 7.80286 18.9678L7.81067 19.2471C7.81411 20.3096 8.0303 21.3608 8.44544 22.3389C8.86058 23.3168 9.46682 24.2019 10.2286 24.9424C10.9905 25.6829 11.8925 26.2642 12.882 26.6514C13.7476 26.9901 14.6647 27.1743 15.5919 27.1973H16.0167C17.0901 27.205 18.1547 27.0003 19.1486 26.5947C20.1425 26.1891 21.0462 25.5906 21.8077 24.834C22.5694 24.0773 23.174 23.1769 23.5861 22.1855C23.998 21.1943 24.21 20.1311 24.2091 19.0576C24.2091 19.0527 24.209 19.0479 24.2091 19.043C24.235 17.5688 23.9974 16.1017 23.5079 14.7109C23.502 14.694 23.4961 14.6765 23.4913 14.6592C23.3369 14.1034 23.1467 13.559 22.924 13.0283C22.8425 13.1979 22.7551 13.3651 22.6583 13.5273C22.1867 14.3181 21.5469 14.9957 20.7843 15.5117C20.5646 15.6603 20.2855 15.6902 20.0392 15.5918C19.7929 15.4932 19.6114 15.2787 19.5548 15.0195C19.094 12.9056 18.2838 10.8833 17.1593 9.03515C16.1877 7.75091 15.0725 6.58411 13.8351 5.55859Z" fill="#1D1E1D"/>
</svg>
