<svg width="33" height="32" viewBox="0 0 33 32" fill="none" xmlns="http://www.w3.org/2000/svg">
<g clip-path="url(#clip0_3288_14985)">
<path d="M13.6334 10.5998V9.2498M13.6334 16.6748V15.3248M13.6334 22.7498V21.3998M7.15337 5.1998H25.5134C27.0255 5.1998 27.7816 5.1998 28.3592 5.49409C28.8672 5.75295 29.2802 6.16599 29.5391 6.67403C29.8334 7.25159 29.8334 8.00766 29.8334 9.5198V11.2748C27.2238 11.2748 25.1084 13.3903 25.1084 15.9998C25.1084 18.6094 27.2238 20.7248 29.8334 20.7248V22.4798C29.8334 23.9919 29.8334 24.748 29.5391 25.3256C29.2802 25.8336 28.8672 26.2467 28.3592 26.5055C27.7816 26.7998 27.0255 26.7998 25.5134 26.7998H7.15337C5.64123 26.7998 4.88516 26.7998 4.3076 26.5055C3.79956 26.2467 3.38651 25.8336 3.12766 25.3256C2.83337 24.748 2.83337 23.9919 2.83337 22.4798V20.7248C5.44292 20.7248 7.55837 18.6094 7.55837 15.9998C7.55837 13.3903 5.44292 11.2748 2.83337 11.2748V9.5198C2.83337 8.00766 2.83337 7.25159 3.12766 6.67403C3.38651 6.16599 3.79956 5.75295 4.3076 5.49409C4.88516 5.1998 5.64123 5.1998 7.15337 5.1998Z" stroke="#1D1E1D" stroke-width="1.5" stroke-linecap="round" stroke-linejoin="round"/>
</g>
<defs>
<clipPath id="clip0_3288_14985">
<rect width="32" height="32" fill="white" transform="translate(0.333374)"/>
</clipPath>
</defs>
</svg>

