<svg width="33" height="32" viewBox="0 0 33 32" fill="none" xmlns="http://www.w3.org/2000/svg">
<g clip-path="url(#clip0_3288_14979)">
<path fill-rule="evenodd" clip-rule="evenodd" d="M16.0773 9.3902C16.229 9.30937 16.3988 9.30948 16.5607 9.37164C17.0122 9.54501 17.4245 9.78319 17.7668 10.1304C17.8087 10.1727 17.8474 10.2199 17.881 10.2691C18.0303 10.4867 18.0031 10.6785 17.7883 10.8316C17.3871 11.1174 16.9347 11.2987 16.4679 11.4449C16.4211 11.4594 16.3673 11.453 16.2912 11.4586C15.9845 11.4329 15.6856 11.2993 15.3908 11.1627C15.2125 11.0802 15.042 10.9764 14.8801 10.8648C14.6291 10.6914 14.6024 10.4798 14.8039 10.2447C14.9111 10.1197 15.0307 9.99597 15.1681 9.90875C15.4627 9.72203 15.7694 9.55386 16.0773 9.3902ZM16.6554 9.93219C16.4755 9.81198 16.2808 9.80376 16.0959 9.91461C15.8833 10.0424 15.6784 10.1839 15.4728 10.3228C15.3834 10.3831 15.2998 10.4526 15.1906 10.5357C15.3871 10.6276 15.5553 10.7091 15.7258 10.7857C16.2127 11.0048 16.6645 10.9344 17.0939 10.6998L17.2765 10.5894C17.3904 10.5144 17.394 10.4552 17.2873 10.3765C17.0801 10.2238 16.8696 10.0752 16.6554 9.93219Z" fill="#1D1E1D"/>
<path d="M12.2267 8.31988C12.646 8.17845 13.1326 8.49999 13.1916 8.96148C13.2313 9.27218 13.166 9.5551 12.9162 9.76324C12.4983 10.1109 11.9133 9.91482 11.7551 9.3775C11.7292 9.29024 11.7239 9.19661 11.7092 9.10602C11.7203 8.74192 11.928 8.42087 12.2267 8.31988Z" fill="#1D1E1D"/>
<path d="M20.3322 8.2984C20.6353 8.36096 20.8153 8.57164 20.9064 8.85895C20.9322 8.94081 20.9358 9.02977 20.9494 9.11578C20.9402 9.63604 20.5764 9.98662 20.0929 9.92535C19.8459 9.89395 19.6714 9.74773 19.5539 9.53375C19.3837 9.22371 19.4187 8.82792 19.6428 8.56012C19.8223 8.3453 20.0554 8.24143 20.3322 8.2984Z" fill="#1D1E1D"/>
<path fill-rule="evenodd" clip-rule="evenodd" d="M15.7502 0.38629C15.7321 0.0803233 15.9489 -0.0682539 16.2443 0.0298443C16.5288 0.124337 16.7323 0.3298 16.9015 0.562071C17.053 0.769939 17.1768 0.998654 17.3068 1.22125C17.3453 1.28679 17.3852 1.31169 17.465 1.32086C19.1088 1.50983 20.6956 1.88947 22.1017 2.81012C23.6392 3.81715 24.5709 5.26415 25.0715 7.00836C25.3035 7.81778 25.3945 8.64842 25.3459 9.48785C25.2664 10.8579 24.87 12.1382 24.2013 13.3345C24.0914 13.5314 23.9737 13.7242 23.839 13.9546C23.8929 14.0005 23.9636 14.0519 24.0236 14.1138C25.9725 16.1272 27.6587 18.3413 29.0607 20.7681C29.222 21.0474 29.3583 21.3432 29.4826 21.6431L29.6037 21.9439C29.6659 22.1029 29.6665 22.303 29.6418 22.4761C29.5827 22.8906 29.2975 23.0503 28.8654 23.0181C28.34 22.9789 27.8936 22.7253 27.4523 22.4625C26.9423 22.1585 26.4924 21.7793 26.0431 21.3482C26.1756 21.9552 26.2135 22.543 26.1799 23.1314C26.1265 24.0659 25.9825 24.9937 25.5705 25.8384C24.8229 27.3708 23.6598 28.4941 22.0842 29.1724C22.0433 29.1899 22.0019 29.2075 21.9533 29.2281C22.1409 29.344 22.3255 29.4399 22.4894 29.563C22.6395 29.6759 22.7903 29.8014 22.9025 29.9498C23.2566 30.4188 23.1718 30.9787 22.7082 31.3443C22.4207 31.571 22.0892 31.7071 21.7375 31.7935C20.6802 32.0533 19.6207 32.0902 18.5676 31.7798C18.345 31.7143 18.1265 31.6122 17.9269 31.4927C17.3688 31.1584 17.1633 30.6091 17.3381 29.98C17.3503 29.9364 17.3644 29.8925 17.3791 29.8433H15.2853C15.3103 30.0187 15.3494 30.1903 15.3566 30.3629C15.3747 30.7963 15.1953 31.1398 14.8469 31.3961C14.447 31.6901 13.9851 31.8382 13.506 31.9127C12.5749 32.0574 11.6457 32.0339 10.7404 31.7466C10.4895 31.6672 10.2397 31.5489 10.0246 31.398C9.42655 30.9787 9.38249 30.2898 9.91716 29.7916C10.1039 29.6173 10.3324 29.4874 10.5441 29.3404C10.5987 29.3025 10.6619 29.277 10.714 29.2496C7.31079 27.6716 6.11801 24.949 6.58904 21.3531C6.37046 21.5431 6.15059 21.7469 5.91814 21.9341C5.39541 22.3557 4.84144 22.7319 4.1906 22.9273C3.99642 22.9853 3.78248 23.0211 3.5822 23.0064C3.20398 22.9789 3.01435 22.7427 3.00213 22.3609C2.99193 22.0423 3.1011 21.7557 3.23357 21.4752C3.70431 20.4792 4.3039 19.5602 4.92498 18.6548C5.79894 17.3807 6.75297 16.1692 7.78533 15.0201C7.97063 14.8137 8.16603 14.6163 8.35662 14.4146C8.50196 14.2612 8.64713 14.1069 8.79998 13.9449C8.30715 13.1325 7.89001 12.2898 7.62908 11.3755C7.39203 10.5441 7.26556 9.69475 7.30974 8.8316C7.40402 6.99014 8.02541 5.34778 9.24529 3.95367C10.122 2.95179 11.2356 2.31064 12.4904 1.89996C13.1815 1.67375 13.8842 1.49357 14.6359 1.35602C14.5806 1.31156 14.5205 1.27168 14.4699 1.22223C14.2945 1.05076 14.26 0.911554 14.342 0.741758C14.4271 0.566139 14.5954 0.481245 14.8136 0.499571C15.1584 0.528509 15.4572 0.681905 15.7511 0.847227C15.7905 0.869422 15.8286 0.89449 15.8566 0.91168C15.8202 0.74033 15.7608 0.564855 15.7502 0.38629ZM12.0226 29.5982C11.4975 29.4787 11.4925 29.4717 11.0178 29.7037C10.7746 29.8223 10.5371 29.963 10.3215 30.1255C10.0218 30.3515 9.97266 30.7553 10.3527 30.9859C10.4432 31.0406 10.5323 31.0995 10.6281 31.1431C11.1436 31.3768 11.6926 31.4591 12.4543 31.5025C12.6764 31.4756 13.0984 31.4369 13.5158 31.3697C13.8578 31.3147 14.1866 31.2028 14.4748 31.0005C14.8657 30.7263 14.9471 30.2717 14.675 29.8863C14.6502 29.8513 14.5979 29.8172 14.5568 29.815C14.2709 29.7997 13.9839 29.7925 13.6974 29.7828C13.1346 29.7636 12.5741 29.7237 12.0226 29.5982ZM21.0597 29.524C20.6785 29.586 20.3013 29.6857 19.9181 29.7193C19.3204 29.7718 18.719 29.7809 18.1193 29.8121C18.0749 29.8143 18.0171 29.8339 17.9904 29.8658C17.7356 30.1706 17.7601 30.6349 18.0519 30.9058C18.1516 30.9985 18.27 31.0787 18.3928 31.1373C18.9574 31.4071 19.5646 31.4738 20.2424 31.4966C20.3971 31.4841 20.6137 31.4705 20.8293 31.4488C21.2713 31.4046 21.7035 31.3125 22.0988 31.105C22.2499 31.0256 22.3859 30.9055 22.507 30.7828C22.6295 30.6586 22.6402 30.4957 22.5353 30.3521C22.4517 30.2382 22.3615 30.1129 22.2443 30.0425C21.942 29.8608 21.6249 29.7023 21.3078 29.5464C21.2378 29.512 21.1401 29.5109 21.0597 29.524ZM12.4094 5.21832C11.4028 5.27502 10.619 5.76627 10.049 6.5777C9.53102 7.31465 9.30289 8.16697 9.22674 9.05426C9.1606 9.82316 9.24466 10.5841 9.46111 11.3277C9.65116 11.9806 9.94626 12.588 10.2619 13.1871C10.6026 13.8337 10.7911 14.5183 10.7775 15.2564C10.768 15.7652 10.6661 16.2557 10.506 16.732C10.1634 17.7512 9.80007 18.7638 9.45134 19.7808C9.16074 20.6288 8.95225 21.4977 8.8947 22.3931C8.84524 23.1657 8.90533 23.9352 9.08318 24.692C9.34081 25.7867 9.83732 26.7516 10.672 27.5171C11.419 28.2021 12.3024 28.6491 13.2756 28.9214C14.1454 29.1648 15.0307 29.2787 15.9299 29.3062L16.3156 29.313C16.8635 29.2758 17.4127 29.25 17.9592 29.1978C18.6855 29.1283 19.3943 28.9636 20.0734 28.6949C21.3323 28.1972 22.35 27.4097 23.0012 26.1978C23.4322 25.3955 23.6622 24.5343 23.7414 23.6295C23.8053 22.8979 23.7711 22.1727 23.6388 21.4498C23.4927 20.65 23.2367 19.8826 22.9738 19.1168C22.6784 18.2558 22.3726 17.3979 22.09 16.5328C21.8889 15.9164 21.8238 15.2791 21.9113 14.6334C21.9894 14.0565 22.1939 13.5226 22.4767 13.0152C23.0358 12.0126 23.3998 10.9509 23.4435 9.79254C23.4802 8.825 23.2816 7.90793 22.8732 7.0318C22.336 5.87991 20.9175 4.81984 19.2101 5.36285C18.6591 5.5382 18.1109 5.72739 17.5715 5.93609C16.7184 6.2659 15.8753 6.26729 15.0275 5.92633C14.6527 5.77575 14.2749 5.63 13.8937 5.49664C13.4141 5.32882 12.9195 5.1897 12.4094 5.21832ZM16.2345 0.717344C16.3282 0.959552 16.4211 1.20225 16.5158 1.44391C16.5511 1.53358 16.5994 1.61931 16.6252 1.71148C16.6682 1.86516 16.5629 2.00255 16.4064 1.98004C16.3274 1.96829 16.2374 1.90773 16.1877 1.84234C15.9309 1.5047 15.591 1.28152 15.2131 1.10895C15.1474 1.07908 15.0749 1.06402 14.9709 1.03082C15.142 1.31663 15.2905 1.56568 15.4396 1.81402C15.5916 2.06689 15.7452 2.31939 15.8967 2.57281C15.9504 2.66248 15.97 2.76853 15.8898 2.84039C15.8325 2.89143 15.7318 2.9299 15.6594 2.91852C15.5898 2.90728 15.5211 2.83359 15.4709 2.77203C15.2783 2.53586 15.0967 2.29003 14.9025 2.05523C14.8625 2.00688 14.778 1.95524 14.7238 1.96441C13.6951 2.13755 12.6956 2.41333 11.7453 2.85016C10.8465 3.26334 10.0618 3.83117 9.44744 4.61188C8.30834 6.05944 7.75185 7.69733 7.85662 9.55035C7.9008 10.3358 8.08555 11.0889 8.34588 11.8238C8.59432 12.5252 8.96935 13.1674 9.35174 13.8033C9.44936 13.966 9.44003 14.0873 9.31756 14.232C9.26712 14.2918 9.20988 14.3458 9.15642 14.4029C8.61869 14.9762 8.05936 15.5317 7.54802 16.1275C6.51877 17.3271 5.58707 18.6024 4.73064 19.9312C4.31638 20.5739 3.906 21.2208 3.6281 21.939C3.58225 22.0577 3.54976 22.1852 3.53142 22.3111C3.51581 22.4201 3.58003 22.4982 3.69549 22.4771C3.86568 22.446 4.04044 22.4148 4.19841 22.3482C4.9754 22.0197 5.62386 21.5003 6.22966 20.9273C6.86605 20.3254 7.42539 19.6538 7.94451 18.9488C8.12225 18.7075 8.30071 18.4662 8.4865 18.231C8.57286 18.1216 8.71312 18.1077 8.82146 18.1773C8.93568 18.2509 8.97233 18.3681 8.91814 18.5035C8.89789 18.5542 8.87314 18.6052 8.84099 18.649C8.48167 19.1409 8.12869 19.6381 7.75603 20.1197C7.55408 20.3808 7.35826 20.6389 7.27459 20.9644C7.03643 21.8901 6.95742 22.8272 7.08025 23.7779C7.19393 24.6576 7.47639 25.4844 7.93377 26.2388C8.59958 27.337 9.53881 28.1384 10.7248 28.6334C11.1327 28.8034 11.5634 28.9199 11.9836 29.0611C11.9891 29.0462 11.994 29.0311 11.9992 29.0162C11.9504 28.9932 11.901 28.9704 11.8527 28.9468C10.5573 28.3121 9.55966 27.3801 8.96502 26.0474C8.39312 24.7652 8.27605 23.4148 8.39666 22.0367C8.46115 21.3017 8.62001 20.5799 8.85369 19.8795C9.19381 18.8591 9.55448 17.8455 9.90154 16.8277C10.0713 16.3301 10.2158 15.8243 10.2433 15.2964C10.2736 14.7129 10.1221 14.1631 9.87615 13.6392C9.67665 13.2144 9.45626 12.7993 9.26287 12.3716C8.93217 11.6399 8.72652 10.8698 8.674 10.0689C8.63873 9.5346 8.65693 8.99803 8.74529 8.46539C8.86869 7.72048 9.10485 7.01965 9.5158 6.38336C10.3228 5.134 11.7796 4.35504 13.425 4.79352C13.9916 4.94442 14.5397 5.16636 15.0949 5.35895C15.4947 5.49761 15.8901 5.6841 16.3224 5.64215C16.6486 5.61045 16.9761 5.53723 17.2892 5.43805C17.8449 5.26216 18.386 5.0404 18.9406 4.8609C19.509 4.67698 20.0985 4.6027 20.6887 4.71734C21.7923 4.93186 22.6224 5.55341 23.2062 6.50445C23.6656 7.25254 23.8885 8.07829 23.966 8.94781C24.0288 9.65256 23.9878 10.3495 23.8342 11.0406C23.6577 11.8342 23.329 12.5676 22.9533 13.2818C22.6319 13.8927 22.3987 14.5293 22.4123 15.2291C22.4226 15.7534 22.5612 16.2571 22.7306 16.7505C23.0622 17.7157 23.4116 18.6758 23.7306 19.6451C24.0377 20.5788 24.2648 21.5319 24.299 22.522C24.3323 23.4831 24.255 24.431 23.9611 25.3521C23.6074 26.4609 23.0016 27.4018 22.0949 28.1421C21.6639 28.4942 21.1957 28.7837 20.6887 29.0318C20.7066 29.0318 20.7253 29.0347 20.7424 29.0308C22.199 28.7063 23.4107 27.9803 24.3381 26.8052C25.092 25.8501 25.4916 24.7468 25.6262 23.5455C25.704 22.8513 25.6343 22.1617 25.5168 21.4761C25.4329 20.9869 25.2629 20.5424 24.9416 20.1509C24.5934 19.7266 24.2733 19.2781 23.9465 18.8365C23.8649 18.7262 23.7926 18.6058 23.7345 18.482C23.6799 18.3652 23.733 18.2407 23.842 18.1724C23.9481 18.1057 24.0782 18.1245 24.1672 18.2213C24.2012 18.2587 24.2343 18.298 24.2648 18.3384C24.8146 19.0691 25.3533 19.8088 25.9845 20.4742C26.6106 21.1341 27.2801 21.742 28.0822 22.1822C28.2468 22.2726 28.4234 22.347 28.6027 22.4088L28.7834 22.4664C29.0776 22.5536 29.1896 22.4271 29.0969 22.1343C29.0441 21.9682 28.9918 21.7969 28.9074 21.6461C28.5634 21.0315 28.2337 20.4062 27.8498 19.817C26.5481 17.8189 25.0957 15.9375 23.4084 14.2457C23.2016 14.0383 23.1922 13.9675 23.3498 13.7173C23.7313 13.1122 24.0601 12.48 24.3088 11.8082C24.7162 10.7077 24.9147 9.57506 24.7922 8.40094C24.6994 7.51376 24.4472 6.67159 24.0441 5.87359C23.3017 4.40395 22.1782 3.34291 20.6564 2.71539C19.5953 2.27776 18.4882 2.0103 17.3459 1.89606C17.2258 1.88411 17.1446 1.84065 17.0793 1.73199C16.9201 1.46778 16.7532 1.2072 16.5734 0.956602C16.497 0.849973 16.3811 0.771339 16.2834 0.680235C16.267 0.69242 16.2509 0.705162 16.2345 0.717344Z" fill="#1D1E1D"/>
<path fill-rule="evenodd" clip-rule="evenodd" d="M16.0773 9.3902C16.229 9.30937 16.3988 9.30948 16.5607 9.37164C17.0122 9.54501 17.4245 9.78319 17.7668 10.1304C17.8087 10.1727 17.8474 10.2199 17.881 10.2691C18.0303 10.4867 18.0031 10.6785 17.7883 10.8316C17.3871 11.1174 16.9347 11.2987 16.4679 11.4449C16.4211 11.4594 16.3673 11.453 16.2912 11.4586C15.9845 11.4329 15.6856 11.2993 15.3908 11.1627C15.2125 11.0802 15.042 10.9764 14.8801 10.8648C14.6291 10.6914 14.6024 10.4798 14.8039 10.2447C14.9111 10.1197 15.0307 9.99597 15.1681 9.90875C15.4627 9.72203 15.7694 9.55386 16.0773 9.3902ZM16.6554 9.93219C16.4755 9.81198 16.2808 9.80376 16.0959 9.91461C15.8833 10.0424 15.6784 10.1839 15.4728 10.3228C15.3834 10.3831 15.2998 10.4526 15.1906 10.5357C15.3871 10.6276 15.5553 10.7091 15.7258 10.7857C16.2127 11.0048 16.6645 10.9344 17.0939 10.6998L17.2765 10.5894C17.3904 10.5144 17.394 10.4552 17.2873 10.3765C17.0801 10.2238 16.8696 10.0752 16.6554 9.93219Z" stroke="#1D1E1D" stroke-width="0.53334" stroke-linejoin="round"/>
<path d="M12.2267 8.31988C12.646 8.17845 13.1326 8.49999 13.1916 8.96148C13.2313 9.27218 13.166 9.5551 12.9162 9.76324C12.4983 10.1109 11.9133 9.91482 11.7551 9.3775C11.7292 9.29024 11.7239 9.19661 11.7092 9.10602C11.7203 8.74192 11.928 8.42087 12.2267 8.31988Z" stroke="#1D1E1D" stroke-width="0.53334" stroke-linejoin="round"/>
<path d="M20.3322 8.2984C20.6353 8.36096 20.8153 8.57164 20.9064 8.85895C20.9322 8.94081 20.9358 9.02977 20.9494 9.11578C20.9402 9.63604 20.5764 9.98662 20.0929 9.92535C19.8459 9.89395 19.6714 9.74773 19.5539 9.53375C19.3837 9.22371 19.4187 8.82792 19.6428 8.56012C19.8223 8.3453 20.0554 8.24143 20.3322 8.2984Z" stroke="#1D1E1D" stroke-width="0.53334" stroke-linejoin="round"/>
<path fill-rule="evenodd" clip-rule="evenodd" d="M15.7502 0.38629C15.7321 0.0803233 15.9489 -0.0682539 16.2443 0.0298443C16.5288 0.124337 16.7323 0.3298 16.9015 0.562071C17.053 0.769939 17.1768 0.998654 17.3068 1.22125C17.3453 1.28679 17.3852 1.31169 17.465 1.32086C19.1088 1.50983 20.6956 1.88947 22.1017 2.81012C23.6392 3.81715 24.5709 5.26415 25.0715 7.00836C25.3035 7.81778 25.3945 8.64842 25.3459 9.48785C25.2664 10.8579 24.87 12.1382 24.2013 13.3345C24.0914 13.5314 23.9737 13.7242 23.839 13.9546C23.8929 14.0005 23.9636 14.0519 24.0236 14.1138C25.9725 16.1272 27.6587 18.3413 29.0607 20.7681C29.222 21.0474 29.3583 21.3432 29.4826 21.6431L29.6037 21.9439C29.6659 22.1029 29.6665 22.303 29.6418 22.4761C29.5827 22.8906 29.2975 23.0503 28.8654 23.0181C28.34 22.9789 27.8936 22.7253 27.4523 22.4625C26.9423 22.1585 26.4924 21.7793 26.0431 21.3482C26.1756 21.9552 26.2135 22.543 26.1799 23.1314C26.1265 24.0659 25.9825 24.9937 25.5705 25.8384C24.8229 27.3708 23.6598 28.4941 22.0842 29.1724C22.0433 29.1899 22.0019 29.2075 21.9533 29.2281C22.1409 29.344 22.3255 29.4399 22.4894 29.563C22.6395 29.6759 22.7903 29.8014 22.9025 29.9498C23.2566 30.4188 23.1718 30.9787 22.7082 31.3443C22.4207 31.571 22.0892 31.7071 21.7375 31.7935C20.6802 32.0533 19.6207 32.0902 18.5676 31.7798C18.345 31.7143 18.1265 31.6122 17.9269 31.4927C17.3688 31.1584 17.1633 30.6091 17.3381 29.98C17.3503 29.9364 17.3644 29.8925 17.3791 29.8433H15.2853C15.3103 30.0187 15.3494 30.1903 15.3566 30.3629C15.3747 30.7963 15.1953 31.1398 14.8469 31.3961C14.447 31.6901 13.9851 31.8382 13.506 31.9127C12.5749 32.0574 11.6457 32.0339 10.7404 31.7466C10.4895 31.6672 10.2397 31.5489 10.0246 31.398C9.42655 30.9787 9.38249 30.2898 9.91716 29.7916C10.1039 29.6173 10.3324 29.4874 10.5441 29.3404C10.5987 29.3025 10.6619 29.277 10.714 29.2496C7.31079 27.6716 6.11801 24.949 6.58904 21.3531C6.37046 21.5431 6.15059 21.7469 5.91814 21.9341C5.39541 22.3557 4.84144 22.7319 4.1906 22.9273C3.99642 22.9853 3.78248 23.0211 3.5822 23.0064C3.20398 22.9789 3.01435 22.7427 3.00213 22.3609C2.99193 22.0423 3.1011 21.7557 3.23357 21.4752C3.70431 20.4792 4.3039 19.5602 4.92498 18.6548C5.79894 17.3807 6.75297 16.1692 7.78533 15.0201C7.97063 14.8137 8.16603 14.6163 8.35662 14.4146C8.50196 14.2612 8.64713 14.1069 8.79998 13.9449C8.30715 13.1325 7.89001 12.2898 7.62908 11.3755C7.39203 10.5441 7.26556 9.69475 7.30974 8.8316C7.40402 6.99014 8.02541 5.34778 9.24529 3.95367C10.122 2.95179 11.2356 2.31064 12.4904 1.89996C13.1815 1.67375 13.8842 1.49357 14.6359 1.35602C14.5806 1.31156 14.5205 1.27168 14.4699 1.22223C14.2945 1.05076 14.26 0.911554 14.342 0.741758C14.4271 0.566139 14.5954 0.481245 14.8136 0.499571C15.1584 0.528509 15.4572 0.681905 15.7511 0.847227C15.7905 0.869422 15.8286 0.89449 15.8566 0.91168C15.8202 0.74033 15.7608 0.564855 15.7502 0.38629ZM12.0226 29.5982C11.4975 29.4787 11.4925 29.4717 11.0178 29.7037C10.7746 29.8223 10.5371 29.963 10.3215 30.1255C10.0218 30.3515 9.97266 30.7553 10.3527 30.9859C10.4432 31.0406 10.5323 31.0995 10.6281 31.1431C11.1436 31.3768 11.6926 31.4591 12.4543 31.5025C12.6764 31.4756 13.0984 31.4369 13.5158 31.3697C13.8578 31.3147 14.1866 31.2028 14.4748 31.0005C14.8657 30.7263 14.9471 30.2717 14.675 29.8863C14.6502 29.8513 14.5979 29.8172 14.5568 29.815C14.2709 29.7997 13.9839 29.7925 13.6974 29.7828C13.1346 29.7636 12.5741 29.7237 12.0226 29.5982ZM21.0597 29.524C20.6785 29.586 20.3013 29.6857 19.9181 29.7193C19.3204 29.7718 18.719 29.7809 18.1193 29.8121C18.0749 29.8143 18.0171 29.8339 17.9904 29.8658C17.7356 30.1706 17.7601 30.6349 18.0519 30.9058C18.1516 30.9985 18.27 31.0787 18.3928 31.1373C18.9574 31.4071 19.5646 31.4738 20.2424 31.4966C20.3971 31.4841 20.6137 31.4705 20.8293 31.4488C21.2713 31.4046 21.7035 31.3125 22.0988 31.105C22.2499 31.0256 22.3859 30.9055 22.507 30.7828C22.6295 30.6586 22.6402 30.4957 22.5353 30.3521C22.4517 30.2382 22.3615 30.1129 22.2443 30.0425C21.942 29.8608 21.6249 29.7023 21.3078 29.5464C21.2378 29.512 21.1401 29.5109 21.0597 29.524ZM12.4094 5.21832C11.4028 5.27502 10.619 5.76627 10.049 6.5777C9.53102 7.31465 9.30289 8.16697 9.22674 9.05426C9.1606 9.82316 9.24466 10.5841 9.46111 11.3277C9.65116 11.9806 9.94626 12.588 10.2619 13.1871C10.6026 13.8337 10.7911 14.5183 10.7775 15.2564C10.768 15.7652 10.6661 16.2557 10.506 16.732C10.1634 17.7512 9.80007 18.7638 9.45134 19.7808C9.16074 20.6288 8.95225 21.4977 8.8947 22.3931C8.84524 23.1657 8.90533 23.9352 9.08318 24.692C9.34081 25.7867 9.83732 26.7516 10.672 27.5171C11.419 28.2021 12.3024 28.6491 13.2756 28.9214C14.1454 29.1648 15.0307 29.2787 15.9299 29.3062L16.3156 29.313C16.8635 29.2758 17.4127 29.25 17.9592 29.1978C18.6855 29.1283 19.3943 28.9636 20.0734 28.6949C21.3323 28.1972 22.35 27.4097 23.0012 26.1978C23.4322 25.3955 23.6622 24.5343 23.7414 23.6295C23.8053 22.8979 23.7711 22.1727 23.6388 21.4498C23.4927 20.65 23.2367 19.8826 22.9738 19.1168C22.6784 18.2558 22.3726 17.3979 22.09 16.5328C21.8889 15.9164 21.8238 15.2791 21.9113 14.6334C21.9894 14.0565 22.1939 13.5226 22.4767 13.0152C23.0358 12.0126 23.3998 10.9509 23.4435 9.79254C23.4802 8.825 23.2816 7.90793 22.8732 7.0318C22.336 5.87991 20.9175 4.81984 19.2101 5.36285C18.6591 5.5382 18.1109 5.72739 17.5715 5.93609C16.7184 6.2659 15.8753 6.26729 15.0275 5.92633C14.6527 5.77575 14.2749 5.63 13.8937 5.49664C13.4141 5.32882 12.9195 5.1897 12.4094 5.21832ZM16.2345 0.717344C16.3282 0.959552 16.4211 1.20225 16.5158 1.44391C16.5511 1.53358 16.5994 1.61931 16.6252 1.71148C16.6682 1.86516 16.5629 2.00255 16.4064 1.98004C16.3274 1.96829 16.2374 1.90773 16.1877 1.84234C15.9309 1.5047 15.591 1.28152 15.2131 1.10895C15.1474 1.07908 15.0749 1.06402 14.9709 1.03082C15.142 1.31663 15.2905 1.56568 15.4396 1.81402C15.5916 2.06689 15.7452 2.31939 15.8967 2.57281C15.9504 2.66248 15.97 2.76853 15.8898 2.84039C15.8325 2.89143 15.7318 2.9299 15.6594 2.91852C15.5898 2.90728 15.5211 2.83359 15.4709 2.77203C15.2783 2.53586 15.0967 2.29003 14.9025 2.05523C14.8625 2.00688 14.778 1.95524 14.7238 1.96441C13.6951 2.13755 12.6956 2.41333 11.7453 2.85016C10.8465 3.26334 10.0618 3.83117 9.44744 4.61188C8.30834 6.05944 7.75185 7.69733 7.85662 9.55035C7.9008 10.3358 8.08555 11.0889 8.34588 11.8238C8.59432 12.5252 8.96935 13.1674 9.35174 13.8033C9.44936 13.966 9.44003 14.0873 9.31756 14.232C9.26712 14.2918 9.20988 14.3458 9.15642 14.4029C8.61869 14.9762 8.05936 15.5317 7.54802 16.1275C6.51877 17.3271 5.58707 18.6024 4.73064 19.9312C4.31638 20.5739 3.906 21.2208 3.6281 21.939C3.58225 22.0577 3.54976 22.1852 3.53142 22.3111C3.51581 22.4201 3.58003 22.4982 3.69549 22.4771C3.86568 22.446 4.04044 22.4148 4.19841 22.3482C4.9754 22.0197 5.62386 21.5003 6.22966 20.9273C6.86605 20.3254 7.42539 19.6538 7.94451 18.9488C8.12225 18.7075 8.30071 18.4662 8.4865 18.231C8.57286 18.1216 8.71312 18.1077 8.82146 18.1773C8.93568 18.2509 8.97233 18.3681 8.91814 18.5035C8.89789 18.5542 8.87314 18.6052 8.84099 18.649C8.48167 19.1409 8.12869 19.6381 7.75603 20.1197C7.55408 20.3808 7.35826 20.6389 7.27459 20.9644C7.03643 21.8901 6.95742 22.8272 7.08025 23.7779C7.19393 24.6576 7.47639 25.4844 7.93377 26.2388C8.59958 27.337 9.53881 28.1384 10.7248 28.6334C11.1327 28.8034 11.5634 28.9199 11.9836 29.0611C11.9891 29.0462 11.994 29.0311 11.9992 29.0162C11.9504 28.9932 11.901 28.9704 11.8527 28.9468C10.5573 28.3121 9.55966 27.3801 8.96502 26.0474C8.39312 24.7652 8.27605 23.4148 8.39666 22.0367C8.46115 21.3017 8.62001 20.5799 8.85369 19.8795C9.19381 18.8591 9.55448 17.8455 9.90154 16.8277C10.0713 16.3301 10.2158 15.8243 10.2433 15.2964C10.2736 14.7129 10.1221 14.1631 9.87615 13.6392C9.67665 13.2144 9.45626 12.7993 9.26287 12.3716C8.93217 11.6399 8.72652 10.8698 8.674 10.0689C8.63873 9.5346 8.65693 8.99803 8.74529 8.46539C8.86869 7.72048 9.10485 7.01965 9.5158 6.38336C10.3228 5.134 11.7796 4.35504 13.425 4.79352C13.9916 4.94442 14.5397 5.16636 15.0949 5.35895C15.4947 5.49761 15.8901 5.6841 16.3224 5.64215C16.6486 5.61045 16.9761 5.53723 17.2892 5.43805C17.8449 5.26216 18.386 5.0404 18.9406 4.8609C19.509 4.67698 20.0985 4.6027 20.6887 4.71734C21.7923 4.93186 22.6224 5.55341 23.2062 6.50445C23.6656 7.25254 23.8885 8.07829 23.966 8.94781C24.0288 9.65256 23.9878 10.3495 23.8342 11.0406C23.6577 11.8342 23.329 12.5676 22.9533 13.2818C22.6319 13.8927 22.3987 14.5293 22.4123 15.2291C22.4226 15.7534 22.5612 16.2571 22.7306 16.7505C23.0622 17.7157 23.4116 18.6758 23.7306 19.6451C24.0377 20.5788 24.2648 21.5319 24.299 22.522C24.3323 23.4831 24.255 24.431 23.9611 25.3521C23.6074 26.4609 23.0016 27.4018 22.0949 28.1421C21.6639 28.4942 21.1957 28.7837 20.6887 29.0318C20.7066 29.0318 20.7253 29.0347 20.7424 29.0308C22.199 28.7063 23.4107 27.9803 24.3381 26.8052C25.092 25.8501 25.4916 24.7468 25.6262 23.5455C25.704 22.8513 25.6343 22.1617 25.5168 21.4761C25.4329 20.9869 25.2629 20.5424 24.9416 20.1509C24.5934 19.7266 24.2733 19.2781 23.9465 18.8365C23.8649 18.7262 23.7926 18.6058 23.7345 18.482C23.6799 18.3652 23.733 18.2407 23.842 18.1724C23.9481 18.1057 24.0782 18.1245 24.1672 18.2213C24.2012 18.2587 24.2343 18.298 24.2648 18.3384C24.8146 19.0691 25.3533 19.8088 25.9845 20.4742C26.6106 21.1341 27.2801 21.742 28.0822 22.1822C28.2468 22.2726 28.4234 22.347 28.6027 22.4088L28.7834 22.4664C29.0776 22.5536 29.1896 22.4271 29.0969 22.1343C29.0441 21.9682 28.9918 21.7969 28.9074 21.6461C28.5634 21.0315 28.2337 20.4062 27.8498 19.817C26.5481 17.8189 25.0957 15.9375 23.4084 14.2457C23.2016 14.0383 23.1922 13.9675 23.3498 13.7173C23.7313 13.1122 24.0601 12.48 24.3088 11.8082C24.7162 10.7077 24.9147 9.57506 24.7922 8.40094C24.6994 7.51376 24.4472 6.67159 24.0441 5.87359C23.3017 4.40395 22.1782 3.34291 20.6564 2.71539C19.5953 2.27776 18.4882 2.0103 17.3459 1.89606C17.2258 1.88411 17.1446 1.84065 17.0793 1.73199C16.9201 1.46778 16.7532 1.2072 16.5734 0.956602C16.497 0.849973 16.3811 0.771339 16.2834 0.680235C16.267 0.69242 16.2509 0.705162 16.2345 0.717344Z" stroke="#1D1E1D" stroke-width="0.53334" stroke-linejoin="round"/>
</g>
<defs>
<clipPath id="clip0_3288_14979">
<rect width="32" height="32" fill="white" transform="translate(0.666626)"/>
</clipPath>
</defs>
</svg>
