<svg viewBox="0 0 37 36" fill="none" xmlns="http://www.w3.org/2000/svg">
<path d="M19.046 3.35156C20.888 3.48313 24.4479 4.29741 27.1886 6.49219C28.095 7.21812 28.9189 8.10129 29.5577 9.16602C30.1847 10.2112 30.6742 11.6868 31.0636 13.3516C32.2084 18.2457 32.5914 25.2533 32.6437 29.4941C32.655 30.4155 31.9075 31.1504 31.0001 31.1504H7.00012C6.09251 31.1503 5.34537 30.4149 5.35657 29.4941C5.39174 26.6412 5.57655 22.5576 6.03723 18.708C6.26754 16.7836 6.56753 14.907 6.95618 13.2666C7.34215 11.6376 7.82594 10.1938 8.44251 9.16602C9.73392 7.01366 11.7785 5.60565 13.7599 4.71875C15.7416 3.83182 17.7167 3.43997 18.9542 3.35156L19.0001 3.34863L19.046 3.35156ZM19.0011 4.65234C17.9008 4.73714 16.1007 5.09634 14.2911 5.90625C12.4561 6.72762 10.6663 7.98665 9.55774 9.83398C9.04465 10.6892 8.59797 11.9788 8.2218 13.5664C7.84836 15.1426 7.55414 16.9667 7.32727 18.8623C6.87356 22.6536 6.69116 26.6889 6.65637 29.5098C6.65411 29.6933 6.80338 29.8495 7.00012 29.8496H10.3497V21.4023C8.85487 21.1298 7.84994 19.9277 7.84973 18.457C7.84973 16.9859 8.8543 15.7793 10.3497 15.5068V14C10.3497 13.6411 10.6412 13.3497 11.0001 13.3496C11.3591 13.3496 11.6505 13.641 11.6505 14V15.543C13.8539 14.6007 15.4949 13.3455 16.6144 12.2793C17.2453 11.6784 17.7089 11.1393 18.0128 10.7539C18.1645 10.5615 18.2764 10.4074 18.3488 10.3037C18.3848 10.2521 18.4112 10.2127 18.4279 10.1875C18.4361 10.175 18.442 10.1656 18.4454 10.1602L18.4493 10.1553C18.5629 9.97373 18.7588 9.85971 18.9728 9.85059C19.1866 9.84155 19.3911 9.93841 19.5197 10.1094L19.5206 10.1104C19.5215 10.1115 19.5232 10.1142 19.5255 10.1172C19.5302 10.1233 19.5377 10.1333 19.548 10.1465C19.5687 10.173 19.6007 10.2136 19.6437 10.2666C19.73 10.3731 19.8613 10.53 20.0343 10.7256C20.3805 11.117 20.8954 11.6619 21.5626 12.2686C22.7308 13.3306 24.3547 14.5697 26.3497 15.5078V14C26.3497 13.6411 26.6412 13.3497 27.0001 13.3496C27.3591 13.3496 27.6505 13.641 27.6505 14V15.4072C29.1456 15.6792 30.1505 16.8837 30.1505 18.3555C30.1503 19.8257 29.1459 21.0289 27.6505 21.3018V29.8496H31.0001C31.1972 29.8496 31.3459 29.6937 31.3439 29.5107C31.2919 25.2901 30.9092 18.3992 29.798 13.6484C29.418 12.024 28.9647 10.7043 28.4425 9.83398C27.895 8.92158 27.1813 8.15276 26.3761 7.50781C23.9263 5.54576 20.6862 4.7825 19.0011 4.65234ZM26.3497 24.0186C26.0062 24.5019 25.6027 24.9797 25.1466 25.4277C23.6288 26.9186 21.4744 28.1504 19.0001 28.1504C16.5262 28.1503 14.3723 26.9191 12.8556 25.4424C12.3988 24.9976 11.9946 24.5243 11.6505 24.0469V29.8496H26.3497V24.0186ZM19.0343 11.5586C18.6975 11.9857 18.1923 12.5718 17.5109 13.2207C16.2178 14.4521 14.2823 15.9148 11.6505 16.9473V20.8135C11.6505 21.208 11.8153 21.7886 12.1866 22.4697C12.5511 23.1382 13.0876 23.8542 13.7618 24.5107C15.1174 25.8306 16.9639 26.8496 19.0001 26.8496C21.0361 26.8496 22.8818 25.8316 24.2365 24.501C24.9105 23.8388 25.4469 23.1134 25.8116 22.4316C26.182 21.7392 26.3497 21.1379 26.3497 20.7139V16.9326C23.9477 15.9007 22.0246 14.4469 20.6876 13.2314C19.9803 12.5884 19.4331 12.0079 19.0607 11.5869C19.0519 11.577 19.0438 11.5663 19.0353 11.5566L19.0343 11.5586ZM16.0001 16.7002C16.7181 16.7002 17.2999 17.282 17.2999 18V20C17.2999 20.718 16.7181 21.2998 16.0001 21.2998C15.2822 21.2997 14.7003 20.7179 14.7003 20V18C14.7003 17.2821 15.2822 16.7003 16.0001 16.7002ZM22.0001 16.7002C22.7181 16.7002 23.2999 17.282 23.2999 18V20C23.2999 20.718 22.7181 21.2998 22.0001 21.2998C21.2822 21.2997 20.7003 20.7179 20.7003 20V18C20.7003 17.2821 21.2822 16.7003 22.0001 16.7002ZM10.3497 16.8438C9.58761 17.0764 9.15051 17.719 9.15051 18.457C9.15069 19.1947 9.58794 19.8358 10.3497 20.0684V16.8438ZM27.6505 19.9688C28.4122 19.7359 28.8496 19.0937 28.8497 18.3555C28.8497 17.6179 28.4131 16.9763 27.6505 16.7441V19.9688Z" fill="white"/>
<path d="M33.1455 0.286492C33.0198 -0.0954974 32.4795 -0.0954974 32.3538 0.286492L31.7842 2.01856C31.7429 2.14427 31.6443 2.24286 31.5186 2.2842L29.7865 2.85384C29.4045 2.97947 29.4045 3.51984 29.7865 3.64546L31.5186 4.21511C31.6443 4.25645 31.7429 4.35504 31.7842 4.48075L32.3538 6.21282C32.4795 6.59481 33.0198 6.59481 33.1455 6.21282L33.7151 4.48075C33.7565 4.35504 33.855 4.25645 33.9807 4.21511L35.7128 3.64546C36.0948 3.51984 36.0948 2.97947 35.7128 2.85384L33.9807 2.2842C33.855 2.24286 33.7565 2.14427 33.7151 2.01856L33.1455 0.286492Z" fill="url(#paint0_linear_4214_17932)"/>
<defs>
<linearGradient id="paint0_linear_4214_17932" x1="32.7497" y1="0" x2="32.7497" y2="6.49931" gradientUnits="userSpaceOnUse">
<stop stop-color="#08EDDF"/>
<stop offset="1" stop-color="#CEED8B"/>
</linearGradient>
</defs>
</svg>
