<svg width="37" height="36" viewBox="0 0 37 36" fill="none" xmlns="http://www.w3.org/2000/svg">
<path d="M16.8383 4.37793H16.8393L16.8413 4.37891C16.8423 4.37926 16.8438 4.37934 16.8452 4.37988C16.8484 4.38112 16.8527 4.38275 16.8579 4.38477C16.8685 4.38897 16.8836 4.39491 16.9018 4.40234C16.9384 4.41734 16.99 4.43924 17.0522 4.4668C17.1764 4.52182 17.3482 4.60277 17.5366 4.70508C17.892 4.89814 18.3935 5.21366 18.7192 5.6377C18.8631 5.82505 19.0284 6.05696 19.1547 6.2373C19.1651 6.25205 19.1752 6.26715 19.185 6.28125C25.0085 6.55878 28.4892 9.10456 30.4165 12.2832C32.354 15.4789 32.6781 19.2374 32.3842 21.7803L32.3813 21.8027L32.3774 21.8242C31.9907 23.9334 31.0342 26.0878 28.8149 27.6973C26.6138 29.2934 23.2548 30.292 18.1899 30.292C13.1245 30.292 9.75033 29.2928 7.53363 27.6982C5.29875 26.0905 4.32347 23.9376 3.93598 21.8242L3.93207 21.8027L3.92914 21.7803C3.64254 19.3 3.92842 15.6637 5.72699 12.5205C7.48197 9.45375 10.6456 6.91647 15.9331 6.36523V4.03125L16.8383 4.37793ZM17.268 7.59766L16.6489 7.64258C11.4212 8.02284 8.48315 10.3929 6.88617 13.1836C5.27026 16.0075 4.99364 19.3273 5.25336 21.6074C5.59828 23.4652 6.43478 25.2625 8.31391 26.6143C10.2196 27.9851 13.2794 28.957 18.1899 28.957C23.1005 28.957 26.1425 27.9854 28.0307 26.6162C29.8923 25.2661 30.7135 23.4692 31.059 21.6074C31.3249 19.2725 31.0139 15.844 29.2749 12.9756C27.5576 10.1433 24.4058 7.78034 18.8041 7.60059L18.4633 7.58984L18.2729 7.30859L18.2719 7.30762C18.2713 7.30672 18.2703 7.30461 18.269 7.30273C18.2664 7.29896 18.2622 7.29333 18.2573 7.28613C18.2471 7.27127 18.232 7.24888 18.2133 7.22168C18.1758 7.16706 18.1228 7.09081 18.062 7.00391C17.9382 6.82726 17.7862 6.61382 17.6606 6.4502C17.5731 6.33629 17.4333 6.21874 17.268 6.10449V7.59766ZM23.4545 11.7861C24.924 11.7862 26.228 12.5747 27.2075 13.7686C28.1874 14.9632 28.8823 16.6029 29.1616 18.4434C29.5652 21.1042 28.6451 23.4493 26.6752 25.1045C24.7277 26.7408 21.8047 27.666 18.225 27.666C14.656 27.666 11.7463 26.8075 9.80219 25.2002C7.82987 23.5694 6.92228 21.2227 7.28754 18.4561C7.53243 16.6019 8.2293 14.9569 9.22016 13.7617C10.2095 12.5684 11.5297 11.7863 12.9956 11.7861C13.9752 11.7861 14.7392 11.9723 15.3598 12.2764C15.9781 12.5794 16.4173 12.9807 16.7641 13.3486C16.9302 13.5248 17.0927 13.7135 17.2221 13.8574C17.3606 14.0115 17.4766 14.1336 17.5903 14.2314C17.7996 14.4114 17.9782 14.4931 18.2231 14.4932C18.4682 14.4932 18.647 14.4107 18.8569 14.2305C18.9707 14.1327 19.0874 14.0113 19.226 13.8574C19.3556 13.7135 19.5187 13.5248 19.685 13.3486C20.0323 12.9808 20.4718 12.5793 21.0903 12.2764C21.7111 11.9724 22.475 11.7862 23.4545 11.7861ZM23.4545 13.1201C22.6515 13.1201 22.0926 13.2722 21.6772 13.4756C21.2595 13.6802 20.9473 13.9558 20.6557 14.2646C20.5027 14.4267 20.3741 14.5768 20.2182 14.75C20.0715 14.913 19.9084 15.0873 19.727 15.2432C19.346 15.5704 18.8699 15.8271 18.2231 15.8271C17.5764 15.827 17.1008 15.5705 16.7202 15.2432C16.5389 15.0872 16.3755 14.913 16.2289 14.75C16.0733 14.5768 15.9452 14.4267 15.7924 14.2646C15.5013 13.9559 15.1901 13.6801 14.7729 13.4756C14.3579 13.2722 13.7987 13.1201 12.9956 13.1201C12.0313 13.1203 11.0583 13.6363 10.2475 14.6143C9.43822 15.5906 8.82736 16.991 8.61078 18.6309C8.3019 20.9705 9.05653 22.8521 10.6528 24.1719C12.2774 25.515 14.8435 26.331 18.225 26.3311C21.5959 26.331 24.1797 25.4585 25.8168 24.083C27.4317 22.7261 28.1749 20.843 27.8413 18.6436C27.5918 16.9996 26.9786 15.5945 26.1752 14.6152C25.3712 13.6352 24.4155 13.1202 23.4545 13.1201ZM18.3393 20.5664C19.7778 20.5664 20.6119 21.6436 20.8579 22.1826L20.9028 22.2812V22.3896C20.9028 22.6686 20.7451 22.905 20.6157 23.0566C20.4693 23.2281 20.2732 23.3914 20.0512 23.5322C19.6084 23.8131 19.0005 24.043 18.3393 24.043C17.6781 24.0429 17.0702 23.8131 16.6274 23.5322C16.4055 23.3914 16.2102 23.228 16.0639 23.0566C15.9345 22.905 15.7758 22.6687 15.7758 22.3896V22.2812L15.8207 22.1826C16.0667 21.6436 16.9008 20.5665 18.3393 20.5664ZM18.3393 21.5664C17.5816 21.5665 17.069 22.0586 16.8334 22.418C16.903 22.4967 17.0139 22.5936 17.1635 22.6885C17.4777 22.8877 17.9021 23.0429 18.3393 23.043C18.7765 23.043 19.2009 22.8877 19.5151 22.6885C19.6643 22.5938 19.7746 22.4966 19.8442 22.418C19.6084 22.0586 19.0967 21.5664 18.3393 21.5664ZM13.6118 15.7031C14.2696 15.7178 15.3032 15.969 15.3032 18.0029C15.3031 20.0367 14.4975 20.6553 13.6118 20.6553C12.7261 20.6551 12.0015 19.9126 12.0014 18.0029C12.0014 16.0932 12.954 15.6886 13.6118 15.7031ZM22.6918 15.7031C23.3497 15.7178 24.3832 15.969 24.3832 18.0029C24.3832 20.0367 23.5776 20.6553 22.6918 20.6553C21.8062 20.6551 21.0815 19.9126 21.0815 18.0029C21.0815 16.0932 22.034 15.6886 22.6918 15.7031Z" fill="white"/>
<circle cx="28" cy="28.5" r="5.5" fill="url(#paint0_linear_4214_17955)"/>
<path d="M31.2276 27.3919C31.491 27.1184 31.4832 26.6826 31.2097 26.4192C30.9362 26.156 30.501 26.1648 30.2377 26.4383L27.1083 29.6881L25.9837 28.7047C25.6979 28.4548 25.2637 28.4839 25.0138 28.7697C24.7639 29.0556 24.793 29.4898 25.0788 29.7397L26.6955 31.1537L26.6967 31.1521C26.7392 31.1894 26.7851 31.224 26.8372 31.2504C27.1066 31.3867 27.4338 31.331 27.6432 31.1136L31.2276 27.3919Z" fill="black"/>
<defs>
<linearGradient id="paint0_linear_4214_17955" x1="28" y1="23" x2="28" y2="34" gradientUnits="userSpaceOnUse">
<stop stop-color="#08EDDF"/>
<stop offset="1" stop-color="#CEED8B"/>
</linearGradient>
</defs>
</svg>
