<svg viewBox="0 0 37 36" fill="none" xmlns="http://www.w3.org/2000/svg">
<path d="M6.35384 26.2865C6.47947 25.9045 7.01984 25.9045 7.14546 26.2865L7.71511 28.0186C7.75645 28.1443 7.85504 28.2429 7.98075 28.2842L9.71282 28.8538C10.0948 28.9795 10.0948 29.5198 9.71282 29.6455L7.98075 30.2151C7.85504 30.2565 7.75645 30.355 7.71511 30.4807L7.14546 32.2128C7.01984 32.5948 6.47947 32.5948 6.35384 32.2128L5.7842 30.4807C5.74286 30.355 5.64427 30.2565 5.51856 30.2151L3.78649 29.6455C3.4045 29.5198 3.4045 28.9795 3.78649 28.8538L5.51856 28.2842C5.64427 28.2429 5.74286 28.1443 5.7842 28.0186L6.35384 26.2865Z" fill="url(#paint0_linear_4214_17947)"/>
<path d="M31.1455 3.28649C31.0198 2.9045 30.4795 2.9045 30.3538 3.28649L29.7842 5.01856C29.7429 5.14427 29.6443 5.24286 29.5186 5.2842L27.7865 5.85384C27.4045 5.97947 27.4045 6.51984 27.7865 6.64546L29.5186 7.21511C29.6443 7.25645 29.7429 7.35504 29.7842 7.48075L30.3538 9.21282C30.4795 9.59481 31.0198 9.59481 31.1455 9.21282L31.7151 7.48075C31.7565 7.35504 31.855 7.25645 31.9807 7.21511L33.7128 6.64546C34.0948 6.51984 34.0948 5.97947 33.7128 5.85384L31.9807 5.2842C31.855 5.24286 31.7565 5.14427 31.7151 5.01856L31.1455 3.28649Z" fill="url(#paint1_linear_4214_17947)"/>
<path d="M16.4774 4.87965C17.5593 3.69427 19.2922 3.65724 20.4149 4.76832L20.5223 4.87965L30.4774 15.7879L30.5789 15.905C31.5931 17.1352 31.5593 19.035 30.4774 20.2205L20.5223 31.1287L20.4149 31.24C19.3285 32.3149 17.6701 32.3151 16.5838 31.24L16.4774 31.1287L6.52133 20.2205L6.42074 20.1033C5.43909 18.9129 5.43927 17.0956 6.42074 15.905L6.52133 15.7879L16.4774 4.87965ZM19.6454 5.83961C19.0124 5.14646 17.9862 5.14624 17.3534 5.83961L7.39828 16.7488C6.76572 17.4423 6.7655 18.5662 7.39828 19.2595L17.3543 30.1677C17.9872 30.8608 19.0125 30.8608 19.6454 30.1677L29.6004 19.2595C30.2332 18.5662 30.2338 17.4423 29.6014 16.7488L19.6454 5.83961ZM18.4998 10.3474C18.8588 10.3475 19.1502 10.6389 19.1502 10.9978V16.4314L21.6961 13.8855C21.9498 13.6318 22.3612 13.6311 22.6151 13.8845C22.8689 14.1384 22.8689 14.5506 22.6151 14.8045L20.0721 17.3474H25.4998C25.8588 17.3475 26.1502 17.6389 26.1502 17.9978C26.1502 18.3567 25.8588 18.6481 25.4998 18.6482H20.0663L22.6141 21.197C22.8679 21.4508 22.8688 21.8621 22.6151 22.116C22.3612 22.3698 21.949 22.3698 21.6952 22.116L19.1502 19.5711V24.9978C19.1502 25.3568 18.8588 25.6481 18.4998 25.6482C18.1409 25.6482 17.8495 25.3568 17.8495 24.9978V19.5701L15.3036 22.116C15.0497 22.3697 14.6374 22.3698 14.3836 22.116C14.1303 21.8622 14.131 21.4507 14.3846 21.197L16.9334 18.6482H11.4998C11.1409 18.6482 10.8495 18.3568 10.8495 17.9978C10.8495 17.6388 11.1409 17.3474 11.4998 17.3474H16.9276L14.3836 14.8045C14.1302 14.5506 14.13 14.1383 14.3836 13.8845C14.6375 13.6309 15.0498 13.6317 15.3036 13.8855L17.8495 16.4314V10.9978C17.8495 10.6388 18.1409 10.3474 18.4998 10.3474Z" fill="white"/>
<defs>
<linearGradient id="paint0_linear_4214_17947" x1="6.74965" y1="26" x2="6.74965" y2="32.4993" gradientUnits="userSpaceOnUse">
<stop stop-color="#08EDDF"/>
<stop offset="1" stop-color="#CEED8B"/>
</linearGradient>
<linearGradient id="paint1_linear_4214_17947" x1="30.7497" y1="3" x2="30.7497" y2="9.49931" gradientUnits="userSpaceOnUse">
<stop stop-color="#08EDDF"/>
<stop offset="1" stop-color="#CEED8B"/>
</linearGradient>
</defs>
</svg>

