<svg width="32" height="32" viewBox="0 0 32 32" fill="none" xmlns="http://www.w3.org/2000/svg">
<g clip-path="url(#clip0_3288_14950)">
<g clip-path="url(#clip1_3288_14950)">
<path fill-rule="evenodd" clip-rule="evenodd" d="M14.9129 18.6826C15.6055 17.8894 16.7694 17.9244 17.4078 18.7679C17.9667 19.507 17.9265 20.5874 17.2448 21.2463C16.9419 21.5389 16.5875 21.6755 16.1073 21.6773C15.4729 21.687 15.015 21.3942 14.7095 20.8504C14.3161 20.1497 14.4022 19.2672 14.9129 18.6826ZM16.7417 19.877C16.7527 19.4114 16.3927 19.0744 15.9903 19.1649C15.7327 19.2232 15.5312 19.5457 15.5276 19.9404C15.528 19.9501 15.5287 19.9941 15.5331 20.0377C15.5658 20.3495 15.8172 20.6314 16.1007 20.6754C16.288 20.7044 16.5072 20.5538 16.6323 20.3123L16.6793 20.2029C16.7164 20.0995 16.739 19.9861 16.7417 19.877Z" fill="#1D1E1D"/>
<path d="M12.6357 15.4396C13.2306 15.4634 13.5961 15.9748 13.6015 16.5388C13.6064 17.0979 13.1295 17.5803 12.6117 17.5648C12.0602 17.5482 11.6605 17.1025 11.6448 16.4896C11.6309 15.9544 12.0548 15.4883 12.5384 15.4429L12.6357 15.4396Z" fill="#1D1E1D"/>
<path d="M19.5537 15.444C20.1052 15.4314 20.5843 15.8929 20.5982 16.4502C20.6132 17.0525 20.1775 17.5455 19.6182 17.5604C19.0963 17.5743 18.6277 17.1003 18.612 16.5421C18.5966 15.9954 18.9756 15.5186 19.4563 15.4516L19.5537 15.444Z" fill="#1D1E1D"/>
<path d="M12.441 14.0516C13.1528 14.0647 13.6949 14.2966 14.1178 14.7866C14.1804 14.8592 14.2344 14.9416 14.2796 15.0262C14.3858 15.2251 14.3539 15.4501 14.2096 15.5796C14.0747 15.7003 13.8202 15.715 13.6496 15.5884C13.4961 15.4737 13.3661 15.3266 13.2143 15.2088C12.7592 14.8557 12.1193 14.8996 11.7126 15.304C11.623 15.3931 11.5369 15.4862 11.4446 15.573C11.2663 15.741 11.0356 15.762 10.8573 15.6321C10.6672 15.4938 10.6112 15.2595 10.7403 15.0371C11.0337 14.5323 11.4927 14.2474 12.0473 14.1085C12.1969 14.0709 12.3541 14.0637 12.441 14.0516Z" fill="#1D1E1D"/>
<path d="M19.581 14.0473C20.3417 14.0728 20.9345 14.3323 21.3704 14.9026C21.4446 15.0001 21.5284 15.1279 21.5246 15.2384C21.5201 15.3705 21.4591 15.5536 21.3606 15.6168C21.2436 15.6916 21.0524 15.6965 20.9078 15.666C20.7996 15.6429 20.7042 15.524 20.6179 15.4341C19.9988 14.792 19.238 14.8044 18.636 15.4615C18.5555 15.5494 18.4441 15.6289 18.332 15.6638C18.1537 15.7189 17.9607 15.6562 17.8912 15.491C17.833 15.3514 17.8135 15.1367 17.8813 15.013C18.1542 14.5185 18.606 14.2391 19.149 14.1096C19.2279 14.0908 19.3084 14.0791 19.3831 14.0702L19.581 14.0473Z" fill="#1D1E1D"/>
<path d="M19.4268 11.851C19.9324 11.8363 20.4147 11.9441 20.8782 12.1376C21.1786 12.2625 21.298 12.5125 21.1954 12.7752C21.0897 13.0444 20.8386 13.1538 20.5337 13.0246C20.0503 12.8199 19.5576 12.7033 19.0353 12.8059C18.8406 12.8439 18.651 12.9106 18.4621 12.9732C18.1521 13.0758 17.9042 12.9936 17.8048 12.7468C17.6968 12.4789 17.8168 12.185 18.1242 12.0927C18.5462 11.9655 18.9819 11.8846 19.4115 11.7843C19.4164 11.8062 19.4219 11.8291 19.4268 11.851Z" fill="#1D1E1D"/>
<path d="M12.6007 11.8444C13.0905 11.8373 13.5594 11.94 14.0138 12.1168C14.3167 12.2351 14.4584 12.4911 14.3682 12.7632C14.2916 12.9939 14.004 13.0951 13.7043 13.0104C13.4276 12.9325 13.149 12.8547 12.8665 12.8037C12.414 12.7217 11.9825 12.8335 11.5551 12.9787C11.2037 13.0979 10.9257 12.9351 10.889 12.6123C10.8637 12.3875 10.9852 12.1612 11.227 12.0949C11.6753 11.9718 12.1328 11.8834 12.5865 11.7799C12.591 11.8018 12.5963 11.8231 12.6007 11.8444Z" fill="#1D1E1D"/>
<path fill-rule="evenodd" clip-rule="evenodd" d="M13.0678 1.35211C14.2754 1.065 15.4972 0.947036 16.7285 1.02179C19.2417 1.1741 21.532 1.95491 23.4781 3.59758C25.2699 5.10989 26.4617 7.00247 26.8753 9.32554C27.0768 10.4584 27.1653 11.6119 27.2898 12.7577C27.3901 13.6819 27.4696 14.6088 27.5534 15.5348C27.634 16.4244 27.7087 17.3145 27.7853 18.2046C27.8981 19.5239 28.0124 20.8442 28.1221 22.164C28.1718 22.764 28.2333 23.364 28.2512 23.9654C28.279 24.9052 27.6838 25.7226 26.7637 25.8127C26.4528 25.8432 26.1399 25.8796 25.8285 25.8805C24.4177 25.8846 23.0072 25.8767 21.5968 25.874C21.5687 25.874 21.54 25.8851 21.4798 25.898C21.7735 26.2366 22.0652 26.4966 22.486 26.6418C23.6965 27.0593 24.9008 27.5007 26.0867 27.9827C27.11 28.3984 27.9181 29.0886 28.2993 30.1593C28.706 31.3024 29.0643 32.4634 29.4401 33.6177C29.5704 34.0178 29.7016 34.4181 29.8306 34.8187L30.209 36.0229C30.3618 36.5255 30.1118 36.8355 29.5845 36.8355C20.6339 36.8355 11.6829 36.8341 2.73182 36.8399C2.2126 36.8404 1.92352 36.5831 2.0176 36.0218C2.07852 35.6583 2.1994 35.3033 2.314 34.951C2.8274 33.3714 3.34906 31.7944 3.86604 30.2162C4.09445 29.5189 4.56821 29.0115 5.13916 28.5865C5.80608 28.0902 6.59525 27.839 7.354 27.5354C8.20384 27.1958 9.07986 26.9195 9.92432 26.5674C10.2426 26.4344 10.505 26.1668 10.7928 25.9604C10.7847 25.9389 10.7774 25.9173 10.7698 25.8959C10.7014 25.8914 10.6326 25.8828 10.5642 25.8827C9.09356 25.8827 7.62257 25.8903 6.15197 25.8827C5.71429 25.8805 5.27047 25.8784 4.85697 25.688C4.20408 25.3866 3.84133 24.862 3.8376 24.1612C3.83357 23.4408 3.92622 22.7192 3.98088 21.9988C4.01403 21.5611 4.05501 21.1236 4.09354 20.6863C4.17908 19.7153 4.26457 18.7443 4.35057 17.7737C4.43031 16.8759 4.50856 15.9775 4.5901 15.0798C4.66043 14.3084 4.7323 13.5374 4.80666 12.7665C4.89491 11.8481 4.96332 10.9267 5.08338 10.0124C5.34005 8.05627 6.05732 6.29312 7.3365 4.77008C8.8525 2.96513 10.7956 1.89193 13.0678 1.35211ZM14.1342 23.6296C14.1342 24.2087 14.1181 24.7601 14.1396 25.3096C14.1531 25.6474 14.0437 25.8837 13.7207 25.9823C13.2674 26.1207 13.131 26.4151 13.1968 26.8671C13.2344 27.1265 13.2034 27.3965 13.2034 27.6885C13.3932 27.6505 13.5359 27.6193 13.6792 27.5934C13.8252 27.5669 13.973 27.5451 14.1199 27.5223C14.4369 27.4732 14.6702 27.5871 14.7718 27.858C14.8178 27.981 14.8385 28.1153 14.8604 28.2463C15.0365 29.2932 15.2105 30.3402 15.3843 31.3876C15.5563 32.4263 15.7275 33.4656 15.8995 34.5048C15.9671 34.9137 16.0359 35.3226 16.104 35.7298C16.1531 35.736 16.1822 35.7424 16.2112 35.7429C16.2855 35.7442 16.3606 35.744 16.4354 35.744C16.7364 34.8302 17.0251 33.9344 17.3279 33.0435C17.7096 31.9213 18.2298 30.8614 18.8198 29.8355C19.0056 29.5127 19.0976 29.1727 19.0834 28.7921C19.0623 28.2182 19.0782 27.642 19.0768 27.0673C19.0765 26.8133 19.1566 26.5101 19.0451 26.3202C18.929 26.1226 18.6275 26.0336 18.4063 25.898C18.3683 25.8748 18.3263 25.8562 18.2904 25.8302C18.1222 25.7071 18.04 25.5369 18.0476 25.3315C18.0619 24.9535 18.0888 24.5753 18.1045 24.1973C18.1121 24.0163 18.1056 23.8347 18.1056 23.6395C16.7618 23.9575 15.4605 23.978 14.1342 23.6296ZM22.8229 29.5938C22.8964 29.9141 22.6841 30.1838 22.3581 30.1812C22.2066 30.1798 22.0466 30.1436 21.9063 30.0849C21.5781 29.947 21.2596 29.7854 20.9362 29.6354C20.6696 29.5113 20.4012 29.3901 20.1006 29.2526C20.1467 29.6755 19.9546 29.9833 19.7888 30.2982C19.581 30.6922 19.3282 31.0679 19.1665 31.4795C18.7275 32.5958 18.3212 33.7252 17.9131 34.8537C17.8109 35.1354 17.7495 35.4328 17.6648 35.7396H28.9698C28.9528 35.6729 28.9411 35.6149 28.9228 35.5602C28.3857 33.9732 27.8223 32.3941 27.3215 30.7959C27.0577 29.9546 26.5563 29.3887 25.7585 29.059C24.7918 28.6598 23.8254 28.2593 22.8568 27.8646C22.6979 27.7997 22.5278 27.7623 22.3657 27.7126C22.5229 28.3566 22.68 28.9735 22.8229 29.5938ZM9.55572 27.8154C8.45367 28.275 7.3439 28.7186 6.2526 29.2034C5.68328 29.4565 5.22307 29.8527 5.01119 30.4776C4.50901 31.9595 4.00032 33.44 3.49635 34.9215C3.40512 35.1898 3.32026 35.4603 3.22947 35.7385H15.0606C14.6623 33.3671 14.2662 31.0105 13.8585 28.5854C13.4917 28.6983 13.1488 28.7688 12.8348 28.9059C11.95 29.292 11.0772 29.707 10.1978 30.1057C9.94914 30.2186 9.68434 30.2609 9.45947 30.0696C9.25306 29.8941 9.26854 29.6488 9.33479 29.4079C9.40557 29.1503 9.47698 28.8924 9.55135 28.6357C9.63776 28.3366 9.72723 28.0386 9.8226 27.718C9.70762 27.7596 9.63046 27.7841 9.55572 27.8154ZM12.1763 26.458C11.9203 26.5906 11.6916 26.6715 11.5103 26.8124C11.3165 26.9633 11.0997 27.1436 11.0104 27.3593C10.8232 27.8131 10.7131 28.2988 10.5554 28.8238C10.9979 28.625 11.3839 28.4538 11.7673 28.2791C12.1951 28.0843 12.1918 28.0819 12.1774 27.6196C12.1703 27.3968 12.1763 27.1735 12.1763 26.9502V26.458ZM20.1115 27.9663C20.1124 28.0214 20.1455 28.1059 20.1881 28.126L21.5509 28.7484C21.4214 28.2283 21.3048 27.7562 21.1834 27.2849C21.1619 27.2013 21.1334 27.1116 21.0817 27.0454C20.8363 26.7337 20.521 26.5238 20.1082 26.4176C20.1082 26.9534 20.1057 27.4601 20.1115 27.9663ZM16.8204 2.24351C15.2085 2.13824 13.6259 2.32464 12.1063 2.90523C9.17763 4.02432 7.22841 6.05215 6.41666 9.10679C6.01974 10.6004 5.97363 12.1462 5.81729 13.6743C5.71022 14.7226 5.63439 15.7747 5.54166 16.8243C5.43908 17.9858 5.33386 19.1468 5.22994 20.3079C5.1735 20.9369 5.11347 21.5663 5.0615 22.1957C5.00954 22.8255 4.95555 23.455 4.9215 24.0857C4.90368 24.4184 5.08038 24.6753 5.38307 24.6982C5.84763 24.7336 6.3165 24.707 6.79182 24.707C6.7739 24.4692 6.75255 24.2331 6.73822 23.9971C6.68269 23.0772 6.62651 22.1579 6.57635 21.2376C6.57188 21.1527 6.58755 21.0579 6.62229 20.9805C6.71457 20.7758 6.93152 20.6591 7.13088 20.6896C7.38823 20.7292 7.57835 20.9381 7.60119 21.2376C7.65316 21.9194 7.69122 22.6026 7.74229 23.284C7.77809 23.761 7.82684 24.2375 7.87025 24.719H13.071C13.071 24.2929 13.0599 23.8822 13.0765 23.4732C13.084 23.2933 13.0166 23.2177 12.8621 23.1429C11.5291 22.4956 10.4135 21.5911 9.62244 20.3221C9.51047 20.143 9.38919 20.0981 9.1926 20.099C8.47044 20.103 7.86613 19.8049 7.41635 19.2579C6.68136 18.3642 6.55883 17.3162 6.794 16.2205C6.96201 15.4361 7.406 14.8372 8.15682 14.5066C8.37125 14.4122 8.60604 14.3643 8.8415 14.2923C8.84464 14.2452 8.85179 14.1935 8.85135 14.1424C8.84104 13.1282 8.82316 12.1139 8.82182 11.0996C8.82093 10.2872 8.83816 9.47517 8.85025 8.66273C8.86907 7.40075 9.40783 6.35332 10.212 5.42195C10.4064 5.19736 10.6881 5.15573 10.8945 5.28961C11.1112 5.43029 11.1703 5.67805 11.0203 5.96336C10.907 6.17865 10.7583 6.37661 10.6199 6.57804C10.2387 7.1331 9.96696 7.73709 9.93963 8.41445C9.9065 9.24171 9.91642 10.0706 9.90791 10.8984C9.90702 11.0057 9.90791 11.113 9.90791 11.256C9.99773 11.1729 10.0594 11.1214 10.1157 11.0646C11.2769 9.89267 12.4366 8.7186 13.5982 7.54711C14.2818 6.8582 14.9656 6.17001 15.6545 5.48648C15.9295 5.21366 16.2604 5.19718 16.5054 5.44492C18.0952 7.05308 19.6813 8.6665 21.2698 10.276C21.581 10.5908 21.9 10.8986 22.2563 11.2505V10.9705C22.2568 10.269 22.2372 9.56616 22.2618 8.86507C22.295 7.91848 21.9695 7.10618 21.4131 6.36476C21.311 6.22818 21.2129 6.08518 21.1363 5.93382C21.0293 5.72193 21.0886 5.45174 21.249 5.31914C21.4161 5.18107 21.6681 5.1787 21.8615 5.34648C22.0004 5.46654 22.111 5.62049 22.2279 5.76429C23.0293 6.74715 23.3583 7.87544 23.3359 9.13961C23.3063 10.8043 23.3285 12.47 23.3271 14.1348C23.3271 14.2519 23.3193 14.3462 23.4835 14.3699C24.1042 14.46 24.6029 14.7697 24.9492 15.2887C25.5826 16.2384 25.6088 17.2553 25.2653 18.3184C24.9042 19.4352 23.8115 20.1947 22.8393 20.1132C22.7677 20.1071 22.6675 20.2008 22.6129 20.2729C22.3607 20.6043 22.143 20.9647 21.8703 21.277C21.1598 22.09 20.2824 22.688 19.3229 23.1713C19.2598 23.2031 19.1724 23.2735 19.1709 23.3277C19.1592 23.7949 19.1643 24.2623 19.1643 24.7376H24.259C24.2733 24.6983 24.291 24.6716 24.2929 24.6435C24.348 23.8577 24.4008 23.0712 24.4559 22.2854C24.4814 21.9236 24.4952 21.5595 24.5445 21.2004C24.5821 20.9272 24.7941 20.7917 25.0793 20.8077C25.3387 20.8225 25.5177 20.9916 25.5343 21.2649C25.546 21.4579 25.5357 21.6527 25.5245 21.8457C25.4864 22.5132 25.4429 23.1809 25.4031 23.8484C25.3856 24.1417 25.3728 24.4361 25.3571 24.742C25.7276 24.742 26.0851 24.7399 26.4421 24.743C27.0508 24.7484 27.1857 24.3549 27.1607 23.8954C27.128 23.2947 27.0547 22.6954 27.0054 22.0951C26.9539 21.4661 26.9166 20.8358 26.861 20.2073C26.7979 19.4906 26.7146 18.7758 26.651 18.0591C26.5937 17.414 26.5594 16.7661 26.5012 16.121C26.3905 14.8936 26.285 13.6659 26.1479 12.4416C26.0373 11.4544 25.9245 10.4643 25.7399 9.48961C25.3856 7.62015 24.4529 6.05069 23.0373 4.79633C21.2692 3.22993 19.173 2.39769 16.8204 2.24351ZM15.9224 6.74867C15.238 7.43625 14.5521 8.12321 13.8695 8.81257C12.7295 9.96328 11.5851 11.11 10.4559 12.271C10.0881 12.6491 9.85329 13.0753 9.87838 13.659C9.9321 14.9099 9.90393 16.1644 9.92541 17.4171C9.94154 18.3448 10.2029 19.2057 10.7238 19.9776C11.3178 20.8568 12.1292 21.4866 13.0568 21.9802C14.1611 22.568 15.3381 22.8369 16.5853 22.7437C17.8875 22.646 19.0463 22.1482 20.0973 21.3929C21.5456 20.3518 22.2858 18.9478 22.2607 17.147C22.2437 15.9233 22.2375 14.6984 22.2684 13.4752C22.28 13.0241 22.0919 12.681 21.8178 12.4001C19.9205 10.4567 18.0048 8.53096 16.0865 6.59117C16.0284 6.64702 15.9743 6.69685 15.9224 6.74867ZM8.80979 15.4112C8.28788 15.5218 7.75915 16.0294 7.74885 17.0638C7.74084 17.881 8.20495 18.8721 9.0526 19.0238C8.74239 17.8293 8.85142 16.6164 8.80979 15.4112ZM23.3381 15.4068C23.2911 16.5997 23.4395 17.7863 23.1313 18.9527C23.7942 18.9325 24.3657 18.173 24.4209 17.1885C24.4661 16.3876 24.1428 15.6358 23.3381 15.4068Z" fill="#1D1E1D"/>
<path d="M13.0449 1.25475C14.2612 0.965605 15.4927 0.846388 16.7344 0.921744C19.2653 1.07514 21.5779 1.8626 23.5429 3.52135C25.3503 5.0469 26.5555 6.95995 26.9736 9.30846C27.1759 10.4456 27.2656 11.6055 27.3896 12.7469C27.4901 13.6721 27.5696 14.6001 27.6533 15.5253L27.8847 18.1962C27.9976 19.5153 28.1119 20.8362 28.2217 22.1561C28.2711 22.7534 28.3335 23.358 28.3515 23.9628C28.3804 24.944 27.756 25.8157 26.7734 25.912C26.4654 25.9422 26.1464 25.9794 25.8291 25.9803C24.4476 25.9843 23.0659 25.9763 21.6855 25.9735C21.931 26.2342 22.1807 26.4312 22.5185 26.5477C23.7301 26.9656 24.9361 27.4076 26.124 27.8905C27.1669 28.3141 28.0005 29.022 28.3935 30.1258C28.8008 31.2706 29.16 32.4345 29.5351 33.5868L29.9258 34.788L30.3047 35.993C30.3866 36.2628 30.3666 36.5047 30.2304 36.6796C30.0952 36.8529 29.8654 36.9353 29.5849 36.9354C20.6343 36.9354 11.6824 36.9345 2.73142 36.9403C2.4584 36.9405 2.22339 36.8729 2.07127 36.7098C1.91717 36.5446 1.86907 36.3038 1.91892 36.0057C1.98135 35.6332 2.10498 35.2695 2.21873 34.9198C2.73211 33.3402 3.25467 31.7631 3.77146 30.1854C4.00866 29.4613 4.49934 28.9384 5.07908 28.5067C5.75951 28.0004 6.5672 27.7421 7.31639 27.4423C7.74307 27.2718 8.1774 27.117 8.6074 26.9618C9.03808 26.8063 9.46613 26.6504 9.88572 26.4755C10.0324 26.4141 10.1694 26.3204 10.3086 26.2128C10.4008 26.1414 10.4998 26.0616 10.5986 25.9842C10.5873 25.9838 10.576 25.9823 10.5644 25.9823C9.09457 25.9823 7.62224 25.9899 6.15135 25.9823C5.71744 25.9801 5.25161 25.9799 4.81541 25.7792C4.13044 25.4629 3.74134 24.9047 3.73728 24.162C3.73322 23.4363 3.82672 22.7044 3.88084 21.9911C3.91405 21.5526 3.95566 21.114 3.99412 20.6776C4.07967 19.7066 4.16496 18.7351 4.25096 17.7645C4.33065 16.8672 4.40869 15.9688 4.49021 15.0712C4.56055 14.2997 4.63263 13.5278 4.70701 12.7567C4.79496 11.8415 4.86404 10.9163 4.98435 9.99987C5.24324 8.0268 5.96722 6.24493 7.25975 4.70592C8.79158 2.88212 10.7551 1.79876 13.0449 1.25475ZM16.7226 1.12194C15.5018 1.04782 14.2895 1.16409 13.0908 1.44909C10.8362 1.98473 8.91322 3.04874 7.41307 4.83483C6.1475 6.34177 5.43704 8.0863 5.1826 10.0253C5.06284 10.9373 4.99476 11.855 4.90623 12.7762C4.8319 13.5469 4.75974 14.3176 4.68943 15.0887L4.45017 17.7821C4.36418 18.7527 4.27889 19.7241 4.19334 20.6952C4.15475 21.1331 4.11412 21.5699 4.08103 22.0067C4.02584 22.734 3.93348 23.4461 3.93748 24.161C3.94111 24.8194 4.27798 25.311 4.89842 25.5975C5.28903 25.7774 5.71106 25.7808 6.15232 25.7831C7.62262 25.7907 9.0931 25.7831 10.5644 25.7831L10.7763 25.7958L10.8418 25.8007L10.8642 25.8622C10.8725 25.8854 10.8791 25.9053 10.8867 25.9257L10.9131 25.9969L10.8506 26.0419C10.7079 26.1443 10.5794 26.2567 10.4316 26.371C10.324 26.4542 10.2101 26.5341 10.0879 26.5995L9.96287 26.66C9.53816 26.8371 9.10552 26.9948 8.67478 27.1503C8.24367 27.3059 7.81428 27.4589 7.39158 27.6278C6.62341 27.9352 5.85249 28.1808 5.1992 28.6669C4.6373 29.0852 4.18052 29.5768 3.96092 30.2469C3.4438 31.8256 2.92252 33.4028 2.40916 34.9823C2.29377 35.337 2.1756 35.6837 2.11619 36.038C2.07213 36.3009 2.12128 36.4696 2.21775 36.5731C2.31633 36.6788 2.4856 36.7403 2.73142 36.7401C11.6825 36.7343 20.6344 36.7352 29.5849 36.7352C29.8311 36.7351 29.9899 36.6634 30.0732 36.5565C30.1556 36.4508 30.1838 36.2851 30.1133 36.0526L29.7353 34.8495L29.3447 33.6483C28.9683 32.4923 28.6111 31.3344 28.2051 30.1932C27.8356 29.1556 27.0525 28.4828 26.0488 28.0751C24.8652 27.5939 23.6623 27.1533 22.4531 26.7362C22.0085 26.5827 21.7029 26.3079 21.4043 25.9637L21.2929 25.8358L21.459 25.8007C21.4875 25.7945 21.506 25.7892 21.5273 25.784C21.5463 25.7795 21.5701 25.7743 21.5967 25.7743C23.0075 25.777 24.4176 25.7842 25.8281 25.7801C26.1334 25.7793 26.4402 25.7435 26.7539 25.7128C27.6113 25.6288 28.1778 24.8667 28.1513 23.9686C28.1335 23.3709 28.0724 22.7752 28.0224 22.1727C27.9127 20.8531 27.7984 19.5322 27.6855 18.2128C27.6089 17.3225 27.5347 16.433 27.4541 15.5438C27.3702 14.6172 27.2906 13.6915 27.1904 12.7684C27.0654 11.6184 26.9771 10.471 26.7763 9.34264C26.3673 7.04543 25.19 5.17261 23.414 3.6737C21.4871 2.04717 19.2179 1.2732 16.7226 1.12194ZM18.9873 26.8612C18.9931 26.7927 19 26.7279 19.0029 26.6649C19.0088 26.536 18.9987 26.4388 18.959 26.371C18.9157 26.2974 18.8329 26.2363 18.7178 26.1737C18.661 26.1429 18.6007 26.1141 18.5381 26.0829C18.4768 26.0524 18.4136 26.0195 18.3545 25.9833C18.3382 25.9733 18.3217 25.965 18.2998 25.953L18.2314 25.911C18.0366 25.7684 17.9385 25.5667 17.9472 25.328C17.9544 25.138 17.9651 24.9477 17.9756 24.7587C17.986 24.5695 17.9971 24.3813 18.0049 24.1932C18.0108 24.0524 18.0063 23.9134 18.0049 23.7626C16.7323 24.0471 15.4938 24.0666 14.2334 23.7567C14.2315 24.2923 14.2194 24.7985 14.2392 25.3055C14.2464 25.4847 14.2217 25.6498 14.1426 25.786C14.0617 25.9249 13.9312 26.0227 13.75 26.078C13.5397 26.1422 13.4178 26.238 13.3515 26.3563C13.2842 26.4767 13.2646 26.6378 13.2959 26.8524C13.3159 26.9903 13.3175 27.1294 13.3144 27.2674C13.3122 27.3681 13.309 27.4654 13.3066 27.5653C13.4379 27.5384 13.5499 27.5151 13.6611 27.495C13.8087 27.4683 13.9586 27.4464 14.1045 27.4237C14.2776 27.3969 14.4381 27.4132 14.5722 27.4813C14.7077 27.5503 14.8068 27.6674 14.8652 27.8231C14.9152 27.9569 14.9376 28.1016 14.959 28.2294C15.135 29.2763 15.3096 30.3237 15.4834 31.371C15.6553 32.4093 15.8261 33.4495 15.998 34.4882C16.0616 34.8723 16.1263 35.2567 16.1904 35.6395C16.1986 35.6406 16.2051 35.6423 16.2129 35.6424C16.2625 35.6433 16.3127 35.6434 16.3633 35.6434C16.6558 34.7545 16.9381 33.8804 17.2334 33.0116C17.6177 31.8815 18.1413 30.8155 18.7334 29.786C18.9105 29.4783 18.9969 29.1563 18.9834 28.7958C18.9622 28.2198 18.9779 27.6379 18.9765 27.0673C18.9765 26.9991 18.9816 26.9284 18.9873 26.8612ZM22.3955 27.6171C22.5465 27.6633 22.7306 27.7054 22.8945 27.7723C23.8633 28.1671 24.8303 28.5676 25.7969 28.9667C26.6233 29.3083 27.1447 29.8977 27.417 30.7655C27.6672 31.564 27.9327 32.3579 28.2031 33.1503L29.0176 35.5282L29.0664 35.7147L29.0986 35.8397H17.5332L17.5683 35.7128C17.6506 35.4147 17.7155 35.1056 17.8193 34.8192C18.2272 33.6915 18.6337 32.5608 19.0732 31.4432C19.1566 31.231 19.263 31.0287 19.373 30.8329C19.4842 30.6351 19.5971 30.4473 19.7002 30.2518C19.8705 29.9281 20.0431 29.6498 20.001 29.2635L19.9824 29.0887L20.1426 29.162C20.4424 29.2991 20.7117 29.4206 20.9785 29.5448C21.3062 29.6969 21.6191 29.856 21.9453 29.993C22.0748 30.0472 22.2224 30.0797 22.3594 30.0809C22.4933 30.0819 22.5979 30.0274 22.6621 29.9462C22.7263 29.8646 22.756 29.7488 22.7256 29.6161C22.5829 28.9967 22.426 28.3815 22.2685 27.7362L22.2265 27.5653L22.3955 27.6171ZM9.91893 27.7469C9.82348 28.0678 9.73369 28.3654 9.64744 28.6639C9.57332 28.9198 9.50234 29.1771 9.43162 29.4344C9.36718 29.6688 9.36612 29.8583 9.52439 29.993C9.70429 30.1461 9.91968 30.1219 10.1562 30.0145C11.0332 29.6169 11.9095 29.2008 12.7949 28.8143C13.1153 28.6745 13.475 28.599 13.8291 28.4901L13.9385 28.4559L13.957 28.5692C14.3646 30.9941 14.761 33.3504 15.1592 35.7215L15.1787 35.8387H3.09178L3.13475 35.7079C3.225 35.4313 3.30992 35.1585 3.40135 34.8895C3.90551 33.4075 4.41378 31.9272 4.916 30.4452C5.13929 29.7871 5.62502 29.3731 6.21189 29.1122C7.30457 28.6268 8.41735 28.1824 9.51756 27.7235C9.59514 27.691 9.67919 27.6636 9.78904 27.6239L9.97459 27.5565L9.91893 27.7469ZM22.9199 29.5712C22.9629 29.7585 22.9232 29.9375 22.8183 30.0702C22.7134 30.203 22.5492 30.2826 22.3574 30.2811C22.1918 30.2796 22.0188 30.2406 21.8681 30.1776L21.8672 30.1766C21.5372 30.0379 21.2131 29.8743 20.8945 29.7264C20.6725 29.6231 20.4487 29.5217 20.206 29.411C20.1962 29.7864 20.0176 30.0773 19.8769 30.3446C19.7723 30.543 19.6553 30.7403 19.5478 30.9315C19.4391 31.1249 19.338 31.3172 19.2597 31.5165C18.8214 32.6311 18.415 33.7589 18.0068 34.8876C17.9199 35.1272 17.8636 35.3732 17.7939 35.6395H28.8408C28.8366 35.6236 28.8333 35.608 28.8281 35.5926L28.0137 33.2147C27.7429 32.4212 27.4771 31.6258 27.2265 30.826C26.9711 30.0116 26.4895 29.4691 25.7207 29.1512C24.7538 28.752 23.7876 28.3515 22.8193 27.9569C22.7163 27.9149 22.6123 27.8857 22.5029 27.8553C22.6462 28.4387 22.7892 29.0039 22.9199 29.5712ZM9.59471 27.9081C8.49099 28.3684 7.38269 28.8108 6.29295 29.2948C5.7415 29.54 5.30592 29.9184 5.10545 30.5096C4.60331 31.9914 4.09458 33.4731 3.5908 34.954C3.51414 35.1795 3.44249 35.4056 3.36717 35.6385H14.9424C14.5567 33.3422 14.1718 31.0587 13.7773 28.7118C13.4441 28.8091 13.1524 28.8768 12.875 28.9979C11.9908 29.3838 11.1211 29.7973 10.2392 30.1971C9.9786 30.3155 9.66432 30.3749 9.39451 30.1454C9.14051 29.9291 9.17032 29.629 9.23826 29.3817C9.30902 29.1242 9.38053 28.8655 9.45506 28.6083C9.52425 28.3688 9.59546 28.1295 9.6699 27.8798C9.64373 27.8893 9.61917 27.8978 9.59471 27.9081ZM12.0762 26.6171C11.9988 26.654 11.9254 26.6894 11.8594 26.7215C11.7493 26.7751 11.6536 26.8275 11.5713 26.8915C11.3742 27.0449 11.1801 27.2101 11.1025 27.3973C10.9422 27.786 10.8388 28.1933 10.7099 28.6434C11.0726 28.4809 11.4002 28.3366 11.7256 28.1883C11.8342 28.1389 11.9096 28.1038 11.9638 28.0721C12.0167 28.0412 12.0397 28.0182 12.0527 27.9969C12.0658 27.9756 12.0762 27.9446 12.0801 27.8837C12.084 27.8214 12.0808 27.7404 12.0771 27.6229C12.0699 27.3981 12.0761 27.1696 12.0762 26.9501V26.6171ZM20.1328 26.3212C20.5666 26.4328 20.9011 26.6543 21.1601 26.9833C21.2257 27.0672 21.2586 27.1755 21.2803 27.2596C21.4018 27.7314 21.518 28.2047 21.6474 28.7245L21.6982 28.9257L20.1465 28.2167C20.0917 28.1907 20.059 28.1362 20.0429 28.1005C20.0338 28.0802 20.026 28.0577 20.0205 28.035L20.0117 27.9676C20.0059 27.4608 20.0078 26.9528 20.0078 26.4178V26.2889L20.1328 26.3212ZM20.2119 27.9647L20.2256 28.0184C20.2297 28.0275 20.2334 28.0341 20.2363 28.038L21.4033 28.5702C21.2935 28.1285 21.1922 27.7184 21.0869 27.3094C21.0762 27.268 21.0643 27.2295 21.0508 27.1952L21.0029 27.1073C20.7964 26.8451 20.5389 26.6593 20.208 26.5507C20.2077 27.0379 20.2066 27.5014 20.2119 27.9647ZM22.1562 10.9706C22.1567 10.273 22.1374 9.56446 22.1621 8.8612C22.1902 8.05735 21.9518 7.35211 21.5263 6.70104L21.333 6.42467C21.2296 6.28634 21.1273 6.13821 21.0469 5.97936C20.9198 5.72793 20.9873 5.40594 21.1855 5.24206L21.2676 5.18639C21.4677 5.07516 21.7264 5.09807 21.9258 5.27038C22.0734 5.39801 22.1941 5.56381 22.3056 5.70104C23.124 6.70478 23.4583 7.85727 23.4355 9.14147C23.406 10.805 23.4281 12.4681 23.4267 14.1346C23.4267 14.1667 23.4272 14.1898 23.4287 14.2108C23.4301 14.2304 23.4322 14.2406 23.4345 14.246C23.436 14.2491 23.4382 14.2515 23.4433 14.2548L23.498 14.2714L23.7353 14.3173C24.2746 14.45 24.7152 14.7582 25.0322 15.2333C25.6867 16.2146 25.7107 17.2653 25.3603 18.3495C24.987 19.5036 23.8561 20.2987 22.831 20.2128C22.8357 20.2131 22.8335 20.2117 22.8222 20.2167C22.8115 20.2215 22.7975 20.2304 22.7812 20.243C22.7486 20.2684 22.7154 20.3026 22.6924 20.3329C22.5679 20.4965 22.4523 20.6674 22.331 20.8397C22.2106 21.0108 22.0853 21.1824 21.9453 21.3426C21.2239 22.1682 20.335 22.7735 19.3681 23.2606C19.345 23.2723 19.3154 23.2922 19.2929 23.3133C19.2818 23.3239 19.2742 23.333 19.2705 23.3387C19.26 23.7688 19.2641 24.1986 19.2646 24.6376H24.1933L24.2744 23.4579C24.3014 23.0648 24.3289 22.6712 24.3564 22.2782C24.3816 21.9208 24.3954 21.5498 24.4453 21.1864C24.4675 21.0255 24.5432 20.8978 24.6611 20.8143C24.7774 20.7321 24.9259 20.6989 25.0849 20.7079L25.1943 20.7225C25.2999 20.7459 25.3935 20.7948 25.4678 20.868C25.5669 20.9659 25.6242 21.1011 25.6338 21.2587C25.6398 21.3584 25.6402 21.4585 25.6377 21.5575L25.624 21.8514C25.5859 22.5189 25.5427 23.1878 25.5029 23.8544C25.4875 24.1135 25.4753 24.3726 25.4619 24.6415C25.7947 24.6412 26.1196 24.6406 26.4433 24.6434C26.7242 24.6458 26.8742 24.5576 26.957 24.4374C27.0448 24.3097 27.0726 24.1235 27.0605 23.9012C27.0279 23.3016 26.956 22.7097 26.9062 22.1034C26.8543 21.4695 26.8174 20.8457 26.7617 20.2157C26.7302 19.8583 26.6939 19.5013 26.6572 19.1434C26.6206 18.7858 26.5836 18.4272 26.5517 18.0682C26.523 17.7448 26.4995 17.4205 26.4765 17.0975C26.4535 16.7741 26.4304 16.4512 26.4013 16.1298C26.2907 14.9019 26.1857 13.6757 26.0488 12.453C25.9381 11.4655 25.8252 10.4789 25.6416 9.50866C25.2916 7.66225 24.3708 6.11153 22.9707 4.87096C21.2202 3.32022 19.145 2.49642 16.8135 2.34362C15.2138 2.23919 13.6456 2.42424 12.1416 2.99889C9.24096 4.10738 7.31652 6.11147 6.51365 9.13268C6.11947 10.616 6.0743 12.1468 5.91697 13.6844C5.80998 14.7319 5.73451 15.781 5.64158 16.8329C5.539 17.9944 5.43299 19.1564 5.32908 20.3173C5.27258 20.9468 5.21303 21.5752 5.16111 22.204C5.10912 22.8342 5.05541 23.4619 5.02146 24.0907C5.01354 24.2386 5.04879 24.3625 5.11228 24.4491C5.17463 24.534 5.26808 24.5892 5.3906 24.5985C5.81581 24.6309 6.23999 24.6115 6.68357 24.6083C6.66772 24.4073 6.65087 24.2041 6.63865 24.0028C6.58313 23.0832 6.52671 22.1636 6.47654 21.243C6.47132 21.1439 6.48936 21.0326 6.53123 20.9393C6.62734 20.7263 6.83774 20.5902 7.05369 20.5848L7.14646 20.5907L7.25779 20.618C7.5066 20.7026 7.67843 20.9324 7.70115 21.2303C7.72717 21.5717 7.74908 21.9137 7.77146 22.2548C7.79385 22.5959 7.8163 22.9363 7.84178 23.2762C7.87526 23.7224 7.92055 24.1673 7.96189 24.619H12.9707C12.9693 24.2311 12.9612 23.8486 12.9765 23.4696C12.9797 23.3933 12.9666 23.3527 12.9482 23.326C12.9279 23.2968 12.8909 23.2684 12.8183 23.2333C11.4717 22.5793 10.3409 21.6626 9.53807 20.3749C9.48896 20.2963 9.44287 20.2563 9.39549 20.2333C9.34655 20.2095 9.2849 20.1987 9.19334 20.1991C8.43993 20.2033 7.80701 19.8905 7.33885 19.3212C6.57956 18.3977 6.45663 17.3156 6.69627 16.1991C6.87041 15.3866 7.33355 14.7596 8.11619 14.4149C8.31592 14.327 8.54045 14.2741 8.74607 14.2147L8.75096 14.1434C8.74066 13.1302 8.723 12.1143 8.72166 11.0995C8.72077 10.2861 8.7379 9.47251 8.74998 8.661C8.76931 7.3686 9.3226 6.29922 10.1367 5.35631C10.3593 5.09935 10.6955 5.04141 10.9492 5.20592C11.0774 5.28927 11.1644 5.40829 11.1933 5.5526C11.222 5.69556 11.1912 5.85208 11.1084 6.00963C10.9915 6.23181 10.8371 6.43804 10.7021 6.63463C10.3272 7.18047 10.0663 7.76675 10.04 8.41881C10.0235 8.83144 10.0173 9.24392 10.0146 9.6571L10.0078 10.8993C10.0074 10.9413 10.0078 10.9831 10.0078 11.0272C10.0199 11.0158 10.0332 11.0058 10.0449 10.994C11.2058 9.82241 12.3659 8.64775 13.5273 7.47643C14.2107 6.78765 14.8949 6.09959 15.584 5.41588C15.7346 5.26649 15.9082 5.17961 16.0859 5.17077C16.2653 5.16196 16.4361 5.23332 16.5762 5.37487C18.1659 6.98301 19.7526 8.59667 21.3408 10.2059C21.6012 10.4693 21.8666 10.7271 22.1562 11.0116V10.9706ZM16.1572 6.52038C18.0752 8.45989 19.9921 10.3863 21.8896 12.3299C22.1773 12.6247 22.3805 12.9928 22.3681 13.4774C22.3373 14.6986 22.3433 15.9223 22.3603 17.1454C22.3859 18.9801 21.6291 20.415 20.1553 21.4745C19.0928 22.238 17.9168 22.7443 16.5928 22.8436C15.3255 22.9383 14.1297 22.6643 13.0097 22.0682C12.0725 21.5694 11.2462 20.9296 10.6406 20.0331C10.1086 19.2447 9.84162 18.365 9.82517 17.4188C9.80358 16.1599 9.83199 14.9131 9.7783 13.663C9.7518 13.0443 10.003 12.5925 10.3838 12.201C11.5134 11.0396 12.6592 9.89241 13.7988 8.74206C14.4814 8.05274 15.1674 7.36584 15.8515 6.67858C15.9041 6.62604 15.9617 6.57307 16.0176 6.5194L16.0879 6.45104L16.1572 6.52038ZM15.9931 6.81921C15.3086 7.50688 14.6229 8.19349 13.9404 8.88268C12.8001 10.0337 11.6561 11.1801 10.5273 12.3407C10.1727 12.7053 9.95492 13.1066 9.9785 13.6551C10.0322 14.9065 10.004 16.1687 10.0254 17.4149C10.0412 18.324 10.2969 19.1665 10.8066 19.9217C11.3888 20.7835 12.1858 21.4031 13.1035 21.8915C14.1922 22.4709 15.351 22.7361 16.5781 22.6444C17.8583 22.5483 18.9998 22.0583 20.039 21.3114C21.4616 20.2887 22.1857 18.9152 22.1611 17.1483C22.1441 15.9242 22.137 14.6976 22.1679 13.4725C22.1787 13.0552 22.0066 12.7366 21.7461 12.4696C19.8719 10.5498 17.9804 8.64679 16.0849 6.73034L15.9931 6.81921ZM14.8379 18.6171C15.5719 17.7765 16.8104 17.8135 17.4873 18.7079C18.0377 19.4359 18.0373 20.4807 17.4414 21.1825L17.3144 21.3182C16.9908 21.6309 16.6101 21.7744 16.1074 21.7762C15.7745 21.7811 15.4829 21.708 15.2334 21.5575C14.9839 21.4069 14.7815 21.1832 14.6221 20.8993C14.2088 20.163 14.2984 19.2346 14.8379 18.6171ZM17.3281 18.828C16.7284 18.0356 15.6395 18.0025 14.9883 18.7479C14.5063 19.2996 14.4235 20.1367 14.7969 20.8016C14.9428 21.0614 15.1226 21.2563 15.3369 21.3856C15.5508 21.5147 15.8048 21.5816 16.1054 21.577C16.5632 21.5753 16.8937 21.4471 17.1758 21.1747C17.8184 20.5533 17.8587 19.5297 17.3281 18.828ZM15.9687 19.0673C16.4488 18.9596 16.854 19.3649 16.8418 19.8798C16.8388 20.0002 16.8137 20.1238 16.7734 20.2362L16.7715 20.2421L16.7217 20.3583C16.6524 20.492 16.5551 20.6031 16.4463 20.6776C16.338 20.7517 16.2106 20.7937 16.0849 20.7743C15.793 20.7288 15.5419 20.4754 15.459 20.1776L15.4336 20.0477C15.4289 20.0011 15.428 19.9518 15.4277 19.9452V19.9393C15.4297 19.7259 15.485 19.5289 15.5781 19.3749C15.6707 19.2218 15.8063 19.1041 15.9687 19.0673ZM16.6416 19.8749C16.6514 19.459 16.3371 19.1899 16.0127 19.2626C15.9177 19.284 15.8224 19.3571 15.749 19.4784C15.6762 19.5988 15.6296 19.7602 15.6279 19.9413C15.6285 19.9581 15.6293 19.9918 15.6328 20.0272L15.6523 20.1278C15.7172 20.3566 15.9122 20.5454 16.1162 20.577C16.1777 20.5865 16.2537 20.5668 16.333 20.5126C16.4103 20.4597 16.4846 20.3771 16.54 20.2723L16.5849 20.1688C16.6186 20.0749 16.6391 19.9723 16.6416 19.8749ZM8.91014 15.4081C8.9206 15.7111 8.92137 16.0146 8.92185 16.3163C8.92233 16.6184 8.92233 16.9187 8.93064 17.2186C8.94727 17.8185 8.99702 18.4121 9.14939 18.9989L9.18846 19.1493L9.03514 19.1219C8.57489 19.0396 8.22522 18.7304 7.99412 18.3446C7.76326 17.9592 7.64424 17.4885 7.64842 17.0624C7.65925 15.9905 8.21304 15.4355 8.78904 15.3133L8.90525 15.2889L8.91014 15.4081ZM23.3652 15.3104C24.232 15.5571 24.5672 16.367 24.5205 17.1942C24.4919 17.7032 24.3302 18.1582 24.0849 18.4911C23.8399 18.8233 23.5053 19.0411 23.1347 19.0526L23 19.0565L23.0351 18.9276C23.1861 18.356 23.2252 17.7767 23.2324 17.1883C23.2396 16.6063 23.2148 15.9992 23.2383 15.4032L23.2431 15.2762L23.3652 15.3104ZM8.71092 15.5428C8.28083 15.6909 7.8577 16.1534 7.84861 17.0653C7.84488 17.4562 7.95502 17.8899 8.166 18.2421C8.34799 18.5458 8.60108 18.7819 8.916 18.8856C8.78925 18.3319 8.74576 17.7766 8.73045 17.2245C8.72204 16.9213 8.72214 16.6177 8.72166 16.3163C8.72125 16.0574 8.71766 15.7998 8.71092 15.5428ZM23.4355 15.5438C23.4201 16.0943 23.4394 16.635 23.4326 17.1913C23.4258 17.7383 23.3895 18.2873 23.2617 18.8348C23.5055 18.7855 23.7375 18.6256 23.9238 18.3729C24.1435 18.0749 24.2946 17.6576 24.3213 17.1825C24.3624 16.4529 24.0884 15.7943 23.4355 15.5438ZM12.6396 15.3397C13.3018 15.3661 13.6954 15.9359 13.7012 16.538C13.7065 17.1489 13.1876 17.6823 12.6084 17.6649C11.9949 17.6463 11.5617 17.1482 11.5449 16.4921C11.5298 15.9059 11.9917 15.3942 12.5293 15.3436L12.5351 15.3426L12.6328 15.3397H12.6396ZM19.5517 15.3436C20.1592 15.33 20.683 15.8368 20.6982 16.4481C20.7142 17.0983 20.242 17.6434 19.6211 17.66C19.0379 17.6755 18.5287 17.1518 18.5117 16.5448C18.4952 15.9544 18.9045 15.4275 19.4424 15.3524L19.4482 15.3514L19.5459 15.3446L19.5517 15.3436ZM12.5469 15.5419C12.1176 15.5827 11.7326 16.0031 11.7451 16.4872C11.7597 17.0564 12.1252 17.4498 12.6142 17.4647C13.0706 17.4784 13.5063 17.0469 13.5019 16.5399C13.4969 16.0143 13.1598 15.5615 12.6328 15.5399L12.5469 15.5419ZM19.4648 15.5507C19.0439 15.6124 18.698 16.0382 18.7119 16.5389C18.7262 17.0482 19.1547 17.4728 19.6152 17.4608C20.1126 17.4476 20.5117 17.0069 20.498 16.453C20.4855 15.9511 20.0534 15.5346 19.5595 15.5438L19.4648 15.5507ZM12.4433 13.952C13.1791 13.9656 13.7494 14.2072 14.1933 14.7215C14.2617 14.8007 14.3202 14.8897 14.3681 14.9794C14.4766 15.1829 14.4654 15.4201 14.3379 15.5868L14.2763 15.6542C14.188 15.7332 14.0665 15.7727 13.9463 15.7762C13.8554 15.7789 13.7594 15.7619 13.6728 15.7196L13.5898 15.6688C13.5081 15.6078 13.4336 15.538 13.3633 15.4725C13.2918 15.406 13.2248 15.3434 13.1533 15.288C12.7644 14.9862 12.2271 15.0021 11.8554 15.3094L11.7832 15.3749C11.6983 15.4593 11.6064 15.558 11.5137 15.6454C11.3048 15.8421 11.0207 15.8743 10.7988 15.7128C10.5671 15.5441 10.499 15.2535 10.6533 14.9872C10.9631 14.4541 11.4483 14.1555 12.0224 14.0116L12.2558 13.9715C12.3284 13.963 12.3911 13.9581 12.4277 13.953L12.4346 13.951L12.4433 13.952ZM19.584 13.9471C20.3196 13.9719 20.9141 14.2105 21.3623 14.7333L21.4502 14.8417L21.5097 14.9257C21.5296 14.9555 21.5486 14.9877 21.5654 15.0204C21.5984 15.0846 21.6277 15.1622 21.625 15.2421C21.6223 15.3202 21.6025 15.4107 21.5703 15.4911C21.5469 15.5493 21.5131 15.6114 21.4658 15.659L21.414 15.701C21.3371 15.7501 21.2427 15.7726 21.1533 15.7801C21.0625 15.7878 20.968 15.7807 20.8867 15.7635C20.8063 15.7463 20.7393 15.6964 20.6875 15.6493L20.5459 15.5038C20.2508 15.1977 19.931 15.056 19.622 15.0604C19.313 15.0649 18.997 15.2158 18.7099 15.5292C18.6205 15.6269 18.494 15.7183 18.3613 15.7596C18.1485 15.8253 17.8937 15.7552 17.7988 15.5301C17.7649 15.4486 17.7434 15.3471 17.7392 15.2499C17.7352 15.1543 17.7477 15.0489 17.7939 14.9647C18.0835 14.4398 18.5628 14.1469 19.126 14.0126C19.2102 13.9925 19.2949 13.9796 19.3711 13.9706L19.5693 13.9481L19.5771 13.9471H19.584ZM12.4433 14.1512C12.3437 14.1641 12.2092 14.1712 12.0713 14.2059C11.5368 14.3399 11.1039 14.6115 10.8271 15.0878C10.7237 15.2662 10.7677 15.4437 10.916 15.5516C11.0507 15.6497 11.2282 15.639 11.376 15.4999C11.4674 15.4138 11.5477 15.3267 11.6416 15.2333C12.0834 14.794 12.7801 14.7456 13.2754 15.1298C13.3555 15.1919 13.4293 15.262 13.499 15.327C13.5698 15.393 13.6374 15.4542 13.709 15.5077C13.7738 15.5559 13.8579 15.5794 13.9404 15.577C14.0235 15.5746 14.0962 15.5462 14.1426 15.5048C14.2471 15.4109 14.2795 15.2382 14.1914 15.0731C14.149 14.9938 14.0988 14.9182 14.042 14.8524C13.641 14.3878 13.1287 14.1646 12.4433 14.1512ZM19.3945 14.1698C19.3216 14.1784 19.2452 14.1894 19.1719 14.2069C18.6493 14.3316 18.2247 14.5973 17.9687 15.0614C17.9472 15.1008 17.9352 15.1647 17.9385 15.2421C17.9417 15.3175 17.9593 15.394 17.9834 15.452L18.0039 15.4891C18.0605 15.5694 18.1763 15.6067 18.3017 15.5682C18.3932 15.5397 18.4909 15.4725 18.5625 15.3944C18.8774 15.0506 19.2425 14.8657 19.6191 14.8602C19.9958 14.8548 20.3655 15.0291 20.6894 15.3651C20.7373 15.415 20.7774 15.46 20.8222 15.5008C20.8667 15.5413 20.9011 15.5623 20.9287 15.5682C20.9919 15.5815 21.0657 15.5868 21.1357 15.5809C21.2071 15.5749 21.2668 15.5576 21.3066 15.5321C21.33 15.517 21.3597 15.4784 21.3847 15.4159C21.4087 15.3561 21.4229 15.2891 21.4248 15.2352C21.4258 15.2048 21.4142 15.1628 21.3877 15.1112C21.3619 15.061 21.3268 15.0097 21.291 14.9628C20.8774 14.4217 20.3164 14.1729 19.582 14.1473L19.3945 14.1698ZM19.5058 11.7508C19.9978 11.7489 20.4668 11.8574 20.916 12.0448C21.0831 12.1143 21.2098 12.2232 21.2773 12.3602C21.3454 12.4987 21.3494 12.6566 21.289 12.8114C21.2278 12.9673 21.1198 13.0858 20.9756 13.1424C20.8321 13.1988 20.6656 13.1892 20.4951 13.1171C20.0211 12.9163 19.5496 12.807 19.0547 12.9042C18.8678 12.9407 18.6848 13.0046 18.4931 13.0682C18.3243 13.124 18.1618 13.1332 18.0224 13.0858C17.8801 13.0373 17.7718 12.9328 17.7119 12.784C17.5831 12.4642 17.7295 12.1069 18.0957 11.9969C18.5214 11.8686 18.9653 11.7862 19.3887 11.6874L19.4873 11.6639L19.5058 11.7508ZM12.6806 11.745C13.156 11.7495 13.6109 11.8526 14.0498 12.0233C14.2186 12.0893 14.3504 12.197 14.4258 12.3339C14.5017 12.4721 14.5163 12.6335 14.4629 12.7948C14.362 13.0983 14.002 13.1982 13.6767 13.1063C13.3996 13.0283 13.1256 12.9523 12.8486 12.9022C12.4228 12.8251 12.0118 12.9288 11.5869 13.0731C11.391 13.1395 11.2028 13.1318 11.0547 13.0487C10.9053 12.9648 10.8116 12.8126 10.79 12.6239C10.7601 12.3579 10.9043 12.0802 11.2002 11.9989C11.6513 11.875 12.1152 11.7849 12.5644 11.6825L12.664 11.66L12.6806 11.745ZM19.3359 11.9032C18.9342 11.9945 18.5398 12.0718 18.1533 12.1883C17.9049 12.2629 17.8104 12.4939 17.8974 12.7098C17.937 12.8077 18.003 12.8678 18.0869 12.8964C18.1737 12.9259 18.2898 12.9244 18.4306 12.8778L18.7168 12.785C18.8146 12.755 18.9144 12.7277 19.0156 12.7079C19.5652 12.5999 20.0796 12.7239 20.5722 12.9325C20.7062 12.9893 20.8178 12.9891 20.9023 12.9559C20.9862 12.9229 21.058 12.8522 21.1025 12.7391C21.1446 12.6314 21.1395 12.5324 21.0986 12.4491C21.0674 12.3856 21.0123 12.3248 20.9306 12.2753L20.8398 12.2303C20.387 12.0413 19.9187 11.9368 19.4297 11.951L19.3476 11.953L19.3359 11.9032ZM12.5097 11.8993C12.0856 11.9941 11.6673 12.0777 11.2539 12.1913C11.0666 12.2426 10.9676 12.4181 10.9883 12.6014C11.0036 12.735 11.067 12.8255 11.1533 12.8739C11.2411 12.923 11.3681 12.9364 11.5234 12.8837C11.9531 12.7377 12.4058 12.6182 12.8847 12.7049C13.1726 12.757 13.4554 12.8362 13.7314 12.9139L13.831 12.9354C14.0567 12.9657 14.2275 12.8695 14.2734 12.7313C14.3099 12.6207 14.2989 12.5178 14.251 12.4305C14.2144 12.364 14.1538 12.3024 14.0693 12.2538L13.9775 12.2098C13.5328 12.0368 13.0769 11.9374 12.6025 11.9442L12.5195 11.9452L12.5097 11.8993ZM19.1767 27.0673C19.1781 27.6459 19.1626 28.2164 19.1836 28.788C19.1985 29.1885 19.1008 29.5476 18.9062 29.8856C18.3184 30.9077 17.8018 31.9619 17.4228 33.076C17.1203 33.9663 16.8315 34.8608 16.5303 35.7753L16.5078 35.8436H16.4355C16.3613 35.8436 16.2844 35.844 16.209 35.8426C16.1732 35.842 16.1289 35.8337 16.0918 35.829L16.0176 35.8192L16.0058 35.746C15.9378 35.3391 15.8684 34.9302 15.8008 34.5214C15.6287 33.4819 15.4581 32.4431 15.2861 31.4042C15.1123 30.3568 14.9377 29.3094 14.7617 28.2626C14.7393 28.1286 14.7195 28.0053 14.6777 27.8934C14.6346 27.7784 14.5671 27.7026 14.4814 27.659C14.3944 27.6148 14.2793 27.5988 14.1357 27.621C13.9878 27.644 13.8416 27.6652 13.6972 27.6913C13.5551 27.717 13.4146 27.7485 13.2226 27.787L13.1035 27.8104V27.6883C13.1035 27.5416 13.1113 27.3949 13.1142 27.2635C13.1173 27.1289 13.1152 27.003 13.0976 26.8817C13.0631 26.6448 13.0793 26.4329 13.1767 26.2587C13.2755 26.0822 13.4484 25.9608 13.6914 25.8866C13.833 25.8434 13.9184 25.7736 13.9697 25.6854C14.0226 25.5944 14.0463 25.472 14.04 25.3133C14.0184 24.7614 14.0342 24.2048 14.0342 23.6298V23.4999L14.1592 23.5331C15.4678 23.8768 16.7532 23.8566 18.083 23.5419L18.206 23.5126V23.6395C18.206 23.8297 18.2118 24.0176 18.2041 24.201C18.1962 24.3909 18.1862 24.5815 18.1758 24.7704C18.1653 24.9592 18.1546 25.1471 18.1474 25.3348C18.1411 25.5066 18.2076 25.6453 18.3486 25.7489C18.3611 25.7579 18.3764 25.7668 18.3955 25.7772C18.413 25.7868 18.4372 25.799 18.459 25.8124C18.5102 25.8438 18.567 25.8738 18.6279 25.9042C18.6874 25.9338 18.7518 25.965 18.8125 25.9979C18.9321 26.063 19.058 26.1456 19.1308 26.2694C19.2024 26.3914 19.2083 26.5412 19.2021 26.6747C19.199 26.7427 19.1931 26.8133 19.1875 26.8788C19.1818 26.9457 19.1767 27.0085 19.1767 27.0673ZM12.2773 27.6161C12.2808 27.7293 12.284 27.8222 12.2793 27.8964C12.2745 27.9719 12.2613 28.041 12.2236 28.1024C12.1859 28.1637 12.1304 28.2064 12.0644 28.245C11.9994 28.283 11.9138 28.322 11.8086 28.37C11.425 28.5447 11.0384 28.7164 10.5967 28.9149L10.3965 29.0048L10.4599 28.7948C10.6149 28.2788 10.7282 27.7809 10.9179 27.3212C11.019 27.0772 11.2588 26.8814 11.4492 26.7333C11.5482 26.6564 11.658 26.5971 11.7715 26.5419C11.8884 26.485 12.0036 26.4349 12.1308 26.369L12.2763 26.2938V26.9501C12.2763 27.177 12.2703 27.3954 12.2773 27.6161ZM22.3564 11.4901L22.1865 11.3221C21.8312 10.9713 21.5099 10.6618 21.1982 10.3465C19.6096 8.73689 18.0243 7.12358 16.4346 5.51549C16.3295 5.40934 16.2117 5.36429 16.0957 5.36999C15.9782 5.37587 15.8488 5.4343 15.7246 5.55749C15.0361 6.24063 14.3524 6.92824 13.6689 7.61706C12.5072 8.78863 11.3479 9.96245 10.1865 11.1346C10.1285 11.193 10.0604 11.2505 9.97557 11.329L9.8076 11.4852V10.8973L9.81443 9.65514C9.81717 9.2403 9.82323 8.82447 9.83982 8.41003C9.86826 7.70764 10.1497 7.08547 10.5371 6.52135C10.6787 6.31511 10.822 6.12524 10.9316 5.91686C10.9988 5.78917 11.0146 5.67904 10.9971 5.59167C10.9798 5.50581 10.928 5.43118 10.8398 5.37389C10.6808 5.27077 10.4542 5.29552 10.2881 5.48717C9.494 6.40687 8.96861 7.4326 8.95017 8.66393C8.93807 9.47721 8.92097 10.2881 8.92185 11.0995L8.95115 14.1415L8.94139 14.2987L8.9365 14.368L8.87107 14.3876C8.62284 14.4635 8.40487 14.5071 8.19725 14.5985C7.47866 14.9149 7.05356 15.4852 6.89158 16.2411C6.66092 17.3157 6.78289 18.3304 7.49314 19.1942C7.92454 19.7188 8.50145 20.0028 9.19236 19.9989C9.29715 19.9984 9.39465 20.0104 9.48338 20.0536C9.5735 20.0975 9.6443 20.1691 9.70701 20.2694C10.4864 21.5196 11.5869 22.4119 12.9062 23.0526C12.988 23.0922 13.0622 23.1396 13.1123 23.2118C13.1641 23.2865 13.181 23.3745 13.1767 23.4774C13.1603 23.8836 13.1709 24.2891 13.1709 24.7186V24.8192H7.77928L7.77049 24.7284C7.72723 24.2487 7.67843 23.7697 7.64256 23.2919C7.61698 22.9506 7.59463 22.6085 7.57225 22.2674C7.54985 21.9262 7.52787 21.5853 7.50193 21.245C7.4822 20.987 7.32245 20.8199 7.11619 20.788C6.96362 20.7646 6.78876 20.8556 6.71385 21.0214C6.68625 21.0828 6.67205 21.1617 6.67576 21.2323L6.83787 23.9911C6.85214 24.2261 6.87351 24.4593 6.89158 24.6991L6.89939 24.8065H6.79197C6.32458 24.8065 5.84527 24.8334 5.37596 24.7977C5.19579 24.7841 5.04837 24.6997 4.95115 24.5673C4.85522 24.4365 4.81138 24.2646 4.82127 24.0799C4.85541 23.4476 4.90999 22.8165 4.96189 22.1874C5.0139 21.5575 5.07349 20.9269 5.12986 20.2987C5.23379 19.1376 5.3398 17.9766 5.44236 16.8153C5.53488 15.7681 5.61062 14.7128 5.71775 13.6639C5.8731 12.1455 5.92068 10.5846 6.32029 9.08092C7.1409 5.99322 9.11391 3.94109 12.0703 2.81139C13.6053 2.22491 15.2032 2.03736 16.8271 2.14342C19.2005 2.299 21.318 3.1397 23.1035 4.72155C24.5346 5.98961 25.4791 7.57827 25.8379 9.47057C26.0232 10.4495 26.1365 11.4438 26.247 12.4305C26.3843 13.6561 26.49 14.8854 26.6006 16.1122C26.6298 16.4357 26.6528 16.7598 26.6758 17.0829C26.6988 17.4063 26.7224 17.7291 26.751 18.0507C26.7827 18.408 26.8188 18.7651 26.8554 19.1229C26.8921 19.4806 26.9293 19.8391 26.9609 20.1981C27.0163 20.8251 27.0543 21.4628 27.1054 22.0868C27.1542 22.6808 27.228 23.2879 27.2607 23.8895C27.2736 24.1266 27.2466 24.3681 27.1211 24.5507C26.9905 24.7402 26.7685 24.8455 26.4414 24.8426C26.085 24.8395 25.7285 24.8417 25.3574 24.8417H25.2519L25.2568 24.7372C25.2724 24.4324 25.2862 24.1364 25.3037 23.8426C25.3436 23.1743 25.3867 22.5072 25.4248 21.8397C25.436 21.6464 25.4457 21.4574 25.4345 21.2714C25.4275 21.1558 25.3865 21.0692 25.3271 21.0106C25.2676 20.9519 25.1821 20.9133 25.0732 20.9071C24.9472 20.9001 24.8467 20.9277 24.7763 20.9774C24.708 21.0259 24.659 21.1022 24.6435 21.2137C24.5949 21.5685 24.5815 21.9267 24.5556 22.2928C24.5281 22.6855 24.5015 23.0786 24.4746 23.4715L24.3926 24.6503C24.3904 24.6819 24.3802 24.7087 24.373 24.7255C24.3643 24.746 24.3584 24.7552 24.3525 24.7714L24.3291 24.8378H19.0644V24.7372C19.0644 24.2635 19.0596 23.7938 19.0713 23.3251L19.081 23.2723C19.0869 23.2564 19.0952 23.2428 19.1025 23.2313C19.1176 23.2077 19.1365 23.1866 19.1553 23.1688C19.1926 23.1334 19.2385 23.102 19.2783 23.0819C20.2301 22.6024 21.0956 22.0111 21.7949 21.2108C21.9276 21.0589 22.0483 20.8944 22.1679 20.7245C22.2866 20.5559 22.4058 20.3803 22.5332 20.2128C22.5648 20.1711 22.6094 20.1228 22.6582 20.0848C22.6826 20.0659 22.7105 20.0473 22.7402 20.034C22.7693 20.0211 22.807 20.0101 22.8476 20.0135C23.7666 20.0906 24.8208 19.3671 25.1699 18.288C25.5066 17.2462 25.4783 16.2626 24.8662 15.3446C24.5361 14.8498 24.0619 14.5547 23.4687 14.4686C23.3672 14.4538 23.2905 14.4118 23.2529 14.329C23.2367 14.2931 23.2307 14.2556 23.2285 14.2245C23.2264 14.1942 23.2275 14.1611 23.2275 14.1346C23.2289 12.4719 23.2067 10.8033 23.2363 9.13756C23.2569 7.97134 22.9736 6.92806 22.292 6.00963L22.1504 5.82702C22.0282 5.67672 21.9259 5.53418 21.7959 5.42174C21.6372 5.28421 21.4396 5.29131 21.3125 5.39635C21.1901 5.49773 21.1386 5.7163 21.2256 5.88854C21.2983 6.03225 21.3925 6.16985 21.4931 6.30456L21.6943 6.59167C22.138 7.27075 22.3912 8.01642 22.3613 8.86901C22.3368 9.56777 22.3569 10.2653 22.3564 10.9706V11.4901Z" fill="#1D1E1D"/>
</g>
</g>
<defs>
<clipPath id="clip0_3288_14950">
<rect width="32" height="32" fill="white"/>
</clipPath>
<clipPath id="clip1_3288_14950">
<rect width="28" height="31.36" fill="white" transform="translate(2 -6.10352e-05)"/>
</clipPath>
</defs>
</svg>
