<svg viewBox="0 0 33 32" fill="none" xmlns="http://www.w3.org/2000/svg">
<path d="M16.3334 27.7894L30.3334 12.5473M16.3334 27.7894L2.33337 12.5473M16.3334 27.7894L10.193 14.021M16.3334 27.7894L22.4737 14.021M30.3334 12.5473L24.8322 5.36554C24.2745 4.63742 23.4096 4.21045 22.4924 4.21045H20.1404M30.3334 12.5473L22.4737 14.021M2.33337 12.5473L7.83455 5.36554C8.39228 4.63742 9.25718 4.21045 10.1744 4.21045H12.5264M2.33337 12.5473L10.193 14.021M12.5264 4.21045L10.193 14.021M12.5264 4.21045H20.1404M20.1404 4.21045L22.4737 14.021M10.193 14.021H22.4737" stroke="#1D1E1D" stroke-width="1.5" stroke-linecap="round" stroke-linejoin="round"/>
</svg>
