<svg viewBox="0 0 37 36" fill="none" xmlns="http://www.w3.org/2000/svg">
<path d="M6.63726 15.6016L21.2839 4V14.5691L29.3333 13.1191L25 23.2691L31.5 24.2358L17.0151 32.3174C16.2397 32.7501 15.3124 32.817 14.483 32.5001L7.42958 29.8061C6.26759 29.3623 5.5 28.2475 5.5 27.0036V17.9533C5.5 17.0368 5.91889 16.1707 6.63726 15.6016Z" stroke="white" stroke-width="1.33"/>
<path d="M16.3803 20.1575L20.319 19.0239C20.4881 18.9752 20.6356 19.1478 20.5594 19.3052L18.424 23.7208C18.3698 23.8328 18.4294 23.9663 18.5495 24.0018L20.7546 24.6538C20.9309 24.706 20.9527 24.9449 20.7886 25.0275L16.4951 27.1905C16.2414 27.3183 15.9453 27.335 15.6786 27.2366L10.4318 25.3006C10.204 25.2165 10.0679 24.9846 10.1067 24.7466L10.9846 19.3625C11.0037 19.2453 11.0638 19.1385 11.1544 19.0609L16.1874 14.7497C16.3252 14.6316 16.5381 14.7385 16.5236 14.9186L16.1204 19.9474C16.1091 20.0883 16.2434 20.1969 16.3803 20.1575Z" fill="url(#paint0_linear_4214_17939)"/>
<defs>
<linearGradient id="paint0_linear_4214_17939" x1="15.5001" y1="14.7" x2="15.5001" y2="27.3" gradientUnits="userSpaceOnUse">
<stop stop-color="#08EDDF"/>
<stop offset="1" stop-color="#CEED8B"/>
</linearGradient>
</defs>
</svg>

