<svg width="37" height="36" viewBox="0 0 37 36" fill="none" xmlns="http://www.w3.org/2000/svg">
<path d="M23.504 5.08878L26.4334 8.15586L26.4331 8.5377L28.3995 8.91812L28.5987 8.96665C29.0535 9.10251 29.4501 9.39227 29.7183 9.78894L31.6991 12.7197C32.0054 13.1732 32.1193 13.7302 32.0154 14.2676L28.862 30.5734C28.6591 31.6227 27.6949 32.3315 26.6529 32.2378L26.4433 32.2086L11.3246 29.2853C10.825 29.1886 10.4038 28.9173 10.1084 28.5491L13.2343 28.3275L8.05437 28.3276L6.29643 26.179L6.29589 9.32729L10.4205 5.08939L23.504 5.08878ZM26.4331 20.0676L25.4802 20.8488L25.4795 22.6062L26.4327 23.2504L26.4329 26.5124L24.2854 28.3271L13.3772 28.3271L26.6963 30.9032C27.0942 30.9798 27.4797 30.7192 27.5567 30.3214L30.7101 14.0145C30.7469 13.8235 30.7064 13.6247 30.5976 13.4635L28.6168 10.5338C28.5078 10.3725 28.3385 10.2614 28.1475 10.2244L26.4331 9.89168L26.4331 20.0676ZM7.62641 9.86637L7.62657 25.7049L8.68355 26.9976L23.7986 26.9978L25.1027 25.894L25.1033 23.9555L24.7353 23.7085L24.1501 23.3124L24.15 20.2187L25.103 19.4374L25.1024 8.82493L25.0917 8.67491L22.9346 6.4195L10.9818 6.41923L7.62641 9.86637Z" fill="white"/>
<path d="M17.4565 16.0408C17.7471 15.7506 17.8306 15.3125 17.6674 14.9356C17.5041 14.5588 17.127 14.3197 16.7165 14.3334L13.1371 14.4529L16.0813 11.1659C16.4494 10.7545 16.4145 10.1223 16.0033 9.75397C15.5919 9.38553 14.9599 9.42065 14.5914 9.83198L10.0845 14.8631C9.81732 15.1615 9.75463 15.5906 9.92408 15.9535C10.0935 16.3161 10.4625 16.5433 10.8625 16.5302L14.249 16.4176L11.1163 19.544C10.7255 19.9341 10.7249 20.567 11.1149 20.9579C11.5051 21.3488 12.138 21.3494 12.5289 20.9593L17.4565 16.0408Z" fill="url(#paint0_linear_4214_17964)"/>
<defs>
<linearGradient id="paint0_linear_4214_17964" x1="16.4711" y1="23.2148" x2="4.86207" y2="16.155" gradientUnits="userSpaceOnUse">
<stop stop-color="#08EDDF"/>
<stop offset="1" stop-color="#CEED8B"/>
</linearGradient>
</defs>
</svg>
