<svg width="64" height="63" viewBox="0 0 64 63" fill="none" xmlns="http://www.w3.org/2000/svg">
<rect x="0.25" width="63" height="63" rx="9" fill="url(#paint0_linear_4214_17758)"/>
<path d="M38.7812 9C40.3674 9.00016 41.6546 9.96587 42.6221 11.1934C43.6021 12.4369 44.4234 14.1492 45.0869 16.1396C45.9228 18.6471 46.5488 21.7196 46.8994 25.127C46.9699 25.1498 47.0407 25.1711 47.1104 25.1943C49.1008 25.8579 50.8131 26.6791 52.0566 27.6592C53.2843 28.6268 54.25 29.9146 54.25 31.501C54.2498 33.0871 53.2841 34.3743 52.0566 35.3418C50.8131 36.3219 49.1008 37.1431 47.1104 37.8066C47.0405 37.8299 46.9691 37.8501 46.8984 37.873C46.5479 41.2803 45.9228 44.353 45.0869 46.8604C44.4234 48.8508 43.6021 50.5631 42.6221 51.8066C41.6546 53.0341 40.3674 53.9998 38.7812 54C37.1949 54 35.907 53.0343 34.9395 51.8066C33.9594 50.5631 33.1382 48.8508 32.4746 46.8604C32.2107 46.0687 31.9691 45.2203 31.749 44.3232C31.529 45.2203 31.2873 46.0687 31.0234 46.8604C30.3599 48.8508 29.5386 50.5631 28.5586 51.8066C27.5911 53.0341 26.3039 53.9999 24.7178 54C23.1314 54 21.8436 53.0343 20.876 51.8066C19.8959 50.5631 19.0747 48.8508 18.4111 46.8604C17.5752 44.3527 16.9492 41.2798 16.5986 37.8721C16.5289 37.8494 16.4585 37.8296 16.3896 37.8066C14.3992 37.1431 12.6869 36.3219 11.4434 35.3418C10.2159 34.3743 9.2502 33.0871 9.25 31.501C9.25 29.9146 10.2157 28.6268 11.4434 27.6592C12.6869 26.6791 14.3992 25.8579 16.3896 25.1943C16.4583 25.1714 16.5281 25.1505 16.5977 25.1279C16.9482 21.7202 17.5752 18.6473 18.4111 16.1396C19.0747 14.1492 19.8959 12.4369 20.876 11.1934C21.8436 9.96571 23.1314 9 24.7178 9C26.3039 9.00013 27.5911 9.96587 28.5586 11.1934C29.5386 12.4369 30.3599 14.1492 31.0234 16.1396C31.2872 16.931 31.5291 17.7791 31.749 18.6758C31.969 17.7791 32.2108 16.931 32.4746 16.1396C33.1382 14.1492 33.9594 12.4369 34.9395 11.1934C35.907 9.96572 37.1949 9 38.7812 9ZM19.5205 38.6729C19.866 41.4622 20.404 43.9454 21.0791 45.9707C21.688 47.7974 22.3825 49.1742 23.085 50.0654C23.7999 50.9725 24.3624 51.1875 24.7178 51.1875C25.0731 51.1874 25.6349 50.9722 26.3496 50.0654C27.0521 49.1742 27.7465 47.7974 28.3555 45.9707C28.9294 44.2489 29.4022 42.1958 29.7441 39.9053C25.9995 39.7901 22.5086 39.356 19.5205 38.6729ZM43.9775 38.6738C40.9891 39.3569 37.4978 39.7912 33.7529 39.9062C34.0949 42.1964 34.5687 44.2491 35.1426 45.9707C35.7515 47.7974 36.446 49.1742 37.1484 50.0654C37.8634 50.9725 38.4259 51.1875 38.7812 51.1875C39.1366 51.1873 39.6984 50.9722 40.4131 50.0654C41.1155 49.1742 41.81 47.7974 42.4189 45.9707C43.094 43.9456 43.6321 41.4628 43.9775 38.6738ZM30.084 25.8984C25.9825 26.0077 22.2505 26.516 19.2344 27.291C19.1407 28.6461 19.0918 30.0539 19.0918 31.5C19.0918 32.9461 19.1407 34.3539 19.2344 35.709C22.2505 36.484 25.9824 36.9923 30.084 37.1016C30.2507 35.3272 30.3428 33.4485 30.3428 31.5C30.3428 29.5515 30.2507 27.6728 30.084 25.8984ZM33.4131 25.8984C33.2464 27.6728 33.1553 29.5515 33.1553 31.5C33.1553 33.4485 33.2474 35.3272 33.4141 37.1016C37.5151 36.9925 41.2466 36.4847 44.2627 35.71C44.3564 34.3545 44.4062 32.9465 44.4062 31.5C44.4062 30.0535 44.3564 28.6455 44.2627 27.29C41.2464 26.5153 37.5144 26.0075 33.4131 25.8984ZM47.1348 28.1904C47.1903 29.2714 47.2188 30.3767 47.2188 31.5C47.2188 32.6233 47.1903 33.7286 47.1348 34.8096C48.5122 34.2843 49.5797 33.7127 50.3154 33.1328C51.2221 32.4182 51.4373 31.8564 51.4375 31.501C51.4375 31.1456 51.2225 30.5831 50.3154 29.8682C49.5796 29.2883 48.5123 28.7157 47.1348 28.1904ZM16.3633 28.1914C14.9867 28.7165 13.92 29.2885 13.1846 29.8682C12.2775 30.5831 12.0625 31.1456 12.0625 31.501C12.0627 31.8564 12.2779 32.4182 13.1846 33.1328C13.9199 33.7124 14.9868 34.2835 16.3633 34.8086C16.3078 33.728 16.2793 32.623 16.2793 31.5C16.2793 30.377 16.3078 29.272 16.3633 28.1914ZM24.7178 11.8125C24.3624 11.8125 23.7999 12.0275 23.085 12.9346C22.3825 13.8258 21.688 15.2026 21.0791 17.0293C20.404 19.0546 19.865 21.5378 19.5195 24.3271C22.508 23.6438 25.9998 23.2089 29.7451 23.0938C29.4031 20.8036 28.9294 18.7509 28.3555 17.0293C27.7465 15.2026 27.0521 13.8258 26.3496 12.9346C25.6349 12.0278 25.0731 11.8126 24.7178 11.8125ZM38.7812 11.8125C38.4259 11.8125 37.8634 12.0275 37.1484 12.9346C36.446 13.8258 35.7515 15.2026 35.1426 17.0293C34.5687 18.7509 34.0949 20.8036 33.7529 23.0938C37.4978 23.2088 40.9891 23.644 43.9775 24.3271C43.6321 21.5378 43.0941 19.0546 42.4189 17.0293C41.81 15.2026 41.1155 13.8258 40.4131 12.9346C39.6984 12.0278 39.1366 11.8127 38.7812 11.8125Z" fill="black"/>
<defs>
<linearGradient id="paint0_linear_4214_17758" x1="31.75" y1="0" x2="31.75" y2="63" gradientUnits="userSpaceOnUse">
<stop stop-color="#08EDDF"/>
<stop offset="1" stop-color="#CEED8B"/>
</linearGradient>
</defs>
</svg>
