<svg width="157" height="25" viewBox="0 0 157 25" fill="none" xmlns="http://www.w3.org/2000/svg">
<path fill-rule="evenodd" clip-rule="evenodd" d="M6.3227 4.29134C5.6744 6.23612 5.26051 8.97061 5.26051 12.0255C5.26051 15.0804 5.6744 17.8149 6.3227 19.7597C6.64816 20.736 7.01914 21.4719 7.39457 21.9482C7.77669 22.4331 8.07722 22.5478 8.26715 22.5478C8.45708 22.5478 8.75762 22.4331 9.13973 21.9482C9.51517 21.4719 9.88615 20.736 10.2116 19.7597C10.8599 17.8149 11.2738 15.0804 11.2738 12.0255C11.2738 8.97061 10.8599 6.23612 10.2116 4.29134C9.88615 3.31502 9.51517 2.57915 9.13973 2.10279C8.75762 1.61797 8.45708 1.50319 8.26715 1.50319C8.07722 1.50319 7.77669 1.61797 7.39457 2.10279C7.01914 2.57915 6.64816 3.31502 6.3227 4.29134ZM6.21398 1.17232C6.73113 0.516159 7.41928 0 8.26715 0C9.11503 0 9.80318 0.516159 10.3203 1.17232C10.8441 1.83694 11.283 2.7521 11.6376 3.81596C12.3496 5.95154 12.777 8.854 12.777 12.0255C12.777 15.197 12.3496 18.0995 11.6376 20.2351C11.283 21.2989 10.8441 22.2141 10.3203 22.8787C9.80318 23.5349 9.11503 24.051 8.26715 24.051C7.41928 24.051 6.73113 23.5349 6.21398 22.8787C5.69016 22.2141 5.25131 21.2989 4.89666 20.2351C4.18475 18.0995 3.75732 15.197 3.75732 12.0255C3.75732 8.854 4.18475 5.95154 4.89666 3.81596C5.25131 2.7521 5.69016 1.83694 6.21398 1.17232Z" fill="white"/>
<path fill-rule="evenodd" clip-rule="evenodd" d="M13.8386 4.29134C13.1903 6.23612 12.7764 8.97061 12.7764 12.0255C12.7764 15.0804 13.1903 17.8149 13.8386 19.7597C14.164 20.736 14.535 21.4719 14.9104 21.9482C15.2926 22.4331 15.5931 22.5478 15.783 22.5478C15.973 22.5478 16.2735 22.4331 16.6556 21.9482C17.031 21.4719 17.402 20.736 17.7275 19.7597C18.3758 17.8149 18.7897 15.0804 18.7897 12.0255C18.7897 8.97061 18.3758 6.23612 17.7275 4.29134C17.402 3.31502 17.031 2.57915 16.6556 2.10279C16.2735 1.61797 15.973 1.50319 15.783 1.50319C15.5931 1.50319 15.2926 1.61797 14.9104 2.10279C14.535 2.57915 14.164 3.31502 13.8386 4.29134ZM13.7299 1.17232C14.247 0.516159 14.9351 0 15.783 0C16.6309 0 17.319 0.516159 17.8362 1.17232C18.36 1.83694 18.7989 2.7521 19.1535 3.81596C19.8654 5.95154 20.2929 8.854 20.2929 12.0255C20.2929 15.197 19.8654 18.0995 19.1535 20.2351C18.7989 21.2989 18.36 22.2141 17.8362 22.8787C17.319 23.5349 16.6309 24.051 15.783 24.051C14.9351 24.051 14.247 23.5349 13.7299 22.8787C13.206 22.2141 12.7672 21.2989 12.4125 20.2351C11.7006 18.0995 11.2732 15.197 11.2732 12.0255C11.2732 8.854 11.7006 5.95154 12.4125 3.81596C12.7672 2.7521 13.206 1.83694 13.7299 1.17232Z" fill="white"/>
<path fill-rule="evenodd" clip-rule="evenodd" d="M2.10279 11.1529C1.61797 11.535 1.50319 11.8356 1.50319 12.0255C1.50319 12.2154 1.61797 12.516 2.10279 12.8981C2.57915 13.2735 3.31502 13.6445 4.29134 13.97C6.23612 14.6183 8.97061 15.0322 12.0255 15.0322C15.0804 15.0322 17.8149 14.6183 19.7597 13.97C20.736 13.6445 21.4719 13.2735 21.9482 12.8981C22.4331 12.516 22.5478 12.2154 22.5478 12.0255C22.5478 11.8356 22.4331 11.535 21.9482 11.1529C21.4719 10.7775 20.736 10.4065 19.7597 10.0811C17.8149 9.43276 15.0804 9.01887 12.0255 9.01887C8.97061 9.01887 6.23612 9.43276 4.29134 10.0811C3.31502 10.4065 2.57915 10.7775 2.10279 11.1529ZM3.81596 8.65502C5.95154 7.94311 8.854 7.51569 12.0255 7.51569C15.197 7.51569 18.0995 7.94311 20.2351 8.65502C21.2989 9.00967 22.2141 9.44852 22.8787 9.97235C23.5349 10.4895 24.051 11.1776 24.051 12.0255C24.051 12.8734 23.5349 13.5615 22.8787 14.0787C22.2141 14.6025 21.2989 15.0414 20.2351 15.396C18.0995 16.1079 15.197 16.5353 12.0255 16.5353C8.854 16.5353 5.95154 16.1079 3.81596 15.396C2.7521 15.0414 1.83694 14.6025 1.17232 14.0787C0.516159 13.5615 0 12.8734 0 12.0255C0 11.1776 0.516159 10.4895 1.17232 9.97235C1.83694 9.44852 2.7521 9.00967 3.81596 8.65502Z" fill="white"/>
<path d="M130.534 10.2919C130.534 7.88148 129.417 6.77747 126.468 6.77747H118.797V17.2709H121.639V13.788H125.258L127.679 17.2709H131.094L128.252 13.5382C129.853 13.0861 130.534 12.1083 130.534 10.2893V10.2919ZM126.341 11.7087H121.639V8.96973H126.341C127.288 8.96973 127.648 9.21944 127.648 10.3208C127.648 11.4222 127.29 11.7061 126.341 11.7061V11.7087Z" fill="white"/>
<path d="M135.347 6.78015H132.787V15.0235C132.787 16.2615 133.791 17.2657 135.026 17.2657H142.915V14.7028H135.347V6.78015Z" fill="white"/>
<path d="M40.4621 10.7887H34.4689V6.77747H31.5669V17.2709H34.4689V12.9337H40.4621V17.2709H43.3825V6.77747H40.4621V10.7887Z" fill="white"/>
<path d="M52.4408 6.77747H50.2353C46.5868 6.77747 44.6785 8.60961 44.6785 12.0321C44.6785 15.4545 46.5895 17.2709 50.2353 17.2709H52.4408C56.0893 17.2709 57.9976 15.4361 57.9976 12.0321C57.9976 8.62801 56.0866 6.77747 52.4408 6.77747ZM51.9282 15.2048H50.5771C48.093 15.2048 47.5962 13.6802 47.5962 12.0321C47.5962 10.3839 48.093 8.85933 50.5771 8.85933H51.9282C54.5673 8.85933 55.0799 10.3813 55.0799 12.0321C55.0799 13.6828 54.5673 15.2048 51.9282 15.2048Z" fill="white"/>
<path d="M78.0828 6.77747H75.8774C72.2289 6.77747 70.3206 8.61224 70.3206 12.0321C70.3206 15.4519 72.2316 17.2709 75.8774 17.2709H78.0828C81.7314 17.2709 83.6397 15.4361 83.6397 12.0321C83.6397 8.62801 81.734 6.77747 78.0828 6.77747ZM77.5703 15.2048H76.2192C73.7351 15.2048 73.2383 13.6802 73.2383 12.0321C73.2383 10.3839 73.7351 8.85933 76.2192 8.85933H77.5703C80.2094 8.85933 80.722 10.3813 80.722 12.0321C80.722 13.6828 80.2094 15.2048 77.5703 15.2048Z" fill="white"/>
<path d="M111.356 6.77747H109.15C105.502 6.77747 103.594 8.61224 103.594 12.0321C103.594 15.4519 105.505 17.2709 109.15 17.2709H111.356C115.004 17.2709 116.913 15.4361 116.913 12.0321C116.913 8.62801 115.007 6.77747 111.356 6.77747ZM110.843 15.2048H109.492C107.008 15.2048 106.511 13.6802 106.511 12.0321C106.511 10.3839 107.008 8.85933 109.492 8.85933H110.843C113.482 8.85933 113.995 10.3813 113.995 12.0321C113.995 13.6828 113.482 15.2048 110.843 15.2048Z" fill="white"/>
<path d="M62.009 6.78015H59.4487V15.0235C59.4487 16.2615 60.4529 17.2657 61.6883 17.2657H69.5768V14.7028H62.009V6.78015Z" fill="white"/>
<path d="M84.0051 7.02722H86.7704L88.9732 13.7801L91.6991 7.02722H95.4895L98.2154 13.7959L100.408 7.02722H103.173L100.579 15.2916C100.255 16.322 99.2984 17.0238 98.218 17.0238C97.1823 17.0238 96.2571 16.3798 95.897 15.4099L93.5943 9.20634L91.2916 15.4099C90.9315 16.3798 90.0062 17.0238 88.9706 17.0238C87.8902 17.0238 86.936 16.3246 86.6101 15.2942L84.0051 7.02722Z" fill="white"/>
<path d="M144.179 6.76434H151.1C154.05 6.76434 156.189 9.13798 156.189 12.0189C156.189 14.8999 154.05 17.2867 151.1 17.2867H144.179V6.76434ZM149.983 15.2022C152.136 15.2022 153.311 13.7118 153.311 12.0189C153.311 10.3261 152.136 8.85146 149.983 8.85146H146.963V15.2022H149.983Z" fill="white"/>
</svg>
