<svg width="56" height="16" viewBox="0 0 56 16" fill="none" xmlns="http://www.w3.org/2000/svg">
<path fill-rule="evenodd" clip-rule="evenodd" d="M4.20281 2.85482C3.77113 4.14859 3.49554 5.96772 3.49554 8C3.49554 10.0323 3.77113 11.8514 4.20281 13.1452C4.41952 13.7947 4.66653 14.2842 4.91652 14.6011C5.17095 14.9236 5.37107 15 5.49754 15C5.624 15 5.82412 14.9236 6.07855 14.6011C6.32854 14.2842 6.57556 13.7947 6.79227 13.1452C7.22395 11.8514 7.49953 10.0323 7.49953 8C7.49953 5.96772 7.22395 4.14859 6.79227 2.85482C6.57556 2.20533 6.32854 1.71578 6.07855 1.39889C5.82412 1.07636 5.624 1 5.49754 1C5.37107 1 5.17095 1.07636 4.91652 1.39889C4.66653 1.71578 4.41952 2.20533 4.20281 2.85482ZM4.13042 0.779887C4.47476 0.343376 4.93297 0 5.49754 0C6.0621 0 6.52031 0.343376 6.86466 0.779887C7.21345 1.22203 7.50567 1.83084 7.74181 2.53858C8.21584 3.95927 8.50045 5.89014 8.50045 8C8.50045 10.1099 8.21584 12.0407 7.74181 13.4614C7.50567 14.1692 7.21345 14.778 6.86466 15.2201C6.52031 15.6566 6.0621 16 5.49754 16C4.93297 16 4.47476 15.6566 4.13042 15.2201C3.78163 14.778 3.48941 14.1692 3.25327 13.4614C2.77923 12.0407 2.49463 10.1099 2.49463 8C2.49463 5.89014 2.77923 3.95927 3.25327 2.53858C3.48941 1.83084 3.78163 1.22203 4.13042 0.779887Z" fill="#FDFDFD"/>
<path fill-rule="evenodd" clip-rule="evenodd" d="M9.2072 2.85482C8.77552 4.14859 8.49993 5.96772 8.49993 8C8.49993 10.0323 8.77552 11.8514 9.2072 13.1452C9.42391 13.7947 9.67093 14.2842 9.92092 14.6011C10.1753 14.9236 10.3755 15 10.5019 15C10.6284 15 10.8285 14.9236 11.0829 14.6011C11.3329 14.2842 11.58 13.7947 11.7967 13.1452C12.2283 11.8514 12.5039 10.0323 12.5039 8C12.5039 5.96772 12.2283 4.14859 11.7967 2.85482C11.58 2.20533 11.3329 1.71578 11.0829 1.39889C10.8285 1.07636 10.6284 1 10.5019 1C10.3755 1 10.1753 1.07636 9.92092 1.39889C9.67093 1.71578 9.42391 2.20533 9.2072 2.85482ZM9.13481 0.779887C9.47916 0.343376 9.93737 0 10.5019 0C11.0665 0 11.5247 0.343376 11.8691 0.779887C12.2178 1.22203 12.5101 1.83084 12.7462 2.53858C13.2202 3.95927 13.5048 5.89014 13.5048 8C13.5048 10.1099 13.2202 12.0407 12.7462 13.4614C12.5101 14.1692 12.2178 14.778 11.8691 15.2201C11.5247 15.6566 11.0665 16 10.5019 16C9.93737 16 9.47916 15.6566 9.13481 15.2201C8.78602 14.778 8.4938 14.1692 8.25766 13.4614C7.78363 12.0407 7.49902 10.1099 7.49902 8C7.49902 5.89014 7.78363 3.95927 8.25766 2.53858C8.4938 1.83084 8.78602 1.22203 9.13481 0.779887Z" fill="#FDFDFD"/>
<path fill-rule="evenodd" clip-rule="evenodd" d="M1.39284 7.41945C1.07001 7.67365 0.993587 7.87358 0.993587 7.99993C0.993587 8.12628 1.07001 8.32622 1.39284 8.58042C1.71002 8.83018 2.20001 9.07697 2.8501 9.29348C4.14505 9.72477 5.96583 10.0001 7.99996 10.0001C10.0341 10.0001 11.8549 9.72477 13.1498 9.29348C13.7999 9.07697 14.2899 8.83018 14.6071 8.58042C14.9299 8.32622 15.0063 8.12628 15.0063 7.99993C15.0063 7.87358 14.9299 7.67365 14.6071 7.41945C14.2899 7.16968 13.7999 6.92289 13.1498 6.70638C11.8549 6.27509 10.0341 5.99976 7.99996 5.99976C5.96583 5.99976 4.14505 6.27509 2.8501 6.70638C2.20001 6.92289 1.71002 7.16968 1.39284 7.41945ZM2.53356 5.7577C3.95556 5.2841 5.88819 4.99976 7.99996 4.99976C10.1117 4.99976 12.0444 5.2841 13.4664 5.7577C14.1747 5.99363 14.7841 6.28558 15.2267 6.63405C15.6636 6.97809 16.0073 7.43588 16.0073 7.99993C16.0073 8.56398 15.6636 9.02177 15.2267 9.36581C14.7841 9.71428 14.1747 10.0062 13.4664 10.2422C12.0444 10.7158 10.1117 11.0001 7.99996 11.0001C5.88819 11.0001 3.95556 10.7158 2.53356 10.2422C1.82518 10.0062 1.21582 9.71428 0.773273 9.36581C0.336365 9.02177 -0.00732422 8.56398 -0.00732422 7.99993C-0.00732422 7.43588 0.336365 6.97809 0.773273 6.63405C1.21582 6.28558 1.82518 5.99363 2.53356 5.7577Z" fill="#FDFDFD"/>
<path d="M28.4377 6.264L30.2297 3.448H31.467L29.0563 7.02133L31.7977 11H30.4643L28.395 7.82133L26.3683 11H25.067L27.7657 7L25.3337 3.448H26.6243L28.4377 6.264Z" fill="white"/>
<g clip-path="url(#clip0_5338_18332)">
<path d="M52.9033 11.0967L48 16L43.0967 11.0967L44.9033 9.29102L48 12.3877L51.0967 9.29102L52.9033 11.0967ZM43.6152 8L41.8066 9.80664L40 8L41.8066 6.19336L43.6152 8ZM49.8066 8L48 9.80664L46.1934 8L48 6.19336L49.8066 8ZM56 8L54.1943 9.80664L52.3877 8L54.1943 6.19336L56 8ZM52.9033 4.90332L51.0967 6.70996L48 3.6123L44.9033 6.70996L43.0967 4.90332L48 0L52.9033 4.90332Z" fill="white"/>
</g>
<defs>
<clipPath id="clip0_5338_18332">
<rect width="16" height="16" fill="white" transform="translate(40)"/>
</clipPath>
</defs>
</svg>
