<svg viewBox="0 0 16 16" fill="none" xmlns="http://www.w3.org/2000/svg">
<path d="M11.3217 1.60638C12.3867 1.46185 13.3362 2.28842 13.3392 3.36321L13.3431 5.36321C14.0972 5.5097 14.6664 6.17369 14.6664 6.97064V7.65911C14.9482 7.80803 15.1409 8.10324 15.141 8.44427V10.2226L15.1371 10.3134C15.1063 10.6154 14.9227 10.8702 14.6664 11.0058V11.4872L14.6576 11.6757C14.5694 12.5447 13.8781 13.235 13.0092 13.3232L12.8207 13.3329H4.00037L3.72693 13.3193C2.47218 13.1916 1.47457 12.1942 1.34705 10.9394L1.33337 10.6669V4.41302C1.33349 3.6338 1.87335 2.96628 2.61951 2.79388L2.77185 2.76653L11.3217 1.60638ZM2.22205 10.6669C2.22226 11.6486 3.01866 12.4443 4.00037 12.4443H12.8207C13.3492 12.4442 13.7776 12.0158 13.7777 11.4872V11.1113H11.141L11.0502 11.1064C10.6321 11.0638 10.2999 10.7315 10.2572 10.3134L10.2523 10.2226V8.44427C10.2524 7.95352 10.6502 7.55571 11.141 7.5556H13.7777V6.97064C13.7777 6.55738 13.4429 6.22184 13.0297 6.22161H3.09802C2.77884 6.22161 2.48037 6.13546 2.22205 5.98724V10.6669ZM11.141 10.2226H14.2523V8.44427H11.141V10.2226ZM11.4418 2.48626L2.89099 3.64739C2.50805 3.69938 2.22217 4.02659 2.22205 4.41302V4.45794L2.22595 4.54192C2.26559 4.95645 2.59442 5.28694 3.00818 5.32903L3.09802 5.33294H12.4545L12.4496 3.36517C12.448 2.82796 11.9741 2.41424 11.4418 2.48626Z" fill="currentColor"/>
</svg>
