<svg width="16" height="16" viewBox="0 0 16 16" fill="none" xmlns="http://www.w3.org/2000/svg">
<path d="M9.33325 5.33331H2.66659C1.93125 5.33331 1.33325 5.93131 1.33325 6.66665V13.3333C1.33325 14.0686 1.93125 14.6666 2.66659 14.6666H9.33325C10.0686 14.6666 10.6666 14.0686 10.6666 13.3333V6.66665C10.6666 5.93131 10.0686 5.33331 9.33325 5.33331Z" fill="white" fill-opacity="0.48"/>
<path d="M13.3333 1.33331H6.66659C6.31296 1.33331 5.97383 1.47379 5.72378 1.72384C5.47373 1.97389 5.33325 2.31302 5.33325 2.66665V3.99998H10.6666C11.0202 3.99998 11.3593 4.14046 11.6094 4.3905C11.8594 4.64055 11.9999 4.97969 11.9999 5.33331V10.6666H13.3333C13.6869 10.6666 14.026 10.5262 14.2761 10.2761C14.5261 10.0261 14.6666 9.68694 14.6666 9.33331V2.66665C14.6666 2.31302 14.5261 1.97389 14.2761 1.72384C14.026 1.47379 13.6869 1.33331 13.3333 1.33331Z" fill="white" fill-opacity="0.48"/>
</svg>
