<svg width="24" height="24" viewBox="0 0 24 24" fill="none" xmlns="http://www.w3.org/2000/svg">
<path d="M18.8824 3C20.0519 3 21 3.9481 21 5.11765V18.8824C21 19.9789 20.1665 20.8803 19.0985 20.9886L18.8824 21H5.11765L4.90154 20.9886C3.9046 20.8876 3.11245 20.0954 3.01137 19.0985L3 18.8824V5.11765C3 3.9481 3.9481 3 5.11765 3H18.8824ZM4.58824 18.8824C4.58824 19.1747 4.82526 19.4118 5.11765 19.4118H18.8824C19.1747 19.4118 19.4118 19.1747 19.4118 18.8824V8.55882H4.58824V18.8824ZM9.14717 10.0116C9.81087 10.0117 10.3516 10.1737 10.7499 10.4107C10.9773 10.5435 11.1294 10.7425 11.1294 11.0363C11.1293 11.4156 10.8159 11.7094 10.4366 11.7094C10.3133 11.7094 10.18 11.6619 10.0757 11.605C9.77249 11.4345 9.49759 11.3393 9.09961 11.3393C8.27463 11.3393 7.85755 12.0035 7.76264 12.8758C8.09439 12.6578 8.48305 12.4499 9.13683 12.4498C10.4551 12.4498 11.4706 13.1797 11.4706 14.5643V14.583C11.4706 15.9391 10.3798 16.8784 8.9383 16.8784C8.07528 16.8784 7.487 16.6318 7.02229 16.1671C6.53864 15.6834 6.23541 14.9716 6.23541 13.6534V13.6348C6.23542 11.5863 7.16507 10.0116 9.14717 10.0116ZM14.9593 10.0116C16.7136 10.0119 17.899 11.5009 17.899 13.4259V13.4445C17.899 15.3697 16.7132 16.8784 14.9397 16.8784C13.1664 16.8783 12.0001 15.3891 12 13.4642V13.4445C12.0002 11.5195 13.1955 10.0116 14.9593 10.0116ZM8.86179 13.6637C8.14133 13.6639 7.72438 14.0618 7.72438 14.6212V14.6398C7.72438 15.1994 8.16066 15.6263 8.88143 15.6263C9.6021 15.6262 10.0188 15.2181 10.0188 14.6491V14.6305C10.0188 14.071 9.58251 13.6637 8.86179 13.6637ZM14.9397 11.33C14.0673 11.3301 13.4983 12.2121 13.4983 13.4259V13.4445C13.4983 14.6584 14.0773 15.5601 14.9593 15.5601C15.841 15.5598 16.4006 14.6683 16.4007 13.4642V13.4445C16.4006 12.2403 15.8121 11.33 14.9397 11.33ZM5.11765 4.58824C4.82526 4.58824 4.58824 4.82526 4.58824 5.11765V6.97059H19.4118V5.11765C19.4118 4.82526 19.1747 4.58824 18.8824 4.58824H5.11765Z" fill="url(#paint0_linear_4503_465)"/>
<defs>
<linearGradient id="paint0_linear_4503_465" x1="12" y1="3" x2="12" y2="21" gradientUnits="userSpaceOnUse">
<stop stop-color="#08EDDF"/>
<stop offset="1" stop-color="#CEED8B"/>
</linearGradient>
</defs>
</svg>
