<svg width="14" height="14" viewBox="0 0 14 14" fill="none" xmlns="http://www.w3.org/2000/svg">
<path d="M0.461257 6.7865C0.461283 6.60973 0.531519 6.4402 0.656518 6.3152C0.781518 6.1902 0.951046 6.11996 1.12782 6.11994L6.11811 6.11994L6.11811 1.12965C6.11657 1.04114 6.13268 0.95321 6.16548 0.870991C6.19829 0.788771 6.24714 0.713909 6.30919 0.650773C6.37124 0.587636 6.44524 0.53749 6.52688 0.503258C6.60852 0.469027 6.69615 0.451397 6.78468 0.451397C6.8732 0.451397 6.96084 0.469026 7.04247 0.503258C7.12411 0.537489 7.19811 0.587636 7.26016 0.650773C7.32221 0.713909 7.37106 0.788772 7.40387 0.870991C7.43668 0.95321 7.45278 1.04114 7.45124 1.12965L7.45124 6.11994L12.4415 6.11994C12.6163 6.12297 12.7829 6.19454 12.9054 6.31921C13.028 6.44389 13.0966 6.6117 13.0966 6.7865C13.0966 6.96131 13.028 7.12912 12.9054 7.25379C12.7829 7.37847 12.6163 7.45003 12.4415 7.45307L7.45124 7.45307L7.45124 12.4434C7.44821 12.6181 7.37664 12.7847 7.25197 12.9073C7.12729 13.0298 6.95948 13.0984 6.78468 13.0984C6.60987 13.0984 6.44206 13.0298 6.31739 12.9073C6.19271 12.7847 6.12115 12.6181 6.11811 12.4434L6.11811 7.45307L1.12782 7.45307C0.951046 7.45304 0.781518 7.38281 0.656519 7.25781C0.531519 7.13281 0.461283 6.96328 0.461257 6.7865Z" fill="currentColor"/>
</svg>
