<svg width="16" height="16" viewBox="0 0 16 16" fill="none" xmlns="http://www.w3.org/2000/svg">
<g clip-path="url(#clip0_3288_14929)">
<path d="M12.9033 11.0967L8 16L3.09668 11.0967L4.90332 9.29102L8 12.3877L11.0967 9.29102L12.9033 11.0967ZM3.61523 8L1.80664 9.80664L0 8L1.80664 6.19336L3.61523 8ZM9.80664 8L8 9.80664L6.19336 8L8 6.19336L9.80664 8ZM16 8L14.1943 9.80664L12.3877 8L14.1943 6.19336L16 8ZM12.9033 4.90332L11.0967 6.70996L8 3.6123L4.90332 6.70996L3.09668 4.90332L8 0L12.9033 4.90332Z" fill="currentColor"/>
</g>
<defs>
<clipPath id="clip0_3288_14929">
<rect width="16" height="16" fill="white"/>
</clipPath>
</defs>
</svg>
