<svg width="1014" height="64" viewBox="0 0 1014 64" fill="none" xmlns="http://www.w3.org/2000/svg">
<rect width="2.7292" height="16.3752" rx="1.3646" transform="matrix(1 0 0 -1 16.5 16.3752)" fill="white" fill-opacity="0.12"/>
<rect width="2.7292" height="8.18761" rx="1.3646" transform="matrix(1 0 0 -1 39.2295 12.2815)" fill="white" fill-opacity="0.12"/>
<rect width="2.7292" height="8.18761" rx="1.3646" transform="matrix(1 0 0 -1 61.958 12.2815)" fill="white" fill-opacity="0.12"/>
<rect width="2.7292" height="8.18761" rx="1.3646" transform="matrix(1 0 0 -1 84.6875 12.2815)" fill="white" fill-opacity="0.12"/>
<rect width="2.7292" height="8.18761" rx="1.3646" transform="matrix(1 0 0 -1 107.417 12.2815)" fill="white" fill-opacity="0.12"/>
<rect width="2.7292" height="8.18761" rx="1.3646" transform="matrix(1 0 0 -1 130.146 12.2815)" fill="white" fill-opacity="0.12"/>
<rect width="2.7292" height="8.18761" rx="1.3646" transform="matrix(1 0 0 -1 152.875 12.2815)" fill="white" fill-opacity="0.12"/>
<rect width="2.7292" height="16.3752" rx="1.3646" transform="matrix(1 0 0 -1 175.604 16.3752)" fill="white" fill-opacity="0.12"/>
<rect width="2.7292" height="8.18761" rx="1.3646" transform="matrix(1 0 0 -1 198.334 12.2815)" fill="white" fill-opacity="0.12"/>
<rect width="2.7292" height="8.18761" rx="1.3646" transform="matrix(1 0 0 -1 221.062 12.2815)" fill="white" fill-opacity="0.12"/>
<rect width="2.7292" height="8.18761" rx="1.3646" transform="matrix(1 0 0 -1 243.792 12.2815)" fill="white" fill-opacity="0.12"/>
<rect width="2.7292" height="8.18761" rx="1.3646" transform="matrix(1 0 0 -1 266.521 12.2815)" fill="white" fill-opacity="0.12"/>
<rect width="2.7292" height="8.18761" rx="1.3646" transform="matrix(1 0 0 -1 289.25 12.2815)" fill="white" fill-opacity="0.12"/>
<rect width="2.7292" height="8.18761" rx="1.3646" transform="matrix(1 0 0 -1 311.979 12.2815)" fill="white" fill-opacity="0.12"/>
<rect width="2.7292" height="16.3752" rx="1.3646" transform="matrix(1 0 0 -1 334.709 16.3752)" fill="white" fill-opacity="0.12"/>
<rect width="2.7292" height="8.18761" rx="1.3646" transform="matrix(1 0 0 -1 357.438 12.2815)" fill="white" fill-opacity="0.12"/>
<rect width="2.7292" height="8.18761" rx="1.3646" transform="matrix(1 0 0 -1 380.167 12.2815)" fill="white" fill-opacity="0.12"/>
<rect width="2.7292" height="8.18761" rx="1.3646" transform="matrix(1 0 0 -1 402.896 12.2815)" fill="white" fill-opacity="0.12"/>
<rect width="2.7292" height="8.18761" rx="1.3646" transform="matrix(1 0 0 -1 425.626 12.2815)" fill="white" fill-opacity="0.12"/>
<rect width="2.7292" height="8.18761" rx="1.3646" transform="matrix(1 0 0 -1 448.355 12.2815)" fill="white" fill-opacity="0.12"/>
<rect width="2.7292" height="8.18761" rx="1.3646" transform="matrix(1 0 0 -1 471.084 12.2815)" fill="white" fill-opacity="0.12"/>
<rect width="2.7292" height="16.3752" rx="1.3646" transform="matrix(1 0 0 -1 493.813 16.3752)" fill="white" fill-opacity="0.12"/>
<rect width="2.7292" height="8.18761" rx="1.3646" transform="matrix(1 0 0 -1 516.543 12.2815)" fill="white" fill-opacity="0.12"/>
<rect width="2.7292" height="8.18761" rx="1.3646" transform="matrix(1 0 0 -1 539.271 12.2815)" fill="white" fill-opacity="0.12"/>
<rect width="2.7292" height="8.18761" rx="1.3646" transform="matrix(1 0 0 -1 562.001 12.2815)" fill="white" fill-opacity="0.12"/>
<rect width="2.7292" height="8.18761" rx="1.3646" transform="matrix(1 0 0 -1 584.73 12.2815)" fill="white" fill-opacity="0.12"/>
<rect width="2.7292" height="8.18761" rx="1.3646" transform="matrix(1 0 0 -1 607.459 12.2815)" fill="white" fill-opacity="0.12"/>
<rect width="2.7292" height="8.18761" rx="1.3646" transform="matrix(1 0 0 -1 630.188 12.2815)" fill="white" fill-opacity="0.12"/>
<rect width="2.7292" height="16.3752" rx="1.3646" transform="matrix(1 0 0 -1 652.918 16.3752)" fill="white" fill-opacity="0.12"/>
<rect width="2.7292" height="8.18761" rx="1.3646" transform="matrix(1 0 0 -1 675.646 12.2815)" fill="white" fill-opacity="0.12"/>
<rect width="2.7292" height="8.18761" rx="1.3646" transform="matrix(1 0 0 -1 698.376 12.2815)" fill="white" fill-opacity="0.12"/>
<rect width="2.7292" height="8.18761" rx="1.3646" transform="matrix(1 0 0 -1 721.105 12.2815)" fill="white" fill-opacity="0.12"/>
<rect width="2.7292" height="8.18761" rx="1.3646" transform="matrix(1 0 0 -1 743.835 12.2815)" fill="white" fill-opacity="0.12"/>
<rect width="2.7292" height="8.18761" rx="1.3646" transform="matrix(1 0 0 -1 766.563 12.2815)" fill="white" fill-opacity="0.12"/>
<rect width="2.7292" height="8.18761" rx="1.3646" transform="matrix(1 0 0 -1 789.293 12.2815)" fill="white" fill-opacity="0.12"/>
<rect width="2.7292" height="16.3752" rx="1.3646" transform="matrix(1 0 0 -1 812.022 16.3752)" fill="white" fill-opacity="0.12"/>
<rect width="2.7292" height="8.18761" rx="1.3646" transform="matrix(1 0 0 -1 834.751 12.2815)" fill="white" fill-opacity="0.12"/>
<rect width="2.7292" height="8.18761" rx="1.3646" transform="matrix(1 0 0 -1 857.48 12.2815)" fill="white" fill-opacity="0.12"/>
<rect width="2.7292" height="8.18761" rx="1.3646" transform="matrix(1 0 0 -1 880.21 12.2815)" fill="white" fill-opacity="0.12"/>
<rect width="2.7292" height="8.18761" rx="1.3646" transform="matrix(1 0 0 -1 902.938 12.2815)" fill="white" fill-opacity="0.12"/>
<rect width="2.7292" height="8.18761" rx="1.3646" transform="matrix(1 0 0 -1 925.668 12.2815)" fill="white" fill-opacity="0.12"/>
<rect width="2.7292" height="8.18761" rx="1.3646" transform="matrix(1 0 0 -1 948.397 12.2815)" fill="white" fill-opacity="0.12"/>
<rect width="2.7292" height="16.3752" rx="1.3646" transform="matrix(1 0 0 -1 971.126 16.3752)" fill="white" fill-opacity="0.12"/>
<path d="M9.10075 28.824H6.49675V27.504H13.2167V28.824H10.6127V36H9.10075V28.824ZM20.8018 35.556C20.3698 35.764 19.8938 35.924 19.3738 36.036C18.8618 36.156 18.2698 36.216 17.5978 36.216C16.9098 36.216 16.2818 36.108 15.7138 35.892C15.1458 35.668 14.6578 35.36 14.2498 34.968C13.8418 34.568 13.5218 34.096 13.2898 33.552C13.0658 33 12.9538 32.392 12.9538 31.728C12.9538 31.048 13.0698 30.436 13.3018 29.892C13.5418 29.34 13.8658 28.872 14.2738 28.488C14.6898 28.104 15.1778 27.808 15.7378 27.6C16.2978 27.392 16.9058 27.288 17.5618 27.288C18.2418 27.288 18.8618 27.388 19.4218 27.588C19.9898 27.78 20.4458 28.036 20.7898 28.356L19.7458 29.484C19.5298 29.244 19.2258 29.04 18.8338 28.872C18.4498 28.704 18.0298 28.62 17.5738 28.62C17.1258 28.62 16.7178 28.7 16.3498 28.86C15.9898 29.02 15.6818 29.24 15.4258 29.52C15.1698 29.8 14.9698 30.128 14.8258 30.504C14.6898 30.88 14.6218 31.288 14.6218 31.728C14.6218 32.184 14.6898 32.604 14.8258 32.988C14.9698 33.364 15.1698 33.692 15.4258 33.972C15.6898 34.252 16.0058 34.472 16.3738 34.632C16.7498 34.784 17.1738 34.86 17.6458 34.86C18.2938 34.86 18.8578 34.76 19.3378 34.56V32.4H17.5498V31.152H20.8018V35.556ZM22.163 27.504H27.791V28.824H23.675V30.984H27.575V32.256H23.675V34.656H28.007V36H22.163V27.504Z" fill="white"/>
<path d="M4.32887 52.328H4.84087C5.12887 52.328 5.41154 52.3067 5.68887 52.264C5.97687 52.2107 6.23821 52.12 6.47287 51.992C6.70754 51.864 6.89421 51.6933 7.03287 51.48C7.18221 51.256 7.25687 50.968 7.25687 50.616C7.25687 50.36 7.20887 50.1307 7.11287 49.928C7.01687 49.7253 6.88354 49.5547 6.71287 49.416C6.55287 49.2773 6.36087 49.1707 6.13687 49.096C5.92354 49.0213 5.69954 48.984 5.46487 48.984C4.99554 48.984 4.60621 49.1173 4.29687 49.384C3.98754 49.6507 3.77421 50.0027 3.65687 50.44L1.84887 49.976C1.94487 49.592 2.10487 49.2453 2.32887 48.936C2.56354 48.616 2.84087 48.344 3.16087 48.12C3.49154 47.8853 3.85954 47.704 4.26487 47.576C4.67021 47.448 5.09687 47.384 5.54487 47.384C6.03554 47.384 6.49954 47.4533 6.93687 47.592C7.38487 47.72 7.77421 47.9173 8.10487 48.184C8.44621 48.44 8.71287 48.76 8.90487 49.144C9.09687 49.528 9.19287 49.976 9.19287 50.488C9.19287 51.096 9.00621 51.64 8.63287 52.12C8.27021 52.5893 7.77954 52.8987 7.16087 53.048V53.08C7.85421 53.2187 8.41421 53.5333 8.84087 54.024C9.27821 54.504 9.49687 55.096 9.49687 55.8C9.49687 56.3867 9.37954 56.8987 9.14487 57.336C8.92087 57.7733 8.61687 58.136 8.23287 58.424C7.85954 58.712 7.43821 58.9253 6.96887 59.064C6.49954 59.2133 6.02487 59.288 5.54487 59.288C5.06487 59.288 4.61154 59.2347 4.18487 59.128C3.75821 59.032 3.36354 58.8773 3.00087 58.664C2.64887 58.4507 2.33421 58.1733 2.05687 57.832C1.79021 57.4907 1.58221 57.0853 1.43287 56.616L3.22487 56.056C3.36354 56.504 3.61954 56.8827 3.99287 57.192C4.37687 57.5013 4.87287 57.656 5.48087 57.656C5.72621 57.656 5.97154 57.624 6.21687 57.56C6.47287 57.4853 6.69687 57.3733 6.88887 57.224C7.09154 57.0747 7.25154 56.8827 7.36887 56.648C7.49687 56.4133 7.56087 56.1253 7.56087 55.784C7.56087 55.4213 7.47021 55.1173 7.28887 54.872C7.11821 54.616 6.89954 54.4187 6.63287 54.28C6.36621 54.1307 6.06754 54.024 5.73687 53.96C5.41687 53.896 5.10754 53.864 4.80887 53.864H4.32887V52.328ZM18.9425 53.336C18.9425 54.2533 18.8518 55.08 18.6705 55.816C18.4998 56.552 18.2438 57.176 17.9025 57.688C17.5718 58.2 17.1558 58.5947 16.6545 58.872C16.1638 59.1493 15.5985 59.288 14.9585 59.288C14.3185 59.288 13.7478 59.1493 13.2465 58.872C12.7452 58.5947 12.3238 58.2 11.9825 57.688C11.6412 57.176 11.3798 56.552 11.1985 55.816C11.0278 55.08 10.9425 54.2533 10.9425 53.336C10.9425 52.4187 11.0278 51.592 11.1985 50.856C11.3798 50.12 11.6412 49.496 11.9825 48.984C12.3238 48.472 12.7452 48.0773 13.2465 47.8C13.7478 47.5227 14.3185 47.384 14.9585 47.384C15.5985 47.384 16.1638 47.5227 16.6545 47.8C17.1558 48.0773 17.5718 48.472 17.9025 48.984C18.2438 49.496 18.4998 50.12 18.6705 50.856C18.8518 51.592 18.9425 52.4187 18.9425 53.336ZM16.9745 53.336C16.9745 52.9413 16.9478 52.4933 16.8945 51.992C16.8518 51.4907 16.7558 51.016 16.6065 50.568C16.4678 50.12 16.2652 49.7467 15.9985 49.448C15.7318 49.1387 15.3852 48.984 14.9585 48.984C14.5212 48.984 14.1692 49.1387 13.9025 49.448C13.6358 49.7467 13.4278 50.12 13.2785 50.568C13.1398 51.016 13.0438 51.4907 12.9905 51.992C12.9372 52.4933 12.9105 52.9413 12.9105 53.336C12.9105 53.7307 12.9372 54.1787 12.9905 54.68C13.0438 55.1813 13.1398 55.6507 13.2785 56.088C13.4278 56.5253 13.6358 56.8987 13.9025 57.208C14.1692 57.5067 14.5212 57.656 14.9585 57.656C15.3852 57.656 15.7318 57.5067 15.9985 57.208C16.2652 56.8987 16.4678 56.5253 16.6065 56.088C16.7558 55.6507 16.8518 55.1813 16.8945 54.68C16.9478 54.1787 16.9745 53.7307 16.9745 53.336ZM27.4761 56.216C27.4761 55.8 27.5508 55.416 27.7001 55.064C27.8601 54.7013 28.0735 54.3867 28.3401 54.12C28.6175 53.8427 28.9321 53.6293 29.2841 53.48C29.6468 53.32 30.0361 53.24 30.4521 53.24C30.8681 53.24 31.2521 53.32 31.6041 53.48C31.9668 53.6293 32.2815 53.8427 32.5481 54.12C32.8255 54.3867 33.0388 54.7013 33.1881 55.064C33.3481 55.416 33.4281 55.8 33.4281 56.216C33.4281 56.632 33.3481 57.0213 33.1881 57.384C33.0388 57.736 32.8255 58.0507 32.5481 58.328C32.2815 58.5947 31.9668 58.808 31.6041 58.968C31.2521 59.1173 30.8681 59.192 30.4521 59.192C30.0361 59.192 29.6468 59.1173 29.2841 58.968C28.9321 58.808 28.6175 58.5947 28.3401 58.328C28.0735 58.0507 27.8601 57.736 27.7001 57.384C27.5508 57.0213 27.4761 56.632 27.4761 56.216ZM31.8921 56.216C31.8921 55.8107 31.7535 55.4693 31.4761 55.192C31.1988 54.9147 30.8575 54.776 30.4521 54.776C30.0468 54.776 29.7055 54.9147 29.4281 55.192C29.1508 55.4693 29.0121 55.8107 29.0121 56.216C29.0121 56.6213 29.1508 56.9627 29.4281 57.24C29.7055 57.5173 30.0468 57.656 30.4521 57.656C30.8575 57.656 31.1988 57.5173 31.4761 57.24C31.7535 56.9627 31.8921 56.6213 31.8921 56.216ZM19.8281 50.456C19.8281 50.04 19.9028 49.656 20.0521 49.304C20.2121 48.9413 20.4255 48.6267 20.6921 48.36C20.9695 48.0827 21.2841 47.8693 21.6361 47.72C21.9988 47.56 22.3881 47.48 22.8041 47.48C23.2201 47.48 23.6041 47.56 23.9561 47.72C24.3188 47.8693 24.6335 48.0827 24.9001 48.36C25.1775 48.6267 25.3908 48.9413 25.5401 49.304C25.7001 49.656 25.7801 50.04 25.7801 50.456C25.7801 50.872 25.7001 51.2613 25.5401 51.624C25.3908 51.976 25.1775 52.2907 24.9001 52.568C24.6335 52.8347 24.3188 53.048 23.9561 53.208C23.6041 53.3573 23.2201 53.432 22.8041 53.432C22.3881 53.432 21.9988 53.3573 21.6361 53.208C21.2841 53.048 20.9695 52.8347 20.6921 52.568C20.4255 52.2907 20.2121 51.976 20.0521 51.624C19.9028 51.2613 19.8281 50.872 19.8281 50.456ZM24.2441 50.456C24.2441 50.0507 24.1055 49.7093 23.8281 49.432C23.5508 49.1547 23.2095 49.016 22.8041 49.016C22.3988 49.016 22.0575 49.1547 21.7801 49.432C21.5028 49.7093 21.3641 50.0507 21.3641 50.456C21.3641 50.8613 21.5028 51.2027 21.7801 51.48C22.0575 51.7573 22.3988 51.896 22.8041 51.896C23.2095 51.896 23.5508 51.7573 23.8281 51.48C24.1055 51.2027 24.2441 50.8613 24.2441 50.456ZM29.2841 47.16L30.6121 47.768L23.9561 59.512L22.6281 58.904L29.2841 47.16Z" fill="url(#paint0_linear_4503_396)"/>
<path d="M318.343 31.728C318.343 31.048 318.455 30.436 318.679 29.892C318.911 29.34 319.227 28.872 319.627 28.488C320.035 28.104 320.515 27.808 321.067 27.6C321.627 27.392 322.235 27.288 322.891 27.288C323.555 27.288 324.167 27.392 324.727 27.6C325.287 27.808 325.771 28.104 326.179 28.488C326.587 28.872 326.903 29.34 327.127 29.892C327.359 30.436 327.475 31.048 327.475 31.728C327.475 32.392 327.359 33 327.127 33.552C326.903 34.096 326.587 34.568 326.179 34.968C325.771 35.36 325.287 35.668 324.727 35.892C324.167 36.108 323.555 36.216 322.891 36.216C322.235 36.216 321.627 36.108 321.067 35.892C320.515 35.668 320.035 35.36 319.627 34.968C319.227 34.568 318.911 34.096 318.679 33.552C318.455 33 318.343 32.392 318.343 31.728ZM319.987 31.728C319.987 32.184 320.055 32.604 320.191 32.988C320.335 33.364 320.535 33.692 320.791 33.972C321.055 34.252 321.363 34.472 321.715 34.632C322.075 34.784 322.471 34.86 322.903 34.86C323.335 34.86 323.731 34.784 324.091 34.632C324.451 34.472 324.759 34.252 325.015 33.972C325.279 33.692 325.479 33.364 325.615 32.988C325.759 32.604 325.831 32.184 325.831 31.728C325.831 31.288 325.759 30.88 325.615 30.504C325.479 30.128 325.283 29.8 325.027 29.52C324.771 29.24 324.463 29.02 324.103 28.86C323.743 28.7 323.343 28.62 322.903 28.62C322.463 28.62 322.063 28.7 321.703 28.86C321.351 29.02 321.047 29.24 320.791 29.52C320.535 29.8 320.335 30.128 320.191 30.504C320.055 30.88 319.987 31.288 319.987 31.728ZM332.319 31.836C332.207 31.676 332.039 31.544 331.815 31.44C331.591 31.328 331.363 31.272 331.131 31.272C330.867 31.272 330.635 31.328 330.435 31.44C330.235 31.544 330.067 31.684 329.931 31.86C329.803 32.036 329.707 32.236 329.643 32.46C329.579 32.676 329.547 32.896 329.547 33.12C329.547 33.344 329.579 33.568 329.643 33.792C329.715 34.008 329.819 34.204 329.955 34.38C330.091 34.556 330.259 34.7 330.459 34.812C330.667 34.916 330.907 34.968 331.179 34.968C331.403 34.968 331.627 34.924 331.851 34.836C332.075 34.748 332.255 34.62 332.391 34.452L333.291 35.364C333.051 35.62 332.743 35.82 332.367 35.964C331.999 36.1 331.599 36.168 331.167 36.168C330.743 36.168 330.339 36.1 329.955 35.964C329.579 35.828 329.247 35.628 328.959 35.364C328.679 35.1 328.455 34.78 328.287 34.404C328.127 34.028 328.047 33.6 328.047 33.12C328.047 32.656 328.127 32.236 328.287 31.86C328.455 31.484 328.679 31.164 328.959 30.9C329.239 30.636 329.563 30.432 329.931 30.288C330.307 30.144 330.707 30.072 331.131 30.072C331.555 30.072 331.963 30.152 332.355 30.312C332.755 30.472 333.071 30.692 333.303 30.972L332.319 31.836ZM332.934 31.392V30.24H333.942V28.572H335.358V30.24H336.798V31.392H335.358V34.068C335.358 34.324 335.402 34.536 335.49 34.704C335.586 34.872 335.794 34.956 336.114 34.956C336.21 34.956 336.314 34.948 336.426 34.932C336.538 34.908 336.638 34.876 336.726 34.836L336.774 35.964C336.646 36.012 336.494 36.048 336.318 36.072C336.142 36.104 335.974 36.12 335.814 36.12C335.43 36.12 335.118 36.068 334.878 35.964C334.638 35.852 334.446 35.704 334.302 35.52C334.166 35.328 334.07 35.112 334.014 34.872C333.966 34.624 333.942 34.36 333.942 34.08V31.392H332.934ZM342.364 29.256L340.684 30.636L339.844 29.64L342.496 27.504H343.804V36H342.364V29.256ZM349.209 29.256L347.529 30.636L346.689 29.64L349.341 27.504H350.649V36H349.209V29.256Z" fill="white"/>
<path d="M323.401 50.008L321.161 51.848L320.041 50.52L323.577 47.672H325.321V59H323.401V50.008ZM329.166 57.24L333.534 52.952C333.886 52.6107 334.164 52.2693 334.366 51.928C334.58 51.576 334.686 51.176 334.686 50.728C334.686 50.1947 334.51 49.7733 334.158 49.464C333.817 49.144 333.39 48.984 332.878 48.984C332.334 48.984 331.897 49.1707 331.566 49.544C331.236 49.9067 331.033 50.3653 330.958 50.92L329.086 50.632C329.14 50.1627 329.273 49.7307 329.486 49.336C329.7 48.9413 329.972 48.6 330.302 48.312C330.633 48.024 331.017 47.8 331.454 47.64C331.902 47.4693 332.388 47.384 332.91 47.384C333.401 47.384 333.87 47.4533 334.318 47.592C334.777 47.7307 335.182 47.944 335.534 48.232C335.886 48.5093 336.164 48.856 336.366 49.272C336.58 49.6773 336.686 50.152 336.686 50.696C336.686 51.0587 336.638 51.4 336.542 51.72C336.446 52.0293 336.313 52.3227 336.142 52.6C335.982 52.8773 335.79 53.144 335.566 53.4C335.353 53.6453 335.118 53.8853 334.862 54.12L331.598 57.24H336.702V59H329.166V57.24ZM345.476 56.216C345.476 55.8 345.551 55.416 345.7 55.064C345.86 54.7013 346.073 54.3867 346.34 54.12C346.617 53.8427 346.932 53.6293 347.284 53.48C347.647 53.32 348.036 53.24 348.452 53.24C348.868 53.24 349.252 53.32 349.604 53.48C349.967 53.6293 350.281 53.8427 350.548 54.12C350.825 54.3867 351.039 54.7013 351.188 55.064C351.348 55.416 351.428 55.8 351.428 56.216C351.428 56.632 351.348 57.0213 351.188 57.384C351.039 57.736 350.825 58.0507 350.548 58.328C350.281 58.5947 349.967 58.808 349.604 58.968C349.252 59.1173 348.868 59.192 348.452 59.192C348.036 59.192 347.647 59.1173 347.284 58.968C346.932 58.808 346.617 58.5947 346.34 58.328C346.073 58.0507 345.86 57.736 345.7 57.384C345.551 57.0213 345.476 56.632 345.476 56.216ZM349.892 56.216C349.892 55.8107 349.753 55.4693 349.476 55.192C349.199 54.9147 348.857 54.776 348.452 54.776C348.047 54.776 347.705 54.9147 347.428 55.192C347.151 55.4693 347.012 55.8107 347.012 56.216C347.012 56.6213 347.151 56.9627 347.428 57.24C347.705 57.5173 348.047 57.656 348.452 57.656C348.857 57.656 349.199 57.5173 349.476 57.24C349.753 56.9627 349.892 56.6213 349.892 56.216ZM337.828 50.456C337.828 50.04 337.903 49.656 338.052 49.304C338.212 48.9413 338.425 48.6267 338.692 48.36C338.969 48.0827 339.284 47.8693 339.636 47.72C339.999 47.56 340.388 47.48 340.804 47.48C341.22 47.48 341.604 47.56 341.956 47.72C342.319 47.8693 342.633 48.0827 342.9 48.36C343.177 48.6267 343.391 48.9413 343.54 49.304C343.7 49.656 343.78 50.04 343.78 50.456C343.78 50.872 343.7 51.2613 343.54 51.624C343.391 51.976 343.177 52.2907 342.9 52.568C342.633 52.8347 342.319 53.048 341.956 53.208C341.604 53.3573 341.22 53.432 340.804 53.432C340.388 53.432 339.999 53.3573 339.636 53.208C339.284 53.048 338.969 52.8347 338.692 52.568C338.425 52.2907 338.212 51.976 338.052 51.624C337.903 51.2613 337.828 50.872 337.828 50.456ZM342.244 50.456C342.244 50.0507 342.105 49.7093 341.828 49.432C341.551 49.1547 341.209 49.016 340.804 49.016C340.399 49.016 340.057 49.1547 339.78 49.432C339.503 49.7093 339.364 50.0507 339.364 50.456C339.364 50.8613 339.503 51.2027 339.78 51.48C340.057 51.7573 340.399 51.896 340.804 51.896C341.209 51.896 341.551 51.7573 341.828 51.48C342.105 51.2027 342.244 50.8613 342.244 50.456ZM347.284 47.16L348.612 47.768L341.956 59.512L340.628 58.904L347.284 47.16Z" fill="url(#paint1_linear_4503_396)"/>
<path d="M635.855 27.504H638.867C639.419 27.504 639.975 27.576 640.535 27.72C641.095 27.864 641.599 28.104 642.047 28.44C642.495 28.768 642.859 29.204 643.139 29.748C643.419 30.284 643.559 30.952 643.559 31.752C643.559 32.496 643.419 33.136 643.139 33.672C642.859 34.208 642.495 34.648 642.047 34.992C641.599 35.336 641.095 35.592 640.535 35.76C639.975 35.92 639.419 36 638.867 36H635.855V27.504ZM638.627 34.68C639.019 34.68 639.411 34.636 639.803 34.548C640.195 34.452 640.547 34.296 640.859 34.08C641.179 33.856 641.439 33.556 641.639 33.18C641.839 32.804 641.939 32.328 641.939 31.752C641.939 31.144 641.839 30.648 641.639 30.264C641.439 29.88 641.179 29.58 640.859 29.364C640.547 29.148 640.195 29 639.803 28.92C639.411 28.84 639.019 28.8 638.627 28.8H637.367V34.68H638.627ZM648.523 32.544C648.523 32.36 648.495 32.184 648.439 32.016C648.391 31.848 648.311 31.7 648.199 31.572C648.087 31.444 647.943 31.344 647.767 31.272C647.599 31.192 647.399 31.152 647.167 31.152C646.735 31.152 646.367 31.284 646.063 31.548C645.767 31.804 645.603 32.136 645.571 32.544H648.523ZM649.963 33.192C649.963 33.256 649.963 33.32 649.963 33.384C649.963 33.448 649.959 33.512 649.951 33.576H645.571C645.587 33.784 645.639 33.976 645.727 34.152C645.823 34.32 645.947 34.468 646.099 34.596C646.251 34.716 646.423 34.812 646.615 34.884C646.807 34.956 647.007 34.992 647.215 34.992C647.575 34.992 647.879 34.928 648.127 34.8C648.375 34.664 648.579 34.48 648.739 34.248L649.699 35.016C649.131 35.784 648.307 36.168 647.227 36.168C646.779 36.168 646.367 36.1 645.991 35.964C645.615 35.82 645.287 35.62 645.007 35.364C644.735 35.108 644.519 34.796 644.359 34.428C644.207 34.052 644.131 33.628 644.131 33.156C644.131 32.692 644.207 32.272 644.359 31.896C644.519 31.512 644.735 31.188 645.007 30.924C645.279 30.652 645.599 30.444 645.967 30.3C646.343 30.148 646.747 30.072 647.179 30.072C647.579 30.072 647.947 30.14 648.283 30.276C648.627 30.404 648.923 30.6 649.171 30.864C649.419 31.12 649.611 31.444 649.747 31.836C649.891 32.22 649.963 32.672 649.963 33.192ZM654.813 31.836C654.701 31.676 654.533 31.544 654.309 31.44C654.085 31.328 653.857 31.272 653.625 31.272C653.361 31.272 653.129 31.328 652.929 31.44C652.729 31.544 652.561 31.684 652.425 31.86C652.297 32.036 652.201 32.236 652.137 32.46C652.073 32.676 652.041 32.896 652.041 33.12C652.041 33.344 652.073 33.568 652.137 33.792C652.209 34.008 652.313 34.204 652.449 34.38C652.585 34.556 652.753 34.7 652.953 34.812C653.161 34.916 653.401 34.968 653.673 34.968C653.897 34.968 654.121 34.924 654.345 34.836C654.569 34.748 654.749 34.62 654.885 34.452L655.785 35.364C655.545 35.62 655.237 35.82 654.861 35.964C654.493 36.1 654.093 36.168 653.661 36.168C653.237 36.168 652.833 36.1 652.449 35.964C652.073 35.828 651.741 35.628 651.453 35.364C651.173 35.1 650.949 34.78 650.781 34.404C650.621 34.028 650.541 33.6 650.541 33.12C650.541 32.656 650.621 32.236 650.781 31.86C650.949 31.484 651.173 31.164 651.453 30.9C651.733 30.636 652.057 30.432 652.425 30.288C652.801 30.144 653.201 30.072 653.625 30.072C654.049 30.072 654.457 30.152 654.849 30.312C655.249 30.472 655.565 30.692 655.797 30.972L654.813 31.836ZM661.261 29.256L659.581 30.636L658.741 29.64L661.393 27.504H662.701V36H661.261V29.256ZM668.105 29.256L666.425 30.636L665.585 29.64L668.237 27.504H669.545V36H668.105V29.256Z" fill="white"/>
<path d="M641.401 50.008L639.161 51.848L638.041 50.52L641.577 47.672H643.321V59H641.401V50.008ZM647.166 57.24L651.534 52.952C651.886 52.6107 652.164 52.2693 652.366 51.928C652.58 51.576 652.686 51.176 652.686 50.728C652.686 50.1947 652.51 49.7733 652.158 49.464C651.817 49.144 651.39 48.984 650.878 48.984C650.334 48.984 649.897 49.1707 649.566 49.544C649.236 49.9067 649.033 50.3653 648.958 50.92L647.086 50.632C647.14 50.1627 647.273 49.7307 647.486 49.336C647.7 48.9413 647.972 48.6 648.302 48.312C648.633 48.024 649.017 47.8 649.454 47.64C649.902 47.4693 650.388 47.384 650.91 47.384C651.401 47.384 651.87 47.4533 652.318 47.592C652.777 47.7307 653.182 47.944 653.534 48.232C653.886 48.5093 654.164 48.856 654.366 49.272C654.58 49.6773 654.686 50.152 654.686 50.696C654.686 51.0587 654.638 51.4 654.542 51.72C654.446 52.0293 654.313 52.3227 654.142 52.6C653.982 52.8773 653.79 53.144 653.566 53.4C653.353 53.6453 653.118 53.8853 652.862 54.12L649.598 57.24H654.702V59H647.166V57.24ZM663.476 56.216C663.476 55.8 663.551 55.416 663.7 55.064C663.86 54.7013 664.073 54.3867 664.34 54.12C664.617 53.8427 664.932 53.6293 665.284 53.48C665.647 53.32 666.036 53.24 666.452 53.24C666.868 53.24 667.252 53.32 667.604 53.48C667.967 53.6293 668.281 53.8427 668.548 54.12C668.825 54.3867 669.039 54.7013 669.188 55.064C669.348 55.416 669.428 55.8 669.428 56.216C669.428 56.632 669.348 57.0213 669.188 57.384C669.039 57.736 668.825 58.0507 668.548 58.328C668.281 58.5947 667.967 58.808 667.604 58.968C667.252 59.1173 666.868 59.192 666.452 59.192C666.036 59.192 665.647 59.1173 665.284 58.968C664.932 58.808 664.617 58.5947 664.34 58.328C664.073 58.0507 663.86 57.736 663.7 57.384C663.551 57.0213 663.476 56.632 663.476 56.216ZM667.892 56.216C667.892 55.8107 667.753 55.4693 667.476 55.192C667.199 54.9147 666.857 54.776 666.452 54.776C666.047 54.776 665.705 54.9147 665.428 55.192C665.151 55.4693 665.012 55.8107 665.012 56.216C665.012 56.6213 665.151 56.9627 665.428 57.24C665.705 57.5173 666.047 57.656 666.452 57.656C666.857 57.656 667.199 57.5173 667.476 57.24C667.753 56.9627 667.892 56.6213 667.892 56.216ZM655.828 50.456C655.828 50.04 655.903 49.656 656.052 49.304C656.212 48.9413 656.425 48.6267 656.692 48.36C656.969 48.0827 657.284 47.8693 657.636 47.72C657.999 47.56 658.388 47.48 658.804 47.48C659.22 47.48 659.604 47.56 659.956 47.72C660.319 47.8693 660.633 48.0827 660.9 48.36C661.177 48.6267 661.391 48.9413 661.54 49.304C661.7 49.656 661.78 50.04 661.78 50.456C661.78 50.872 661.7 51.2613 661.54 51.624C661.391 51.976 661.177 52.2907 660.9 52.568C660.633 52.8347 660.319 53.048 659.956 53.208C659.604 53.3573 659.22 53.432 658.804 53.432C658.388 53.432 657.999 53.3573 657.636 53.208C657.284 53.048 656.969 52.8347 656.692 52.568C656.425 52.2907 656.212 51.976 656.052 51.624C655.903 51.2613 655.828 50.872 655.828 50.456ZM660.244 50.456C660.244 50.0507 660.105 49.7093 659.828 49.432C659.551 49.1547 659.209 49.016 658.804 49.016C658.399 49.016 658.057 49.1547 657.78 49.432C657.503 49.7093 657.364 50.0507 657.364 50.456C657.364 50.8613 657.503 51.2027 657.78 51.48C658.057 51.7573 658.399 51.896 658.804 51.896C659.209 51.896 659.551 51.7573 659.828 51.48C660.105 51.2027 660.244 50.8613 660.244 50.456ZM665.284 47.16L666.612 47.768L659.956 59.512L658.628 58.904L665.284 47.16Z" fill="url(#paint2_linear_4503_396)"/>
<path d="M163.956 29.28C163.796 29.072 163.568 28.9 163.272 28.764C162.984 28.62 162.692 28.548 162.396 28.548C162.22 28.548 162.044 28.572 161.868 28.62C161.692 28.66 161.532 28.728 161.388 28.824C161.244 28.912 161.124 29.032 161.028 29.184C160.94 29.328 160.896 29.504 160.896 29.712C160.896 29.904 160.936 30.068 161.016 30.204C161.096 30.34 161.204 30.456 161.34 30.552C161.484 30.648 161.656 30.732 161.856 30.804C162.056 30.876 162.276 30.948 162.516 31.02C162.788 31.108 163.068 31.208 163.356 31.32C163.652 31.432 163.92 31.58 164.16 31.764C164.408 31.948 164.608 32.18 164.76 32.46C164.92 32.74 165 33.088 165 33.504C165 33.96 164.916 34.36 164.748 34.704C164.58 35.04 164.356 35.32 164.076 35.544C163.796 35.768 163.468 35.936 163.092 36.048C162.716 36.16 162.32 36.216 161.904 36.216C161.352 36.216 160.812 36.116 160.284 35.916C159.756 35.708 159.324 35.404 158.988 35.004L160.068 33.996C160.276 34.284 160.552 34.512 160.896 34.68C161.248 34.848 161.592 34.932 161.928 34.932C162.104 34.932 162.284 34.912 162.468 34.872C162.652 34.824 162.816 34.748 162.96 34.644C163.112 34.54 163.232 34.412 163.32 34.26C163.416 34.1 163.464 33.904 163.464 33.672C163.464 33.448 163.412 33.264 163.308 33.12C163.204 32.968 163.064 32.84 162.888 32.736C162.712 32.624 162.504 32.528 162.264 32.448C162.024 32.368 161.772 32.284 161.508 32.196C161.252 32.116 160.996 32.02 160.74 31.908C160.484 31.796 160.252 31.648 160.044 31.464C159.844 31.28 159.68 31.056 159.552 30.792C159.424 30.52 159.36 30.184 159.36 29.784C159.36 29.352 159.448 28.98 159.624 28.668C159.808 28.356 160.044 28.1 160.332 27.9C160.628 27.692 160.96 27.54 161.328 27.444C161.704 27.34 162.084 27.288 162.468 27.288C162.9 27.288 163.336 27.364 163.776 27.516C164.224 27.668 164.612 27.896 164.94 28.2L163.956 29.28ZM170.019 32.544C170.019 32.36 169.991 32.184 169.935 32.016C169.887 31.848 169.807 31.7 169.695 31.572C169.583 31.444 169.439 31.344 169.263 31.272C169.095 31.192 168.895 31.152 168.663 31.152C168.231 31.152 167.863 31.284 167.559 31.548C167.263 31.804 167.099 32.136 167.067 32.544H170.019ZM171.459 33.192C171.459 33.256 171.459 33.32 171.459 33.384C171.459 33.448 171.455 33.512 171.447 33.576H167.067C167.083 33.784 167.135 33.976 167.223 34.152C167.319 34.32 167.443 34.468 167.595 34.596C167.747 34.716 167.919 34.812 168.111 34.884C168.303 34.956 168.503 34.992 168.711 34.992C169.071 34.992 169.375 34.928 169.623 34.8C169.871 34.664 170.075 34.48 170.235 34.248L171.195 35.016C170.627 35.784 169.803 36.168 168.723 36.168C168.275 36.168 167.863 36.1 167.487 35.964C167.111 35.82 166.783 35.62 166.503 35.364C166.231 35.108 166.015 34.796 165.855 34.428C165.703 34.052 165.627 33.628 165.627 33.156C165.627 32.692 165.703 32.272 165.855 31.896C166.015 31.512 166.231 31.188 166.503 30.924C166.775 30.652 167.095 30.444 167.463 30.3C167.839 30.148 168.243 30.072 168.675 30.072C169.075 30.072 169.443 30.14 169.779 30.276C170.123 30.404 170.419 30.6 170.667 30.864C170.915 31.12 171.107 31.444 171.243 31.836C171.387 32.22 171.459 32.672 171.459 33.192ZM173.754 30.24V31.044H173.79C173.862 30.932 173.954 30.82 174.066 30.708C174.186 30.588 174.33 30.484 174.498 30.396C174.666 30.3 174.854 30.224 175.062 30.168C175.278 30.104 175.518 30.072 175.782 30.072C176.19 30.072 176.566 30.152 176.91 30.312C177.254 30.464 177.55 30.676 177.798 30.948C178.046 31.22 178.238 31.54 178.374 31.908C178.51 32.276 178.578 32.672 178.578 33.096C178.578 33.52 178.51 33.92 178.374 34.296C178.246 34.664 178.058 34.988 177.81 35.268C177.57 35.54 177.274 35.76 176.922 35.928C176.578 36.088 176.186 36.168 175.746 36.168C175.338 36.168 174.962 36.084 174.618 35.916C174.282 35.748 174.022 35.52 173.838 35.232H173.814V38.88H172.374V30.24H173.754ZM177.114 33.096C177.114 32.872 177.078 32.652 177.006 32.436C176.942 32.212 176.842 32.012 176.706 31.836C176.57 31.66 176.398 31.52 176.19 31.416C175.982 31.304 175.738 31.248 175.458 31.248C175.194 31.248 174.958 31.304 174.75 31.416C174.542 31.528 174.362 31.672 174.21 31.848C174.066 32.024 173.954 32.224 173.874 32.448C173.802 32.672 173.766 32.896 173.766 33.12C173.766 33.344 173.802 33.568 173.874 33.792C173.954 34.008 174.066 34.204 174.21 34.38C174.362 34.556 174.542 34.7 174.75 34.812C174.958 34.916 175.194 34.968 175.458 34.968C175.738 34.968 175.982 34.912 176.19 34.8C176.398 34.688 176.57 34.544 176.706 34.368C176.842 34.192 176.942 33.992 177.006 33.768C177.078 33.544 177.114 33.32 177.114 33.096ZM184.491 29.256L182.811 30.636L181.971 29.64L184.623 27.504H185.931V36H184.491V29.256ZM191.336 29.256L189.656 30.636L188.816 29.64L191.468 27.504H192.776V36H191.336V29.256Z" fill="white"/>
<path d="M164.901 50.008L162.661 51.848L161.541 50.52L165.077 47.672H166.821V59H164.901V50.008ZM170.666 57.24L175.034 52.952C175.386 52.6107 175.664 52.2693 175.866 51.928C176.08 51.576 176.186 51.176 176.186 50.728C176.186 50.1947 176.01 49.7733 175.658 49.464C175.317 49.144 174.89 48.984 174.378 48.984C173.834 48.984 173.397 49.1707 173.066 49.544C172.736 49.9067 172.533 50.3653 172.458 50.92L170.586 50.632C170.64 50.1627 170.773 49.7307 170.986 49.336C171.2 48.9413 171.472 48.6 171.802 48.312C172.133 48.024 172.517 47.8 172.954 47.64C173.402 47.4693 173.888 47.384 174.41 47.384C174.901 47.384 175.37 47.4533 175.818 47.592C176.277 47.7307 176.682 47.944 177.034 48.232C177.386 48.5093 177.664 48.856 177.866 49.272C178.08 49.6773 178.186 50.152 178.186 50.696C178.186 51.0587 178.138 51.4 178.042 51.72C177.946 52.0293 177.813 52.3227 177.642 52.6C177.482 52.8773 177.29 53.144 177.066 53.4C176.853 53.6453 176.618 53.8853 176.362 54.12L173.098 57.24H178.202V59H170.666V57.24ZM186.976 56.216C186.976 55.8 187.051 55.416 187.2 55.064C187.36 54.7013 187.573 54.3867 187.84 54.12C188.117 53.8427 188.432 53.6293 188.784 53.48C189.147 53.32 189.536 53.24 189.952 53.24C190.368 53.24 190.752 53.32 191.104 53.48C191.467 53.6293 191.781 53.8427 192.048 54.12C192.325 54.3867 192.539 54.7013 192.688 55.064C192.848 55.416 192.928 55.8 192.928 56.216C192.928 56.632 192.848 57.0213 192.688 57.384C192.539 57.736 192.325 58.0507 192.048 58.328C191.781 58.5947 191.467 58.808 191.104 58.968C190.752 59.1173 190.368 59.192 189.952 59.192C189.536 59.192 189.147 59.1173 188.784 58.968C188.432 58.808 188.117 58.5947 187.84 58.328C187.573 58.0507 187.36 57.736 187.2 57.384C187.051 57.0213 186.976 56.632 186.976 56.216ZM191.392 56.216C191.392 55.8107 191.253 55.4693 190.976 55.192C190.699 54.9147 190.357 54.776 189.952 54.776C189.547 54.776 189.205 54.9147 188.928 55.192C188.651 55.4693 188.512 55.8107 188.512 56.216C188.512 56.6213 188.651 56.9627 188.928 57.24C189.205 57.5173 189.547 57.656 189.952 57.656C190.357 57.656 190.699 57.5173 190.976 57.24C191.253 56.9627 191.392 56.6213 191.392 56.216ZM179.328 50.456C179.328 50.04 179.403 49.656 179.552 49.304C179.712 48.9413 179.925 48.6267 180.192 48.36C180.469 48.0827 180.784 47.8693 181.136 47.72C181.499 47.56 181.888 47.48 182.304 47.48C182.72 47.48 183.104 47.56 183.456 47.72C183.819 47.8693 184.133 48.0827 184.4 48.36C184.677 48.6267 184.891 48.9413 185.04 49.304C185.2 49.656 185.28 50.04 185.28 50.456C185.28 50.872 185.2 51.2613 185.04 51.624C184.891 51.976 184.677 52.2907 184.4 52.568C184.133 52.8347 183.819 53.048 183.456 53.208C183.104 53.3573 182.72 53.432 182.304 53.432C181.888 53.432 181.499 53.3573 181.136 53.208C180.784 53.048 180.469 52.8347 180.192 52.568C179.925 52.2907 179.712 51.976 179.552 51.624C179.403 51.2613 179.328 50.872 179.328 50.456ZM183.744 50.456C183.744 50.0507 183.605 49.7093 183.328 49.432C183.051 49.1547 182.709 49.016 182.304 49.016C181.899 49.016 181.557 49.1547 181.28 49.432C181.003 49.7093 180.864 50.0507 180.864 50.456C180.864 50.8613 181.003 51.2027 181.28 51.48C181.557 51.7573 181.899 51.896 182.304 51.896C182.709 51.896 183.051 51.7573 183.328 51.48C183.605 51.2027 183.744 50.8613 183.744 50.456ZM188.784 47.16L190.112 47.768L183.456 59.512L182.128 58.904L188.784 47.16Z" fill="url(#paint3_linear_4503_396)"/>
<path d="M476.892 27.504H478.896L482.844 33.864H482.868V27.504H484.38V36H482.46L478.428 29.436H478.404V36H476.892V27.504ZM485.367 33.096C485.367 32.64 485.447 32.228 485.607 31.86C485.775 31.484 485.999 31.164 486.279 30.9C486.559 30.636 486.891 30.432 487.275 30.288C487.659 30.144 488.067 30.072 488.499 30.072C488.931 30.072 489.339 30.144 489.723 30.288C490.107 30.432 490.439 30.636 490.719 30.9C490.999 31.164 491.219 31.484 491.379 31.86C491.547 32.228 491.631 32.64 491.631 33.096C491.631 33.552 491.547 33.968 491.379 34.344C491.219 34.72 490.999 35.044 490.719 35.316C490.439 35.58 490.107 35.788 489.723 35.94C489.339 36.092 488.931 36.168 488.499 36.168C488.067 36.168 487.659 36.092 487.275 35.94C486.891 35.788 486.559 35.58 486.279 35.316C485.999 35.044 485.775 34.72 485.607 34.344C485.447 33.968 485.367 33.552 485.367 33.096ZM486.831 33.096C486.831 33.32 486.863 33.544 486.927 33.768C486.999 33.992 487.103 34.192 487.239 34.368C487.375 34.544 487.547 34.688 487.755 34.8C487.963 34.912 488.211 34.968 488.499 34.968C488.787 34.968 489.035 34.912 489.243 34.8C489.451 34.688 489.623 34.544 489.759 34.368C489.895 34.192 489.995 33.992 490.059 33.768C490.131 33.544 490.167 33.32 490.167 33.096C490.167 32.872 490.131 32.652 490.059 32.436C489.995 32.212 489.895 32.012 489.759 31.836C489.623 31.66 489.451 31.52 489.243 31.416C489.035 31.304 488.787 31.248 488.499 31.248C488.211 31.248 487.963 31.304 487.755 31.416C487.547 31.52 487.375 31.66 487.239 31.836C487.103 32.012 486.999 32.212 486.927 32.436C486.863 32.652 486.831 32.872 486.831 33.096ZM491.683 30.24H493.255L494.767 34.44H494.791L496.315 30.24H497.839L495.547 36H494.011L491.683 30.24ZM503.224 29.256L501.544 30.636L500.704 29.64L503.356 27.504H504.664V36H503.224V29.256ZM510.068 29.256L508.388 30.636L507.548 29.64L510.2 27.504H511.508V36H510.068V29.256Z" fill="white"/>
<path d="M482.901 50.008L480.661 51.848L479.541 50.52L483.077 47.672H484.821V59H482.901V50.008ZM488.666 57.24L493.034 52.952C493.386 52.6107 493.664 52.2693 493.866 51.928C494.08 51.576 494.186 51.176 494.186 50.728C494.186 50.1947 494.01 49.7733 493.658 49.464C493.317 49.144 492.89 48.984 492.378 48.984C491.834 48.984 491.397 49.1707 491.066 49.544C490.736 49.9067 490.533 50.3653 490.458 50.92L488.586 50.632C488.64 50.1627 488.773 49.7307 488.986 49.336C489.2 48.9413 489.472 48.6 489.802 48.312C490.133 48.024 490.517 47.8 490.954 47.64C491.402 47.4693 491.888 47.384 492.41 47.384C492.901 47.384 493.37 47.4533 493.818 47.592C494.277 47.7307 494.682 47.944 495.034 48.232C495.386 48.5093 495.664 48.856 495.866 49.272C496.08 49.6773 496.186 50.152 496.186 50.696C496.186 51.0587 496.138 51.4 496.042 51.72C495.946 52.0293 495.813 52.3227 495.642 52.6C495.482 52.8773 495.29 53.144 495.066 53.4C494.853 53.6453 494.618 53.8853 494.362 54.12L491.098 57.24H496.202V59H488.666V57.24ZM504.976 56.216C504.976 55.8 505.051 55.416 505.2 55.064C505.36 54.7013 505.573 54.3867 505.84 54.12C506.117 53.8427 506.432 53.6293 506.784 53.48C507.147 53.32 507.536 53.24 507.952 53.24C508.368 53.24 508.752 53.32 509.104 53.48C509.467 53.6293 509.781 53.8427 510.048 54.12C510.325 54.3867 510.539 54.7013 510.688 55.064C510.848 55.416 510.928 55.8 510.928 56.216C510.928 56.632 510.848 57.0213 510.688 57.384C510.539 57.736 510.325 58.0507 510.048 58.328C509.781 58.5947 509.467 58.808 509.104 58.968C508.752 59.1173 508.368 59.192 507.952 59.192C507.536 59.192 507.147 59.1173 506.784 58.968C506.432 58.808 506.117 58.5947 505.84 58.328C505.573 58.0507 505.36 57.736 505.2 57.384C505.051 57.0213 504.976 56.632 504.976 56.216ZM509.392 56.216C509.392 55.8107 509.253 55.4693 508.976 55.192C508.699 54.9147 508.357 54.776 507.952 54.776C507.547 54.776 507.205 54.9147 506.928 55.192C506.651 55.4693 506.512 55.8107 506.512 56.216C506.512 56.6213 506.651 56.9627 506.928 57.24C507.205 57.5173 507.547 57.656 507.952 57.656C508.357 57.656 508.699 57.5173 508.976 57.24C509.253 56.9627 509.392 56.6213 509.392 56.216ZM497.328 50.456C497.328 50.04 497.403 49.656 497.552 49.304C497.712 48.9413 497.925 48.6267 498.192 48.36C498.469 48.0827 498.784 47.8693 499.136 47.72C499.499 47.56 499.888 47.48 500.304 47.48C500.72 47.48 501.104 47.56 501.456 47.72C501.819 47.8693 502.133 48.0827 502.4 48.36C502.677 48.6267 502.891 48.9413 503.04 49.304C503.2 49.656 503.28 50.04 503.28 50.456C503.28 50.872 503.2 51.2613 503.04 51.624C502.891 51.976 502.677 52.2907 502.4 52.568C502.133 52.8347 501.819 53.048 501.456 53.208C501.104 53.3573 500.72 53.432 500.304 53.432C499.888 53.432 499.499 53.3573 499.136 53.208C498.784 53.048 498.469 52.8347 498.192 52.568C497.925 52.2907 497.712 51.976 497.552 51.624C497.403 51.2613 497.328 50.872 497.328 50.456ZM501.744 50.456C501.744 50.0507 501.605 49.7093 501.328 49.432C501.051 49.1547 500.709 49.016 500.304 49.016C499.899 49.016 499.557 49.1547 499.28 49.432C499.003 49.7093 498.864 50.0507 498.864 50.456C498.864 50.8613 499.003 51.2027 499.28 51.48C499.557 51.7573 499.899 51.896 500.304 51.896C500.709 51.896 501.051 51.7573 501.328 51.48C501.605 51.2027 501.744 50.8613 501.744 50.456ZM506.784 47.16L508.112 47.768L501.456 59.512L500.128 58.904L506.784 47.16Z" fill="url(#paint4_linear_4503_396)"/>
<path d="M800.744 33.252C800.744 33.564 800.708 33.892 800.636 34.236C800.572 34.58 800.448 34.9 800.264 35.196C800.08 35.492 799.82 35.736 799.484 35.928C799.148 36.12 798.716 36.216 798.188 36.216C797.5 36.216 796.948 36.044 796.532 35.7C796.124 35.356 795.844 34.904 795.692 34.344L797.084 33.948C797.156 34.228 797.288 34.452 797.48 34.62C797.672 34.78 797.9 34.86 798.164 34.86C798.38 34.86 798.556 34.82 798.692 34.74C798.836 34.66 798.944 34.548 799.016 34.404C799.096 34.252 799.152 34.076 799.184 33.876C799.216 33.668 799.232 33.444 799.232 33.204V27.504H800.744V33.252ZM805.498 35.268H805.462C805.318 35.524 805.086 35.736 804.766 35.904C804.446 36.064 804.082 36.144 803.674 36.144C803.442 36.144 803.198 36.112 802.942 36.048C802.694 35.992 802.462 35.896 802.246 35.76C802.038 35.616 801.862 35.432 801.718 35.208C801.582 34.976 801.514 34.692 801.514 34.356C801.514 33.924 801.634 33.58 801.874 33.324C802.122 33.068 802.438 32.872 802.822 32.736C803.206 32.6 803.63 32.512 804.094 32.472C804.566 32.424 805.026 32.4 805.474 32.4V32.256C805.474 31.896 805.342 31.632 805.078 31.464C804.822 31.288 804.514 31.2 804.154 31.2C803.85 31.2 803.558 31.264 803.278 31.392C802.998 31.52 802.766 31.676 802.582 31.86L801.838 30.984C802.166 30.68 802.542 30.452 802.966 30.3C803.398 30.148 803.834 30.072 804.274 30.072C804.786 30.072 805.206 30.144 805.534 30.288C805.87 30.432 806.134 30.62 806.326 30.852C806.518 31.084 806.65 31.344 806.722 31.632C806.802 31.92 806.842 32.208 806.842 32.496V36H805.498V35.268ZM805.474 33.372H805.15C804.918 33.372 804.674 33.384 804.418 33.408C804.162 33.424 803.926 33.468 803.71 33.54C803.494 33.604 803.314 33.7 803.17 33.828C803.026 33.948 802.954 34.116 802.954 34.332C802.954 34.468 802.982 34.584 803.038 34.68C803.102 34.768 803.182 34.84 803.278 34.896C803.374 34.952 803.482 34.992 803.602 35.016C803.722 35.04 803.842 35.052 803.962 35.052C804.458 35.052 804.834 34.92 805.09 34.656C805.346 34.392 805.474 34.032 805.474 33.576V33.372ZM808.04 30.24H809.408V31.164H809.432C809.56 30.876 809.78 30.624 810.092 30.408C810.412 30.184 810.788 30.072 811.22 30.072C811.596 30.072 811.916 30.14 812.18 30.276C812.452 30.404 812.672 30.576 812.84 30.792C813.016 31.008 813.144 31.256 813.224 31.536C813.304 31.816 813.344 32.104 813.344 32.4V36H811.904V32.808C811.904 32.64 811.892 32.464 811.868 32.28C811.844 32.096 811.792 31.932 811.712 31.788C811.632 31.636 811.52 31.512 811.376 31.416C811.24 31.32 811.056 31.272 810.824 31.272C810.592 31.272 810.392 31.32 810.224 31.416C810.056 31.504 809.916 31.62 809.804 31.764C809.7 31.908 809.62 32.076 809.564 32.268C809.508 32.452 809.48 32.64 809.48 32.832V36H808.04V30.24ZM819.548 29.256L817.868 30.636L817.028 29.64L819.68 27.504H820.988V36H819.548V29.256ZM826.392 29.256L824.712 30.636L823.872 29.64L826.524 27.504H827.832V36H826.392V29.256Z" fill="white"/>
<path d="M800.901 50.008L798.661 51.848L797.541 50.52L801.077 47.672H802.821V59H800.901V50.008ZM806.666 57.24L811.034 52.952C811.386 52.6107 811.664 52.2693 811.866 51.928C812.08 51.576 812.186 51.176 812.186 50.728C812.186 50.1947 812.01 49.7733 811.658 49.464C811.317 49.144 810.89 48.984 810.378 48.984C809.834 48.984 809.397 49.1707 809.066 49.544C808.736 49.9067 808.533 50.3653 808.458 50.92L806.586 50.632C806.64 50.1627 806.773 49.7307 806.986 49.336C807.2 48.9413 807.472 48.6 807.802 48.312C808.133 48.024 808.517 47.8 808.954 47.64C809.402 47.4693 809.888 47.384 810.41 47.384C810.901 47.384 811.37 47.4533 811.818 47.592C812.277 47.7307 812.682 47.944 813.034 48.232C813.386 48.5093 813.664 48.856 813.866 49.272C814.08 49.6773 814.186 50.152 814.186 50.696C814.186 51.0587 814.138 51.4 814.042 51.72C813.946 52.0293 813.813 52.3227 813.642 52.6C813.482 52.8773 813.29 53.144 813.066 53.4C812.853 53.6453 812.618 53.8853 812.362 54.12L809.098 57.24H814.202V59H806.666V57.24ZM822.976 56.216C822.976 55.8 823.051 55.416 823.2 55.064C823.36 54.7013 823.573 54.3867 823.84 54.12C824.117 53.8427 824.432 53.6293 824.784 53.48C825.147 53.32 825.536 53.24 825.952 53.24C826.368 53.24 826.752 53.32 827.104 53.48C827.467 53.6293 827.781 53.8427 828.048 54.12C828.325 54.3867 828.539 54.7013 828.688 55.064C828.848 55.416 828.928 55.8 828.928 56.216C828.928 56.632 828.848 57.0213 828.688 57.384C828.539 57.736 828.325 58.0507 828.048 58.328C827.781 58.5947 827.467 58.808 827.104 58.968C826.752 59.1173 826.368 59.192 825.952 59.192C825.536 59.192 825.147 59.1173 824.784 58.968C824.432 58.808 824.117 58.5947 823.84 58.328C823.573 58.0507 823.36 57.736 823.2 57.384C823.051 57.0213 822.976 56.632 822.976 56.216ZM827.392 56.216C827.392 55.8107 827.253 55.4693 826.976 55.192C826.699 54.9147 826.357 54.776 825.952 54.776C825.547 54.776 825.205 54.9147 824.928 55.192C824.651 55.4693 824.512 55.8107 824.512 56.216C824.512 56.6213 824.651 56.9627 824.928 57.24C825.205 57.5173 825.547 57.656 825.952 57.656C826.357 57.656 826.699 57.5173 826.976 57.24C827.253 56.9627 827.392 56.6213 827.392 56.216ZM815.328 50.456C815.328 50.04 815.403 49.656 815.552 49.304C815.712 48.9413 815.925 48.6267 816.192 48.36C816.469 48.0827 816.784 47.8693 817.136 47.72C817.499 47.56 817.888 47.48 818.304 47.48C818.72 47.48 819.104 47.56 819.456 47.72C819.819 47.8693 820.133 48.0827 820.4 48.36C820.677 48.6267 820.891 48.9413 821.04 49.304C821.2 49.656 821.28 50.04 821.28 50.456C821.28 50.872 821.2 51.2613 821.04 51.624C820.891 51.976 820.677 52.2907 820.4 52.568C820.133 52.8347 819.819 53.048 819.456 53.208C819.104 53.3573 818.72 53.432 818.304 53.432C817.888 53.432 817.499 53.3573 817.136 53.208C816.784 53.048 816.469 52.8347 816.192 52.568C815.925 52.2907 815.712 51.976 815.552 51.624C815.403 51.2613 815.328 50.872 815.328 50.456ZM819.744 50.456C819.744 50.0507 819.605 49.7093 819.328 49.432C819.051 49.1547 818.709 49.016 818.304 49.016C817.899 49.016 817.557 49.1547 817.28 49.432C817.003 49.7093 816.864 50.0507 816.864 50.456C816.864 50.8613 817.003 51.2027 817.28 51.48C817.557 51.7573 817.899 51.896 818.304 51.896C818.709 51.896 819.051 51.7573 819.328 51.48C819.605 51.2027 819.744 50.8613 819.744 50.456ZM824.784 47.16L826.112 47.768L819.456 59.512L818.128 58.904L824.784 47.16Z" fill="url(#paint5_linear_4503_396)"/>
<path d="M954.406 27.504H959.89V28.824H955.918V31.152H959.662V32.424H955.918V36H954.406V27.504ZM964.214 32.544C964.214 32.36 964.186 32.184 964.13 32.016C964.082 31.848 964.002 31.7 963.89 31.572C963.778 31.444 963.634 31.344 963.458 31.272C963.29 31.192 963.09 31.152 962.858 31.152C962.426 31.152 962.058 31.284 961.754 31.548C961.458 31.804 961.294 32.136 961.262 32.544H964.214ZM965.654 33.192C965.654 33.256 965.654 33.32 965.654 33.384C965.654 33.448 965.65 33.512 965.642 33.576H961.262C961.278 33.784 961.33 33.976 961.418 34.152C961.514 34.32 961.638 34.468 961.79 34.596C961.942 34.716 962.114 34.812 962.306 34.884C962.498 34.956 962.698 34.992 962.906 34.992C963.266 34.992 963.57 34.928 963.818 34.8C964.066 34.664 964.27 34.48 964.43 34.248L965.39 35.016C964.822 35.784 963.998 36.168 962.918 36.168C962.47 36.168 962.058 36.1 961.682 35.964C961.306 35.82 960.978 35.62 960.698 35.364C960.426 35.108 960.21 34.796 960.05 34.428C959.898 34.052 959.822 33.628 959.822 33.156C959.822 32.692 959.898 32.272 960.05 31.896C960.21 31.512 960.426 31.188 960.698 30.924C960.97 30.652 961.29 30.444 961.658 30.3C962.034 30.148 962.438 30.072 962.87 30.072C963.27 30.072 963.638 30.14 963.974 30.276C964.318 30.404 964.614 30.6 964.862 30.864C965.11 31.12 965.302 31.444 965.438 31.836C965.582 32.22 965.654 32.672 965.654 33.192ZM968.033 26.928V30.972H968.069C968.141 30.876 968.233 30.776 968.345 30.672C968.457 30.568 968.589 30.472 968.741 30.384C968.901 30.296 969.085 30.224 969.293 30.168C969.501 30.104 969.737 30.072 970.001 30.072C970.409 30.072 970.785 30.152 971.129 30.312C971.473 30.464 971.769 30.676 972.017 30.948C972.265 31.22 972.457 31.54 972.593 31.908C972.729 32.276 972.797 32.672 972.797 33.096C972.797 33.52 972.729 33.92 972.593 34.296C972.465 34.664 972.277 34.988 972.029 35.268C971.789 35.54 971.493 35.76 971.141 35.928C970.797 36.088 970.405 36.168 969.965 36.168C969.557 36.168 969.173 36.08 968.813 35.904C968.461 35.728 968.185 35.472 967.985 35.136H967.961V36H966.593V26.928H968.033ZM971.333 33.096C971.333 32.872 971.297 32.652 971.225 32.436C971.161 32.212 971.061 32.012 970.925 31.836C970.789 31.66 970.617 31.52 970.409 31.416C970.201 31.304 969.957 31.248 969.677 31.248C969.413 31.248 969.177 31.304 968.969 31.416C968.761 31.528 968.581 31.672 968.429 31.848C968.285 32.024 968.173 32.224 968.093 32.448C968.021 32.672 967.985 32.896 967.985 33.12C967.985 33.344 968.021 33.568 968.093 33.792C968.173 34.008 968.285 34.204 968.429 34.38C968.581 34.556 968.761 34.7 968.969 34.812C969.177 34.916 969.413 34.968 969.677 34.968C969.957 34.968 970.201 34.912 970.409 34.8C970.617 34.688 970.789 34.544 970.925 34.368C971.061 34.192 971.161 33.992 971.225 33.768C971.297 33.544 971.333 33.32 971.333 33.096ZM978.71 29.256L977.03 30.636L976.19 29.64L978.842 27.504H980.15V36H978.71V29.256ZM985.554 29.256L983.874 30.636L983.034 29.64L985.686 27.504H986.994V36H985.554V29.256Z" fill="white"/>
<path d="M930.846 47.672H938.158V49.432H932.862V52.536H937.854V54.232H932.862V59H930.846V47.672ZM939.033 51.32H940.953V59H939.033V51.32ZM938.761 48.712C938.761 48.4027 938.873 48.136 939.097 47.912C939.331 47.6773 939.625 47.56 939.977 47.56C940.329 47.56 940.622 47.672 940.857 47.896C941.102 48.1093 941.225 48.3813 941.225 48.712C941.225 49.0427 941.102 49.32 940.857 49.544C940.622 49.7573 940.329 49.864 939.977 49.864C939.625 49.864 939.331 49.752 939.097 49.528C938.873 49.2933 938.761 49.0213 938.761 48.712ZM942.642 51.32H944.466V52.552H944.498C944.669 52.168 944.962 51.832 945.378 51.544C945.805 51.2453 946.306 51.096 946.882 51.096C947.383 51.096 947.81 51.1867 948.162 51.368C948.525 51.5387 948.818 51.768 949.042 52.056C949.277 52.344 949.447 52.6747 949.554 53.048C949.661 53.4213 949.714 53.8053 949.714 54.2V59H947.794V54.744C947.794 54.52 947.778 54.2853 947.746 54.04C947.714 53.7947 947.645 53.576 947.538 53.384C947.431 53.1813 947.282 53.016 947.09 52.888C946.909 52.76 946.663 52.696 946.354 52.696C946.045 52.696 945.778 52.76 945.554 52.888C945.33 53.0053 945.143 53.16 944.994 53.352C944.855 53.544 944.749 53.768 944.674 54.024C944.599 54.2693 944.562 54.52 944.562 54.776V59H942.642V51.32ZM956.083 58.024H956.035C955.843 58.3653 955.533 58.648 955.107 58.872C954.68 59.0853 954.195 59.192 953.651 59.192C953.341 59.192 953.016 59.1493 952.675 59.064C952.344 58.9893 952.035 58.8613 951.747 58.68C951.469 58.488 951.235 58.2427 951.043 57.944C950.861 57.6347 950.771 57.256 950.771 56.808C950.771 56.232 950.931 55.7733 951.251 55.432C951.581 55.0907 952.003 54.8293 952.515 54.648C953.027 54.4667 953.592 54.3493 954.211 54.296C954.84 54.232 955.453 54.2 956.051 54.2V54.008C956.051 53.528 955.875 53.176 955.523 52.952C955.181 52.7173 954.771 52.6 954.291 52.6C953.885 52.6 953.496 52.6853 953.123 52.856C952.749 53.0267 952.44 53.2347 952.195 53.48L951.203 52.312C951.64 51.9067 952.141 51.6027 952.707 51.4C953.283 51.1973 953.864 51.096 954.451 51.096C955.133 51.096 955.693 51.192 956.131 51.384C956.579 51.576 956.931 51.8267 957.187 52.136C957.443 52.4453 957.619 52.792 957.715 53.176C957.821 53.56 957.875 53.944 957.875 54.328V59H956.083V58.024ZM956.051 55.496H955.619C955.309 55.496 954.984 55.512 954.643 55.544C954.301 55.5653 953.987 55.624 953.699 55.72C953.411 55.8053 953.171 55.9333 952.979 56.104C952.787 56.264 952.691 56.488 952.691 56.776C952.691 56.9573 952.728 57.112 952.803 57.24C952.888 57.3573 952.995 57.4533 953.123 57.528C953.251 57.6027 953.395 57.656 953.555 57.688C953.715 57.72 953.875 57.736 954.035 57.736C954.696 57.736 955.197 57.56 955.539 57.208C955.88 56.856 956.051 56.376 956.051 55.768V55.496ZM959.503 46.904H961.423V59H959.503V46.904ZM975.593 54.84C975.593 55.5227 975.475 56.1413 975.241 56.696C975.006 57.24 974.686 57.704 974.281 58.088C973.875 58.472 973.395 58.7707 972.841 58.984C972.286 59.1867 971.683 59.288 971.033 59.288C970.382 59.288 969.779 59.1867 969.225 58.984C968.67 58.7707 968.185 58.472 967.769 58.088C967.363 57.704 967.043 57.24 966.809 56.696C966.585 56.1413 966.473 55.5227 966.473 54.84V47.672H968.489V54.76C968.489 55.0907 968.531 55.4213 968.617 55.752C968.702 56.072 968.841 56.36 969.033 56.616C969.235 56.872 969.497 57.08 969.817 57.24C970.147 57.4 970.553 57.48 971.033 57.48C971.513 57.48 971.913 57.4 972.233 57.24C972.563 57.08 972.825 56.872 973.017 56.616C973.219 56.36 973.363 56.072 973.449 55.752C973.534 55.4213 973.577 55.0907 973.577 54.76V47.672H975.593V54.84ZM977.255 51.32H979.079V52.552H979.111C979.281 52.168 979.575 51.832 979.991 51.544C980.417 51.2453 980.919 51.096 981.495 51.096C981.996 51.096 982.423 51.1867 982.775 51.368C983.137 51.5387 983.431 51.768 983.655 52.056C983.889 52.344 984.06 52.6747 984.167 53.048C984.273 53.4213 984.327 53.8053 984.327 54.2V59H982.407V54.744C982.407 54.52 982.391 54.2853 982.359 54.04C982.327 53.7947 982.257 53.576 982.151 53.384C982.044 53.1813 981.895 53.016 981.703 52.888C981.521 52.76 981.276 52.696 980.967 52.696C980.657 52.696 980.391 52.76 980.167 52.888C979.943 53.0053 979.756 53.16 979.607 53.352C979.468 53.544 979.361 53.768 979.287 54.024C979.212 54.2693 979.175 54.52 979.175 54.776V59H977.255V51.32ZM985.959 46.904H987.879V59H985.959V46.904ZM989.12 55.128C989.12 54.52 989.227 53.9707 989.44 53.48C989.664 52.9787 989.963 52.552 990.336 52.2C990.71 51.848 991.152 51.576 991.664 51.384C992.176 51.192 992.72 51.096 993.296 51.096C993.872 51.096 994.416 51.192 994.928 51.384C995.44 51.576 995.883 51.848 996.256 52.2C996.63 52.552 996.923 52.9787 997.136 53.48C997.36 53.9707 997.472 54.52 997.472 55.128C997.472 55.736 997.36 56.2907 997.136 56.792C996.923 57.2933 996.63 57.7253 996.256 58.088C995.883 58.44 995.44 58.7173 994.928 58.92C994.416 59.1227 993.872 59.224 993.296 59.224C992.72 59.224 992.176 59.1227 991.664 58.92C991.152 58.7173 990.71 58.44 990.336 58.088C989.963 57.7253 989.664 57.2933 989.44 56.792C989.227 56.2907 989.12 55.736 989.12 55.128ZM991.072 55.128C991.072 55.4267 991.115 55.7253 991.2 56.024C991.296 56.3227 991.435 56.5893 991.616 56.824C991.798 57.0587 992.027 57.2507 992.304 57.4C992.582 57.5493 992.912 57.624 993.296 57.624C993.68 57.624 994.011 57.5493 994.288 57.4C994.566 57.2507 994.795 57.0587 994.976 56.824C995.158 56.5893 995.291 56.3227 995.376 56.024C995.472 55.7253 995.52 55.4267 995.52 55.128C995.52 54.8293 995.472 54.536 995.376 54.248C995.291 53.9493 995.158 53.6827 994.976 53.448C994.795 53.2133 994.566 53.0267 994.288 52.888C994.011 52.7387 993.68 52.664 993.296 52.664C992.912 52.664 992.582 52.7387 992.304 52.888C992.027 53.0267 991.798 53.2133 991.616 53.448C991.435 53.6827 991.296 53.9493 991.2 54.248C991.115 54.536 991.072 54.8293 991.072 55.128ZM1003.94 53.448C1003.79 53.2347 1003.57 53.0587 1003.27 52.92C1002.97 52.7707 1002.67 52.696 1002.36 52.696C1002.01 52.696 1001.7 52.7707 1001.43 52.92C1001.16 53.0587 1000.94 53.2453 1000.76 53.48C1000.59 53.7147 1000.46 53.9813 1000.37 54.28C1000.29 54.568 1000.25 54.8613 1000.25 55.16C1000.25 55.4587 1000.29 55.7573 1000.37 56.056C1000.47 56.344 1000.61 56.6053 1000.79 56.84C1000.97 57.0747 1001.2 57.2667 1001.46 57.416C1001.74 57.5547 1002.06 57.624 1002.42 57.624C1002.72 57.624 1003.02 57.5653 1003.32 57.448C1003.62 57.3307 1003.86 57.16 1004.04 56.936L1005.24 58.152C1004.92 58.4933 1004.51 58.76 1004.01 58.952C1003.52 59.1333 1002.98 59.224 1002.41 59.224C1001.84 59.224 1001.3 59.1333 1000.79 58.952C1000.29 58.7707 999.846 58.504 999.462 58.152C999.089 57.8 998.79 57.3733 998.566 56.872C998.353 56.3707 998.246 55.8 998.246 55.16C998.246 54.5413 998.353 53.9813 998.566 53.48C998.79 52.9787 999.089 52.552 999.462 52.2C999.835 51.848 1000.27 51.576 1000.76 51.384C1001.26 51.192 1001.79 51.096 1002.36 51.096C1002.92 51.096 1003.47 51.2027 1003.99 51.416C1004.52 51.6293 1004.94 51.9227 1005.25 52.296L1003.94 53.448ZM1005.9 46.904H1007.82V54.552H1007.87L1010.78 51.32H1013.24L1009.91 54.792L1013.45 59H1010.91L1007.87 55.064H1007.82V59H1005.9V46.904Z" fill="url(#paint6_linear_4503_396)"/>
<defs>
<linearGradient id="paint0_linear_4503_396" x1="17.5" y1="44" x2="17.5" y2="64" gradientUnits="userSpaceOnUse">
<stop stop-color="#08EDDF"/>
<stop offset="1" stop-color="#CEED8B"/>
</linearGradient>
<linearGradient id="paint1_linear_4503_396" x1="335.5" y1="44" x2="335.5" y2="64" gradientUnits="userSpaceOnUse">
<stop stop-color="#08EDDF"/>
<stop offset="1" stop-color="#CEED8B"/>
</linearGradient>
<linearGradient id="paint2_linear_4503_396" x1="653.5" y1="44" x2="653.5" y2="64" gradientUnits="userSpaceOnUse">
<stop stop-color="#08EDDF"/>
<stop offset="1" stop-color="#CEED8B"/>
</linearGradient>
<linearGradient id="paint3_linear_4503_396" x1="177" y1="44" x2="177" y2="64" gradientUnits="userSpaceOnUse">
<stop stop-color="#08EDDF"/>
<stop offset="1" stop-color="#CEED8B"/>
</linearGradient>
<linearGradient id="paint4_linear_4503_396" x1="495" y1="44" x2="495" y2="64" gradientUnits="userSpaceOnUse">
<stop stop-color="#08EDDF"/>
<stop offset="1" stop-color="#CEED8B"/>
</linearGradient>
<linearGradient id="paint5_linear_4503_396" x1="813" y1="44" x2="813" y2="64" gradientUnits="userSpaceOnUse">
<stop stop-color="#08EDDF"/>
<stop offset="1" stop-color="#CEED8B"/>
</linearGradient>
<linearGradient id="paint6_linear_4503_396" x1="971.5" y1="44" x2="971.5" y2="64" gradientUnits="userSpaceOnUse">
<stop stop-color="#08EDDF"/>
<stop offset="1" stop-color="#CEED8B"/>
</linearGradient>
</defs>
</svg>
