<svg width="958" height="17" viewBox="0 0 958 17" fill="none" xmlns="http://www.w3.org/2000/svg">
<rect width="2.7292" height="16.3752" rx="1.3646" transform="matrix(1 0 0 -1 0.5 16.3752)" fill="white" fill-opacity="0.12"/>
<rect width="2.7292" height="8.18761" rx="1.3646" transform="matrix(1 0 0 -1 23.229 12.2815)" fill="white" fill-opacity="0.12"/>
<rect width="2.7292" height="8.18761" rx="1.3646" transform="matrix(1 0 0 -1 45.9585 12.2815)" fill="white" fill-opacity="0.12"/>
<rect width="2.7292" height="8.18761" rx="1.3646" transform="matrix(1 0 0 -1 68.6875 12.2815)" fill="white" fill-opacity="0.12"/>
<rect width="2.7292" height="8.18761" rx="1.3646" transform="matrix(1 0 0 -1 91.417 12.2815)" fill="white" fill-opacity="0.12"/>
<rect width="2.7292" height="8.18761" rx="1.3646" transform="matrix(1 0 0 -1 114.146 12.2815)" fill="white" fill-opacity="0.12"/>
<rect width="2.7292" height="8.18761" rx="1.3646" transform="matrix(1 0 0 -1 136.875 12.2815)" fill="white" fill-opacity="0.12"/>
<rect width="2.7292" height="16.3752" rx="1.3646" transform="matrix(1 0 0 -1 159.604 16.3752)" fill="white" fill-opacity="0.12"/>
<rect width="2.7292" height="8.18761" rx="1.3646" transform="matrix(1 0 0 -1 182.333 12.2815)" fill="white" fill-opacity="0.12"/>
<rect width="2.7292" height="8.18761" rx="1.3646" transform="matrix(1 0 0 -1 205.063 12.2815)" fill="white" fill-opacity="0.12"/>
<rect width="2.7292" height="8.18761" rx="1.3646" transform="matrix(1 0 0 -1 227.792 12.2815)" fill="white" fill-opacity="0.12"/>
<rect width="2.7292" height="8.18761" rx="1.3646" transform="matrix(1 0 0 -1 250.521 12.2815)" fill="white" fill-opacity="0.12"/>
<rect width="2.7292" height="8.18761" rx="1.3646" transform="matrix(1 0 0 -1 273.25 12.2815)" fill="white" fill-opacity="0.12"/>
<rect width="2.7292" height="8.18761" rx="1.3646" transform="matrix(1 0 0 -1 295.979 12.2815)" fill="white" fill-opacity="0.12"/>
<rect width="2.7292" height="16.3752" rx="1.3646" transform="matrix(1 0 0 -1 318.709 16.3752)" fill="white" fill-opacity="0.12"/>
<rect width="2.7292" height="8.18761" rx="1.3646" transform="matrix(1 0 0 -1 341.438 12.2815)" fill="white" fill-opacity="0.12"/>
<rect width="2.7292" height="8.18761" rx="1.3646" transform="matrix(1 0 0 -1 364.167 12.2815)" fill="white" fill-opacity="0.12"/>
<rect width="2.7292" height="8.18761" rx="1.3646" transform="matrix(1 0 0 -1 386.896 12.2815)" fill="white" fill-opacity="0.12"/>
<rect width="2.7292" height="8.18761" rx="1.3646" transform="matrix(1 0 0 -1 409.626 12.2815)" fill="white" fill-opacity="0.12"/>
<rect width="2.7292" height="8.18761" rx="1.3646" transform="matrix(1 0 0 -1 432.355 12.2815)" fill="white" fill-opacity="0.12"/>
<rect width="2.7292" height="8.18761" rx="1.3646" transform="matrix(1 0 0 -1 455.084 12.2815)" fill="white" fill-opacity="0.12"/>
<rect width="2.7292" height="16.3752" rx="1.3646" transform="matrix(1 0 0 -1 477.813 16.3752)" fill="white" fill-opacity="0.12"/>
<rect width="2.7292" height="8.18761" rx="1.3646" transform="matrix(1 0 0 -1 500.542 12.2815)" fill="white" fill-opacity="0.12"/>
<rect width="2.7292" height="8.18761" rx="1.3646" transform="matrix(1 0 0 -1 523.272 12.2815)" fill="white" fill-opacity="0.12"/>
<rect width="2.7292" height="8.18761" rx="1.3646" transform="matrix(1 0 0 -1 546.001 12.2815)" fill="white" fill-opacity="0.12"/>
<rect width="2.7292" height="8.18761" rx="1.3646" transform="matrix(1 0 0 -1 568.73 12.2815)" fill="white" fill-opacity="0.12"/>
<rect width="2.7292" height="8.18761" rx="1.3646" transform="matrix(1 0 0 -1 591.459 12.2815)" fill="white" fill-opacity="0.12"/>
<rect width="2.7292" height="8.18761" rx="1.3646" transform="matrix(1 0 0 -1 614.188 12.2815)" fill="white" fill-opacity="0.12"/>
<rect width="2.7292" height="16.3752" rx="1.3646" transform="matrix(1 0 0 -1 636.918 16.3752)" fill="white" fill-opacity="0.12"/>
<rect width="2.7292" height="8.18761" rx="1.3646" transform="matrix(1 0 0 -1 659.647 12.2815)" fill="white" fill-opacity="0.12"/>
<rect width="2.7292" height="8.18761" rx="1.3646" transform="matrix(1 0 0 -1 682.376 12.2815)" fill="white" fill-opacity="0.12"/>
<rect width="2.7292" height="8.18761" rx="1.3646" transform="matrix(1 0 0 -1 705.105 12.2815)" fill="white" fill-opacity="0.12"/>
<rect width="2.7292" height="8.18761" rx="1.3646" transform="matrix(1 0 0 -1 727.834 12.2815)" fill="white" fill-opacity="0.12"/>
<rect width="2.7292" height="8.18761" rx="1.3646" transform="matrix(1 0 0 -1 750.563 12.2815)" fill="white" fill-opacity="0.12"/>
<rect width="2.7292" height="8.18761" rx="1.3646" transform="matrix(1 0 0 -1 773.293 12.2815)" fill="white" fill-opacity="0.12"/>
<rect width="2.7292" height="16.3752" rx="1.3646" transform="matrix(1 0 0 -1 796.022 16.3752)" fill="white" fill-opacity="0.12"/>
<rect width="2.7292" height="8.18761" rx="1.3646" transform="matrix(1 0 0 -1 818.751 12.2815)" fill="white" fill-opacity="0.12"/>
<rect width="2.7292" height="8.18761" rx="1.3646" transform="matrix(1 0 0 -1 841.48 12.2815)" fill="white" fill-opacity="0.12"/>
<rect width="2.7292" height="8.18761" rx="1.3646" transform="matrix(1 0 0 -1 864.209 12.2815)" fill="white" fill-opacity="0.12"/>
<rect width="2.7292" height="8.18761" rx="1.3646" transform="matrix(1 0 0 -1 886.939 12.2815)" fill="white" fill-opacity="0.12"/>
<rect width="2.7292" height="8.18761" rx="1.3646" transform="matrix(1 0 0 -1 909.668 12.2815)" fill="white" fill-opacity="0.12"/>
<rect width="2.7292" height="8.18761" rx="1.3646" transform="matrix(1 0 0 -1 932.397 12.2815)" fill="white" fill-opacity="0.12"/>
<rect width="2.7292" height="16.3752" rx="1.3646" transform="matrix(1 0 0 -1 955.126 16.3752)" fill="white" fill-opacity="0.12"/>
</svg>
