<svg width="17" height="16" viewBox="0 0 17 16" fill="none" xmlns="http://www.w3.org/2000/svg">
<path fill-rule="evenodd" clip-rule="evenodd" d="M1.33398 7.99992C1.33398 4.04188 4.54261 0.833252 8.50065 0.833252C12.4587 0.833252 15.6673 4.04188 15.6673 7.99992C15.6673 11.958 12.4587 15.1666 8.50065 15.1666C4.54261 15.1666 1.33398 11.958 1.33398 7.99992Z" fill="#DAFF80"/>
<path fill-rule="evenodd" clip-rule="evenodd" d="M8.07437 4.58911C8.45307 4.58911 8.76007 4.89611 8.76007 5.27481V8.45694L10.6343 9.27477C10.9814 9.42623 11.14 9.83039 10.9885 10.1775C10.837 10.5246 10.4329 10.6832 10.0858 10.5317L7.80013 9.53433C7.55022 9.42528 7.38867 9.17853 7.38867 8.90586V5.27481C7.38867 4.89611 7.69567 4.58911 8.07437 4.58911Z" fill="#1A0C21"/>
</svg>
