<svg width="24" height="24" viewBox="0 0 24 24" fill="none" xmlns="http://www.w3.org/2000/svg">
<path d="M3.79735 11.4227C3.97654 9.71275 4.71466 8.1091 5.89765 6.86147C7.08083 5.61389 8.64315 4.79094 10.3413 4.52134C11.726 4.30158 13.1385 4.45999 14.4321 4.97036L15.1119 3.71746C15.2773 3.41263 15.7107 3.40054 15.8924 3.6958L18.3412 7.69007C18.5226 7.9859 18.316 8.36671 17.9691 8.3759L13.2856 8.50049C12.939 8.50935 12.7126 8.14019 12.8777 7.83536L13.6266 6.45506C12.663 6.11167 11.6234 6.01302 10.6034 6.1749C9.26943 6.38678 8.04233 7.03299 7.11281 8.01298C6.1833 8.99324 5.60298 10.2534 5.46216 11.5969C5.32146 12.9405 5.62784 14.2932 6.33398 15.4448C7.04024 16.5964 8.10661 17.4837 9.36796 17.9675C10.6294 18.4512 12.0155 18.5044 13.3107 18.1204C14.6059 17.7363 15.7389 16.9359 16.5327 15.8428C17.3264 14.7496 17.7366 13.4244 17.7009 12.0739C17.6888 11.6121 18.0544 11.2281 18.5162 11.2157C18.9781 11.2036 19.3628 11.568 19.375 12.03C19.4204 13.7488 18.8973 15.4355 17.8871 16.8268C16.8768 18.2179 15.4354 19.2377 13.787 19.7265C12.1386 20.2153 10.3743 20.1463 8.76899 19.5308C7.16359 18.915 5.80553 17.7863 4.90661 16.3206C4.00777 14.8548 3.61826 13.1328 3.79735 11.4227Z" fill="url(#paint0_linear_4503_469)"/>
<defs>
<linearGradient id="paint0_linear_4503_469" x1="5.13375" y1="7.71233" x2="18.866" y2="15.1629" gradientUnits="userSpaceOnUse">
<stop stop-color="#08EDDF"/>
<stop offset="1" stop-color="#CEED8B"/>
</linearGradient>
</defs>
</svg>
