<svg width="24" height="24" viewBox="0 0 24 24" fill="none" xmlns="http://www.w3.org/2000/svg">
<path d="M7.27519 14.7655C7.36086 14.6836 7.477 14.6376 7.5981 14.6376H18.7711C18.9747 14.6376 19.0766 14.8731 18.9326 15.0108L16.7248 17.1221C16.6392 17.204 16.523 17.25 16.4019 17.25H5.22886C5.02534 17.25 4.92345 17.0144 5.06741 16.8767L7.27519 14.7655Z" fill="currentColor" fill-opacity="0.92"/>
<path d="M7.27519 6.87795C7.36085 6.79602 7.477 6.75 7.5981 6.75H18.7711C18.9747 6.75 19.0766 6.98555 18.9326 7.12326L16.7248 9.23452C16.6391 9.31643 16.523 9.36244 16.4019 9.36244H5.22886C5.02534 9.36244 4.92345 9.12688 5.06741 8.98921L7.27519 6.87795Z" fill="currentColor" fill-opacity="0.92"/>
<path d="M16.7248 10.7966C16.6391 10.7147 16.523 10.6687 16.4019 10.6687H5.22886C5.02534 10.6687 4.92345 10.9042 5.06741 11.0419L7.27519 13.1532C7.36085 13.2351 7.477 13.2811 7.5981 13.2811H18.7711C18.9747 13.2811 19.0766 13.0456 18.9326 12.9079L16.7248 10.7966Z" fill="currentColor" fill-opacity="0.92"/>
</svg>
