<svg width="12" height="12" viewBox="0 0 12 12" fill="none" xmlns="http://www.w3.org/2000/svg">
<path d="M4.65 2.4V1.5M7.35 9.6V10.5M2.4 4.65H1.5M9.6 7.35H10.5M2.8114 2.8114L2.175 2.175M9.1886 9.1886L9.825 9.825M3.45442 6L2.49982 6.95459C1.79688 7.65754 1.79688 8.79724 2.49982 9.50018C3.20276 10.2031 4.34246 10.2031 5.04541 9.50018L6 8.54558L7.19558 7.35M8.54558 6L9.50018 5.04541C10.2031 4.34246 10.2031 3.20277 9.50018 2.49982C8.79724 1.79688 7.65754 1.79688 6.95459 2.49982L6 3.45442L4.80442 4.65" stroke="currentColor" stroke-linecap="round" stroke-linejoin="round"/>
</svg>
