<svg width="24" height="25" viewBox="0 0 24 25" fill="none" xmlns="http://www.w3.org/2000/svg">
<g clip-path="url(#clip0_3701_24827)">
<path d="M12 0.5C5.376 0.5 0 5.876 0 12.5C0 19.124 5.376 24.5 12 24.5C18.624 24.5 24 19.124 24 12.5C24 5.876 18.624 0.5 12 0.5ZM12 13.7C11.34 13.7 10.8 13.16 10.8 12.5V7.7C10.8 7.04 11.34 6.5 12 6.5C12.66 6.5 13.2 7.04 13.2 7.7V12.5C13.2 13.16 12.66 13.7 12 13.7ZM13.2 18.5H10.8V16.1H13.2V18.5Z" fill="#FF3666"/>
</g>
<defs>
<clipPath id="clip0_3701_24827">
<rect width="24" height="24" fill="white" transform="translate(0 0.5)"/>
</clipPath>
</defs>
</svg>
